%TF.GenerationSoftware,KiCad,Pcbnew,6.0.11-2627ca5db0~126~ubuntu22.04.1*%
%TF.CreationDate,2023-04-06T15:07:13+02:00*%
%TF.ProjectId,Subductor_carte_commande,53756264-7563-4746-9f72-5f6361727465,rev?*%
%TF.SameCoordinates,Original*%
%TF.FileFunction,Copper,L4,Bot*%
%TF.FilePolarity,Positive*%
%FSLAX46Y46*%
G04 Gerber Fmt 4.6, Leading zero omitted, Abs format (unit mm)*
G04 Created by KiCad (PCBNEW 6.0.11-2627ca5db0~126~ubuntu22.04.1) date 2023-04-06 15:07:13*
%MOMM*%
%LPD*%
G01*
G04 APERTURE LIST*
G04 Aperture macros list*
%AMRoundRect*
0 Rectangle with rounded corners*
0 $1 Rounding radius*
0 $2 $3 $4 $5 $6 $7 $8 $9 X,Y pos of 4 corners*
0 Add a 4 corners polygon primitive as box body*
4,1,4,$2,$3,$4,$5,$6,$7,$8,$9,$2,$3,0*
0 Add four circle primitives for the rounded corners*
1,1,$1+$1,$2,$3*
1,1,$1+$1,$4,$5*
1,1,$1+$1,$6,$7*
1,1,$1+$1,$8,$9*
0 Add four rect primitives between the rounded corners*
20,1,$1+$1,$2,$3,$4,$5,0*
20,1,$1+$1,$4,$5,$6,$7,0*
20,1,$1+$1,$6,$7,$8,$9,0*
20,1,$1+$1,$8,$9,$2,$3,0*%
G04 Aperture macros list end*
%TA.AperFunction,ComponentPad*%
%ADD10RoundRect,0.250000X0.600000X0.725000X-0.600000X0.725000X-0.600000X-0.725000X0.600000X-0.725000X0*%
%TD*%
%TA.AperFunction,ComponentPad*%
%ADD11O,1.700000X1.950000*%
%TD*%
%TA.AperFunction,ComponentPad*%
%ADD12RoundRect,0.250000X0.750000X-0.600000X0.750000X0.600000X-0.750000X0.600000X-0.750000X-0.600000X0*%
%TD*%
%TA.AperFunction,ComponentPad*%
%ADD13O,2.000000X1.700000*%
%TD*%
%TA.AperFunction,ComponentPad*%
%ADD14RoundRect,0.250000X0.725000X-0.600000X0.725000X0.600000X-0.725000X0.600000X-0.725000X-0.600000X0*%
%TD*%
%TA.AperFunction,ComponentPad*%
%ADD15O,1.950000X1.700000*%
%TD*%
%TA.AperFunction,ComponentPad*%
%ADD16R,3.000000X3.000000*%
%TD*%
%TA.AperFunction,ComponentPad*%
%ADD17C,3.000000*%
%TD*%
%TA.AperFunction,ComponentPad*%
%ADD18R,1.700000X1.700000*%
%TD*%
%TA.AperFunction,ComponentPad*%
%ADD19O,1.700000X1.700000*%
%TD*%
%TA.AperFunction,ComponentPad*%
%ADD20C,7.500000*%
%TD*%
%TA.AperFunction,ViaPad*%
%ADD21C,0.600000*%
%TD*%
%TA.AperFunction,Conductor*%
%ADD22C,0.800000*%
%TD*%
%TA.AperFunction,Conductor*%
%ADD23C,0.300000*%
%TD*%
G04 APERTURE END LIST*
D10*
%TO.P,J7,1,Pin_1*%
%TO.N,+5V*%
X60000000Y-116500000D03*
D11*
%TO.P,J7,2,Pin_2*%
%TO.N,BUZZER*%
X57500000Y-116500000D03*
%TO.P,J7,3,Pin_3*%
%TO.N,GND*%
X55000000Y-116500000D03*
%TD*%
D12*
%TO.P,J5,1,Pin_1*%
%TO.N,GND*%
X35000000Y-83750000D03*
D13*
%TO.P,J5,2,Pin_2*%
%TO.N,Bouton1*%
X35000000Y-81250000D03*
%TD*%
D14*
%TO.P,J2,1,Pin_1*%
%TO.N,GND*%
X115000000Y-71050000D03*
D15*
%TO.P,J2,2,Pin_2*%
%TO.N,+5V*%
X115000000Y-68550000D03*
%TO.P,J2,3,Pin_3*%
%TO.N,SDA*%
X115000000Y-66050000D03*
%TO.P,J2,4,Pin_4*%
%TO.N,SCL*%
X115000000Y-63550000D03*
%TD*%
D14*
%TO.P,J3,1,Pin_1*%
%TO.N,GND*%
X114500000Y-55000000D03*
D15*
%TO.P,J3,2,Pin_2*%
%TO.N,+5V*%
X114500000Y-52500000D03*
%TO.P,J3,3,Pin_3*%
%TO.N,SW*%
X114500000Y-50000000D03*
%TO.P,J3,4,Pin_4*%
%TO.N,DT*%
X114500000Y-47500000D03*
%TO.P,J3,5,Pin_5*%
%TO.N,CLK*%
X114500000Y-45000000D03*
%TD*%
D16*
%TO.P,J1,1,Pin_1*%
%TO.N,GND*%
X77540000Y-34500000D03*
D17*
%TO.P,J1,2,Pin_2*%
%TO.N,+5V*%
X72460000Y-34500000D03*
%TD*%
D18*
%TO.P,J4,1,Pin_1*%
%TO.N,+5V*%
X114800000Y-101100000D03*
D19*
%TO.P,J4,2,Pin_2*%
%TO.N,MISO*%
X114800000Y-98560000D03*
%TO.P,J4,3,Pin_3*%
%TO.N,MOSI*%
X114800000Y-96020000D03*
%TO.P,J4,4,Pin_4*%
%TO.N,SCK*%
X114800000Y-93480000D03*
%TO.P,J4,5,Pin_5*%
%TO.N,RST*%
X114800000Y-90940000D03*
%TO.P,J4,6,Pin_6*%
%TO.N,UART TX*%
X114800000Y-88400000D03*
%TO.P,J4,7,Pin_7*%
%TO.N,UART RX*%
X114800000Y-85860000D03*
%TO.P,J4,8,Pin_8*%
%TO.N,GND*%
X114800000Y-83320000D03*
%TD*%
D20*
%TO.P,H1,1,1*%
%TO.N,GND*%
X35000000Y-35000000D03*
%TD*%
%TO.P,H4,1,1*%
%TO.N,GND*%
X115000000Y-115000000D03*
%TD*%
D12*
%TO.P,J6,1,Pin_1*%
%TO.N,GND*%
X35000000Y-102500000D03*
D13*
%TO.P,J6,2,Pin_2*%
%TO.N,Bouton2*%
X35000000Y-100000000D03*
%TD*%
D20*
%TO.P,H3,1,1*%
%TO.N,GND*%
X35000000Y-115000000D03*
%TD*%
%TO.P,H2,1,1*%
%TO.N,GND*%
X115000000Y-35000000D03*
%TD*%
D21*
%TO.N,+5V*%
X95000000Y-87500000D03*
%TO.N,BUZZER*%
X66500000Y-78750000D03*
%TO.N,GND*%
X77900000Y-83400000D03*
X77100000Y-71900000D03*
X77100000Y-71000000D03*
X78700000Y-71000000D03*
X78700000Y-71800000D03*
X72500000Y-67000000D03*
X77500000Y-67000000D03*
%TO.N,+5V*%
X95120000Y-68880000D03*
%TO.N,SDA*%
X97500000Y-79000000D03*
%TO.N,SCL*%
X96500000Y-78000000D03*
%TO.N,MISO*%
X70000000Y-83000000D03*
%TO.N,Bouton1*%
X43500000Y-84316250D03*
X72000000Y-69500000D03*
%TO.N,Bouton2*%
X71000000Y-70500000D03*
X43537500Y-93537500D03*
%TO.N,SW*%
X87500000Y-73500000D03*
%TO.N,DT*%
X87500000Y-72000000D03*
%TO.N,CLK*%
X87500000Y-70500000D03*
%TD*%
D22*
%TO.N,+5V*%
X95120000Y-68880000D02*
X95000000Y-69000000D01*
X95000000Y-69000000D02*
X95000000Y-87500000D01*
D23*
%TO.N,BUZZER*%
X66500000Y-78750000D02*
X63750000Y-78750000D01*
X63750000Y-78750000D02*
X57500000Y-85000000D01*
X57500000Y-85000000D02*
X57500000Y-116500000D01*
%TO.N,SDA*%
X108450000Y-66050000D02*
X115000000Y-66050000D01*
X107500000Y-74000000D02*
X107500000Y-67000000D01*
X97500000Y-79000000D02*
X102500000Y-79000000D01*
X102500000Y-79000000D02*
X107500000Y-74000000D01*
X107500000Y-67000000D02*
X108450000Y-66050000D01*
%TO.N,SCL*%
X96500000Y-78000000D02*
X101500000Y-78000000D01*
X106000000Y-66500000D02*
X108950000Y-63550000D01*
X101500000Y-78000000D02*
X106000000Y-73500000D01*
X106000000Y-73500000D02*
X106000000Y-66500000D01*
X108950000Y-63550000D02*
X115000000Y-63550000D01*
%TO.N,MISO*%
X70000000Y-96000000D02*
X72600000Y-98600000D01*
X72600000Y-98600000D02*
X114800000Y-98600000D01*
X70000000Y-83000000D02*
X70000000Y-96000000D01*
%TO.N,Bouton1*%
X46183750Y-84316250D02*
X61000000Y-69500000D01*
X61000000Y-69500000D02*
X72000000Y-69500000D01*
X43500000Y-84316250D02*
X46183750Y-84316250D01*
%TO.N,Bouton2*%
X43537500Y-88462500D02*
X61500000Y-70500000D01*
X43537500Y-93537500D02*
X43537500Y-88462500D01*
X61500000Y-70500000D02*
X71000000Y-70500000D01*
%TO.N,SW*%
X87500000Y-73500000D02*
X111000000Y-50000000D01*
X111000000Y-50000000D02*
X114500000Y-50000000D01*
%TO.N,DT*%
X87500000Y-72000000D02*
X112000000Y-47500000D01*
X112000000Y-47500000D02*
X114500000Y-47500000D01*
%TO.N,CLK*%
X87500000Y-70500000D02*
X113000000Y-45000000D01*
X113000000Y-45000000D02*
X114500000Y-45000000D01*
%TD*%
%TA.AperFunction,Conductor*%
%TO.N,GND*%
G36*
X124433621Y-25528502D02*
G01*
X124480114Y-25582158D01*
X124491500Y-25634500D01*
X124491500Y-124365500D01*
X124471498Y-124433621D01*
X124417842Y-124480114D01*
X124365500Y-124491500D01*
X25634500Y-124491500D01*
X25566379Y-124471498D01*
X25519886Y-124417842D01*
X25508500Y-124365500D01*
X25508500Y-118186434D01*
X32178921Y-118186434D01*
X32185708Y-118196135D01*
X32385023Y-118366365D01*
X32389709Y-118370000D01*
X32713442Y-118597523D01*
X32718432Y-118600690D01*
X33062141Y-118796739D01*
X33067422Y-118799429D01*
X33428053Y-118962260D01*
X33433544Y-118964434D01*
X33807906Y-119092607D01*
X33813590Y-119094259D01*
X34198347Y-119186631D01*
X34204162Y-119187740D01*
X34595889Y-119243490D01*
X34601802Y-119244049D01*
X34997031Y-119262688D01*
X35002969Y-119262688D01*
X35398198Y-119244049D01*
X35404111Y-119243490D01*
X35795838Y-119187740D01*
X35801653Y-119186631D01*
X36186410Y-119094259D01*
X36192094Y-119092607D01*
X36566456Y-118964434D01*
X36571947Y-118962260D01*
X36932578Y-118799429D01*
X36937859Y-118796739D01*
X37281568Y-118600690D01*
X37286558Y-118597523D01*
X37610291Y-118370000D01*
X37614977Y-118366365D01*
X37812722Y-118197476D01*
X37819930Y-118186434D01*
X112178921Y-118186434D01*
X112185708Y-118196135D01*
X112385023Y-118366365D01*
X112389709Y-118370000D01*
X112713442Y-118597523D01*
X112718432Y-118600690D01*
X113062141Y-118796739D01*
X113067422Y-118799429D01*
X113428053Y-118962260D01*
X113433544Y-118964434D01*
X113807906Y-119092607D01*
X113813590Y-119094259D01*
X114198347Y-119186631D01*
X114204162Y-119187740D01*
X114595889Y-119243490D01*
X114601802Y-119244049D01*
X114997031Y-119262688D01*
X115002969Y-119262688D01*
X115398198Y-119244049D01*
X115404111Y-119243490D01*
X115795838Y-119187740D01*
X115801653Y-119186631D01*
X116186410Y-119094259D01*
X116192094Y-119092607D01*
X116566456Y-118964434D01*
X116571947Y-118962260D01*
X116932578Y-118799429D01*
X116937859Y-118796739D01*
X117281568Y-118600690D01*
X117286558Y-118597523D01*
X117610291Y-118370000D01*
X117614977Y-118366365D01*
X117812722Y-118197476D01*
X117821152Y-118184562D01*
X117815145Y-118174355D01*
X115012812Y-115372022D01*
X114998868Y-115364408D01*
X114997035Y-115364539D01*
X114990420Y-115368790D01*
X112186313Y-118172897D01*
X112178921Y-118186434D01*
X37819930Y-118186434D01*
X37821152Y-118184562D01*
X37815145Y-118174355D01*
X35012812Y-115372022D01*
X34998868Y-115364408D01*
X34997035Y-115364539D01*
X34990420Y-115368790D01*
X32186313Y-118172897D01*
X32178921Y-118186434D01*
X25508500Y-118186434D01*
X25508500Y-114869073D01*
X30739322Y-114869073D01*
X30745537Y-115264679D01*
X30745911Y-115270629D01*
X30789327Y-115663895D01*
X30790257Y-115669766D01*
X30870494Y-116057212D01*
X30871970Y-116062960D01*
X30988316Y-116441151D01*
X30990320Y-116446716D01*
X31141745Y-116812288D01*
X31144267Y-116817647D01*
X31329411Y-117167323D01*
X31332436Y-117172440D01*
X31549669Y-117503144D01*
X31553159Y-117507947D01*
X31800292Y-117816420D01*
X31813130Y-117823694D01*
X31814439Y-117823621D01*
X31821852Y-117818938D01*
X34627978Y-115012812D01*
X34634356Y-115001132D01*
X35364408Y-115001132D01*
X35364539Y-115002965D01*
X35368790Y-115009580D01*
X38175271Y-117816061D01*
X38189215Y-117823675D01*
X38190524Y-117823582D01*
X38197360Y-117819112D01*
X38199454Y-117816737D01*
X38446841Y-117507947D01*
X38450331Y-117503144D01*
X38667564Y-117172440D01*
X38670589Y-117167323D01*
X38855733Y-116817647D01*
X38858255Y-116812288D01*
X38875691Y-116770193D01*
X53649410Y-116770193D01*
X53656124Y-116849325D01*
X53657914Y-116859797D01*
X53713130Y-117072535D01*
X53716665Y-117082575D01*
X53806937Y-117282970D01*
X53812106Y-117292256D01*
X53934850Y-117474575D01*
X53941519Y-117482870D01*
X54093228Y-117641900D01*
X54101186Y-117648941D01*
X54277525Y-117780141D01*
X54286562Y-117785745D01*
X54482484Y-117885357D01*
X54492335Y-117889357D01*
X54702240Y-117954534D01*
X54712624Y-117956817D01*
X54728043Y-117958861D01*
X54742207Y-117956665D01*
X54746000Y-117943478D01*
X54746000Y-117941192D01*
X55254000Y-117941192D01*
X55257973Y-117954723D01*
X55268580Y-117956248D01*
X55386421Y-117931523D01*
X55396617Y-117928463D01*
X55601029Y-117847737D01*
X55610561Y-117843006D01*
X55798462Y-117728984D01*
X55807052Y-117722720D01*
X55973052Y-117578673D01*
X55980472Y-117571042D01*
X56119826Y-117401089D01*
X56125848Y-117392326D01*
X56141238Y-117365289D01*
X56192320Y-117315982D01*
X56261951Y-117302120D01*
X56328022Y-117328103D01*
X56355261Y-117357253D01*
X56384773Y-117401089D01*
X56437441Y-117479319D01*
X56441120Y-117483176D01*
X56441122Y-117483178D01*
X56502710Y-117547738D01*
X56596576Y-117646135D01*
X56781542Y-117783754D01*
X56786293Y-117786170D01*
X56786297Y-117786172D01*
X56860061Y-117823675D01*
X56987051Y-117888240D01*
X56992145Y-117889822D01*
X56992148Y-117889823D01*
X57157583Y-117941192D01*
X57207227Y-117956607D01*
X57212516Y-117957308D01*
X57430489Y-117986198D01*
X57430494Y-117986198D01*
X57435774Y-117986898D01*
X57441103Y-117986698D01*
X57441105Y-117986698D01*
X57550966Y-117982574D01*
X57666158Y-117978249D01*
X57688802Y-117973498D01*
X57886572Y-117932002D01*
X57891791Y-117930907D01*
X57896750Y-117928949D01*
X57896752Y-117928948D01*
X58101256Y-117848185D01*
X58101258Y-117848184D01*
X58106221Y-117846224D01*
X58111525Y-117843006D01*
X58298757Y-117729390D01*
X58298756Y-117729390D01*
X58303317Y-117726623D01*
X58343134Y-117692072D01*
X58473412Y-117579023D01*
X58473414Y-117579021D01*
X58477445Y-117575523D01*
X58506670Y-117539880D01*
X58565329Y-117499886D01*
X58636299Y-117497954D01*
X58697048Y-117534698D01*
X58711248Y-117553468D01*
X58727062Y-117579023D01*
X58801522Y-117699348D01*
X58926697Y-117824305D01*
X58932927Y-117828145D01*
X58932928Y-117828146D01*
X59070090Y-117912694D01*
X59077262Y-117917115D01*
X59112938Y-117928948D01*
X59238611Y-117970632D01*
X59238613Y-117970632D01*
X59245139Y-117972797D01*
X59251975Y-117973497D01*
X59251978Y-117973498D01*
X59287663Y-117977154D01*
X59349600Y-117983500D01*
X60650400Y-117983500D01*
X60653646Y-117983163D01*
X60653650Y-117983163D01*
X60749308Y-117973238D01*
X60749312Y-117973237D01*
X60756166Y-117972526D01*
X60762702Y-117970345D01*
X60762704Y-117970345D01*
X60894806Y-117926272D01*
X60923946Y-117916550D01*
X61074348Y-117823478D01*
X61199305Y-117698303D01*
X61231462Y-117646135D01*
X61288275Y-117553968D01*
X61288276Y-117553966D01*
X61292115Y-117547738D01*
X61347797Y-117379861D01*
X61350114Y-117357253D01*
X61358172Y-117278598D01*
X61358500Y-117275400D01*
X61358500Y-115724600D01*
X61352811Y-115669766D01*
X61348238Y-115625692D01*
X61348237Y-115625688D01*
X61347526Y-115618834D01*
X61340785Y-115598627D01*
X61293868Y-115458002D01*
X61291550Y-115451054D01*
X61198478Y-115300652D01*
X61073303Y-115175695D01*
X61042965Y-115156994D01*
X60928968Y-115086725D01*
X60928966Y-115086724D01*
X60922738Y-115082885D01*
X60803498Y-115043335D01*
X60761389Y-115029368D01*
X60761387Y-115029368D01*
X60754861Y-115027203D01*
X60748025Y-115026503D01*
X60748022Y-115026502D01*
X60704969Y-115022091D01*
X60650400Y-115016500D01*
X59349600Y-115016500D01*
X59346354Y-115016837D01*
X59346350Y-115016837D01*
X59250692Y-115026762D01*
X59250688Y-115026763D01*
X59243834Y-115027474D01*
X59237298Y-115029655D01*
X59237296Y-115029655D01*
X59105194Y-115073728D01*
X59076054Y-115083450D01*
X58925652Y-115176522D01*
X58800695Y-115301697D01*
X58727170Y-115420977D01*
X58710920Y-115447339D01*
X58658148Y-115494832D01*
X58588076Y-115506256D01*
X58522952Y-115477982D01*
X58512490Y-115468195D01*
X58420745Y-115372022D01*
X58403424Y-115353865D01*
X58218458Y-115216246D01*
X58217298Y-115215656D01*
X58170750Y-115163664D01*
X58158500Y-115109471D01*
X58158500Y-114869073D01*
X110739322Y-114869073D01*
X110745537Y-115264679D01*
X110745911Y-115270629D01*
X110789327Y-115663895D01*
X110790257Y-115669766D01*
X110870494Y-116057212D01*
X110871970Y-116062960D01*
X110988316Y-116441151D01*
X110990320Y-116446716D01*
X111141745Y-116812288D01*
X111144267Y-116817647D01*
X111329411Y-117167323D01*
X111332436Y-117172440D01*
X111549669Y-117503144D01*
X111553159Y-117507947D01*
X111800292Y-117816420D01*
X111813130Y-117823694D01*
X111814439Y-117823621D01*
X111821852Y-117818938D01*
X114627978Y-115012812D01*
X114634356Y-115001132D01*
X115364408Y-115001132D01*
X115364539Y-115002965D01*
X115368790Y-115009580D01*
X118175271Y-117816061D01*
X118189215Y-117823675D01*
X118190524Y-117823582D01*
X118197360Y-117819112D01*
X118199454Y-117816737D01*
X118446841Y-117507947D01*
X118450331Y-117503144D01*
X118667564Y-117172440D01*
X118670589Y-117167323D01*
X118855733Y-116817647D01*
X118858255Y-116812288D01*
X119009680Y-116446716D01*
X119011684Y-116441151D01*
X119128030Y-116062960D01*
X119129506Y-116057212D01*
X119209743Y-115669766D01*
X119210673Y-115663895D01*
X119254145Y-115270124D01*
X119254494Y-115265196D01*
X119262750Y-115002468D01*
X119262711Y-114997530D01*
X119244049Y-114601802D01*
X119243490Y-114595889D01*
X119187740Y-114204162D01*
X119186631Y-114198347D01*
X119094259Y-113813590D01*
X119092607Y-113807906D01*
X118964434Y-113433544D01*
X118962260Y-113428053D01*
X118799429Y-113067422D01*
X118796739Y-113062141D01*
X118600690Y-112718432D01*
X118597523Y-112713442D01*
X118370000Y-112389709D01*
X118366365Y-112385023D01*
X118197476Y-112187278D01*
X118184562Y-112178848D01*
X118174355Y-112184855D01*
X115372022Y-114987188D01*
X115364408Y-115001132D01*
X114634356Y-115001132D01*
X114635592Y-114998868D01*
X114635461Y-114997035D01*
X114631210Y-114990420D01*
X111827402Y-112186612D01*
X111813458Y-112178998D01*
X111813205Y-112179016D01*
X111804463Y-112184930D01*
X111717436Y-112280572D01*
X111713649Y-112285150D01*
X111476088Y-112601551D01*
X111472744Y-112606471D01*
X111266001Y-112943845D01*
X111263153Y-112949025D01*
X111089072Y-113304370D01*
X111086723Y-113309797D01*
X110946858Y-113679939D01*
X110945026Y-113685578D01*
X110840622Y-114067215D01*
X110839323Y-114073028D01*
X110771295Y-114462811D01*
X110770554Y-114468674D01*
X110739507Y-114863147D01*
X110739322Y-114869073D01*
X58158500Y-114869073D01*
X58158500Y-111815964D01*
X112178939Y-111815964D01*
X112178945Y-111816217D01*
X112184445Y-111825235D01*
X114987188Y-114627978D01*
X115001132Y-114635592D01*
X115002965Y-114635461D01*
X115009580Y-114631210D01*
X117816061Y-111824729D01*
X117823675Y-111810785D01*
X117823582Y-111809476D01*
X117819112Y-111802640D01*
X117816737Y-111800546D01*
X117507947Y-111553159D01*
X117503144Y-111549669D01*
X117172440Y-111332436D01*
X117167323Y-111329411D01*
X116817647Y-111144267D01*
X116812288Y-111141745D01*
X116446716Y-110990320D01*
X116441151Y-110988316D01*
X116062960Y-110871970D01*
X116057212Y-110870494D01*
X115669766Y-110790257D01*
X115663895Y-110789327D01*
X115270629Y-110745911D01*
X115264679Y-110745537D01*
X114869073Y-110739322D01*
X114863147Y-110739507D01*
X114468674Y-110770554D01*
X114462811Y-110771295D01*
X114073028Y-110839323D01*
X114067215Y-110840622D01*
X113685578Y-110945026D01*
X113679939Y-110946858D01*
X113309797Y-111086723D01*
X113304370Y-111089072D01*
X112949025Y-111263153D01*
X112943845Y-111266001D01*
X112606471Y-111472744D01*
X112601551Y-111476088D01*
X112285150Y-111713649D01*
X112280572Y-111717436D01*
X112187199Y-111802398D01*
X112178939Y-111815964D01*
X58158500Y-111815964D01*
X58158500Y-85324950D01*
X58178502Y-85256829D01*
X58195405Y-85235855D01*
X60442620Y-82988640D01*
X69186463Y-82988640D01*
X69204163Y-83169160D01*
X69261418Y-83341273D01*
X69265065Y-83347295D01*
X69265066Y-83347297D01*
X69323276Y-83443413D01*
X69341500Y-83508684D01*
X69341500Y-95917944D01*
X69340941Y-95929800D01*
X69339212Y-95937537D01*
X69339461Y-95945459D01*
X69341438Y-96008369D01*
X69341500Y-96012327D01*
X69341500Y-96041432D01*
X69342056Y-96045832D01*
X69342988Y-96057664D01*
X69344438Y-96103831D01*
X69346650Y-96111444D01*
X69346650Y-96111445D01*
X69350419Y-96124416D01*
X69354430Y-96143782D01*
X69357118Y-96165064D01*
X69360034Y-96172429D01*
X69360035Y-96172433D01*
X69374126Y-96208021D01*
X69377965Y-96219231D01*
X69390855Y-96263600D01*
X69401775Y-96282065D01*
X69410466Y-96299805D01*
X69418365Y-96319756D01*
X69445516Y-96357126D01*
X69452033Y-96367048D01*
X69471507Y-96399977D01*
X69471510Y-96399981D01*
X69475547Y-96406807D01*
X69490711Y-96421971D01*
X69503551Y-96437004D01*
X69516159Y-96454357D01*
X69551752Y-96483802D01*
X69560532Y-96491792D01*
X72076341Y-99007600D01*
X72084331Y-99016381D01*
X72084339Y-99016390D01*
X72088584Y-99023080D01*
X72094359Y-99028503D01*
X72140274Y-99071620D01*
X72143116Y-99074375D01*
X72163667Y-99094926D01*
X72166801Y-99097357D01*
X72167163Y-99097638D01*
X72176191Y-99105348D01*
X72209867Y-99136972D01*
X72216818Y-99140793D01*
X72216819Y-99140794D01*
X72228655Y-99147301D01*
X72245183Y-99158157D01*
X72262131Y-99171304D01*
X72304545Y-99189659D01*
X72315183Y-99194871D01*
X72355663Y-99217124D01*
X72363340Y-99219095D01*
X72363345Y-99219097D01*
X72376426Y-99222455D01*
X72395134Y-99228860D01*
X72414823Y-99237380D01*
X72422649Y-99238619D01*
X72422651Y-99238620D01*
X72447159Y-99242501D01*
X72460459Y-99244608D01*
X72472070Y-99247012D01*
X72503107Y-99254981D01*
X72509135Y-99256529D01*
X72509136Y-99256529D01*
X72516812Y-99258500D01*
X72538258Y-99258500D01*
X72557968Y-99260051D01*
X72579151Y-99263406D01*
X72625140Y-99259059D01*
X72636995Y-99258500D01*
X113564106Y-99258500D01*
X113632227Y-99278502D01*
X113671539Y-99318665D01*
X113699987Y-99365088D01*
X113846250Y-99533938D01*
X113850230Y-99537242D01*
X113854981Y-99541187D01*
X113894616Y-99600090D01*
X113896113Y-99671071D01*
X113858997Y-99731593D01*
X113818724Y-99756112D01*
X113703295Y-99799385D01*
X113586739Y-99886739D01*
X113499385Y-100003295D01*
X113448255Y-100139684D01*
X113441500Y-100201866D01*
X113441500Y-101998134D01*
X113448255Y-102060316D01*
X113499385Y-102196705D01*
X113586739Y-102313261D01*
X113703295Y-102400615D01*
X113839684Y-102451745D01*
X113901866Y-102458500D01*
X115698134Y-102458500D01*
X115760316Y-102451745D01*
X115896705Y-102400615D01*
X116013261Y-102313261D01*
X116100615Y-102196705D01*
X116151745Y-102060316D01*
X116158500Y-101998134D01*
X116158500Y-100201866D01*
X116151745Y-100139684D01*
X116100615Y-100003295D01*
X116013261Y-99886739D01*
X115896705Y-99799385D01*
X115884132Y-99794672D01*
X115778203Y-99754960D01*
X115721439Y-99712318D01*
X115696739Y-99645756D01*
X115711947Y-99576408D01*
X115733493Y-99547727D01*
X115751251Y-99530031D01*
X115838096Y-99443489D01*
X115968453Y-99262077D01*
X115982215Y-99234233D01*
X116065136Y-99066453D01*
X116065137Y-99066451D01*
X116067430Y-99061811D01*
X116132370Y-98848069D01*
X116161529Y-98626590D01*
X116163156Y-98560000D01*
X116144852Y-98337361D01*
X116090431Y-98120702D01*
X116001354Y-97915840D01*
X115880014Y-97728277D01*
X115729670Y-97563051D01*
X115725619Y-97559852D01*
X115725615Y-97559848D01*
X115558414Y-97427800D01*
X115558410Y-97427798D01*
X115554359Y-97424598D01*
X115513053Y-97401796D01*
X115463084Y-97351364D01*
X115448312Y-97281921D01*
X115473428Y-97215516D01*
X115500780Y-97188909D01*
X115544603Y-97157650D01*
X115679860Y-97061173D01*
X115838096Y-96903489D01*
X115897594Y-96820689D01*
X115965435Y-96726277D01*
X115968453Y-96722077D01*
X116067430Y-96521811D01*
X116132370Y-96308069D01*
X116161529Y-96086590D01*
X116162537Y-96045346D01*
X116163074Y-96023365D01*
X116163074Y-96023361D01*
X116163156Y-96020000D01*
X116144852Y-95797361D01*
X116090431Y-95580702D01*
X116001354Y-95375840D01*
X115880014Y-95188277D01*
X115729670Y-95023051D01*
X115725619Y-95019852D01*
X115725615Y-95019848D01*
X115558414Y-94887800D01*
X115558410Y-94887798D01*
X115554359Y-94884598D01*
X115513053Y-94861796D01*
X115463084Y-94811364D01*
X115448312Y-94741921D01*
X115473428Y-94675516D01*
X115500780Y-94648909D01*
X115544603Y-94617650D01*
X115679860Y-94521173D01*
X115838096Y-94363489D01*
X115866120Y-94324490D01*
X115965435Y-94186277D01*
X115968453Y-94182077D01*
X115977189Y-94164402D01*
X116065136Y-93986453D01*
X116065137Y-93986451D01*
X116067430Y-93981811D01*
X116132370Y-93768069D01*
X116161529Y-93546590D01*
X116163156Y-93480000D01*
X116144852Y-93257361D01*
X116090431Y-93040702D01*
X116001354Y-92835840D01*
X115880014Y-92648277D01*
X115729670Y-92483051D01*
X115725619Y-92479852D01*
X115725615Y-92479848D01*
X115558414Y-92347800D01*
X115558410Y-92347798D01*
X115554359Y-92344598D01*
X115513053Y-92321796D01*
X115463084Y-92271364D01*
X115448312Y-92201921D01*
X115473428Y-92135516D01*
X115500780Y-92108909D01*
X115544603Y-92077650D01*
X115679860Y-91981173D01*
X115838096Y-91823489D01*
X115897594Y-91740689D01*
X115965435Y-91646277D01*
X115968453Y-91642077D01*
X116067430Y-91441811D01*
X116132370Y-91228069D01*
X116161529Y-91006590D01*
X116163156Y-90940000D01*
X116144852Y-90717361D01*
X116090431Y-90500702D01*
X116001354Y-90295840D01*
X115880014Y-90108277D01*
X115729670Y-89943051D01*
X115725619Y-89939852D01*
X115725615Y-89939848D01*
X115558414Y-89807800D01*
X115558410Y-89807798D01*
X115554359Y-89804598D01*
X115513053Y-89781796D01*
X115463084Y-89731364D01*
X115448312Y-89661921D01*
X115473428Y-89595516D01*
X115500780Y-89568909D01*
X115544603Y-89537650D01*
X115679860Y-89441173D01*
X115838096Y-89283489D01*
X115897594Y-89200689D01*
X115965435Y-89106277D01*
X115968453Y-89102077D01*
X116067430Y-88901811D01*
X116118032Y-88735260D01*
X116130865Y-88693023D01*
X116130865Y-88693021D01*
X116132370Y-88688069D01*
X116161529Y-88466590D01*
X116162895Y-88410676D01*
X116163074Y-88403365D01*
X116163074Y-88403361D01*
X116163156Y-88400000D01*
X116144852Y-88177361D01*
X116090431Y-87960702D01*
X116001354Y-87755840D01*
X115880014Y-87568277D01*
X115729670Y-87403051D01*
X115725619Y-87399852D01*
X115725615Y-87399848D01*
X115558414Y-87267800D01*
X115558410Y-87267798D01*
X115554359Y-87264598D01*
X115513053Y-87241796D01*
X115463084Y-87191364D01*
X115448312Y-87121921D01*
X115473428Y-87055516D01*
X115500780Y-87028909D01*
X115544603Y-86997650D01*
X115679860Y-86901173D01*
X115838096Y-86743489D01*
X115897594Y-86660689D01*
X115965435Y-86566277D01*
X115968453Y-86562077D01*
X116067430Y-86361811D01*
X116132370Y-86148069D01*
X116161529Y-85926590D01*
X116163156Y-85860000D01*
X116144852Y-85637361D01*
X116090431Y-85420702D01*
X116001354Y-85215840D01*
X115945207Y-85129050D01*
X115882822Y-85032617D01*
X115882820Y-85032614D01*
X115880014Y-85028277D01*
X115729670Y-84863051D01*
X115725619Y-84859852D01*
X115725615Y-84859848D01*
X115558414Y-84727800D01*
X115558410Y-84727798D01*
X115554359Y-84724598D01*
X115537326Y-84715195D01*
X115521587Y-84706507D01*
X115512569Y-84701529D01*
X115462598Y-84651097D01*
X115447826Y-84581654D01*
X115472942Y-84515248D01*
X115500294Y-84488641D01*
X115675328Y-84363792D01*
X115683200Y-84357139D01*
X115834052Y-84206812D01*
X115840730Y-84198965D01*
X115965003Y-84026020D01*
X115970313Y-84017183D01*
X116064670Y-83826267D01*
X116068469Y-83816672D01*
X116130377Y-83612910D01*
X116132555Y-83602837D01*
X116133986Y-83591962D01*
X116131775Y-83577778D01*
X116118617Y-83574000D01*
X113483225Y-83574000D01*
X113469694Y-83577973D01*
X113468257Y-83587966D01*
X113498565Y-83722446D01*
X113501645Y-83732275D01*
X113581770Y-83929603D01*
X113586413Y-83938794D01*
X113697694Y-84120388D01*
X113703777Y-84128699D01*
X113843213Y-84289667D01*
X113850580Y-84296883D01*
X114014434Y-84432916D01*
X114022881Y-84438831D01*
X114091969Y-84479203D01*
X114140693Y-84530842D01*
X114153764Y-84600625D01*
X114127033Y-84666396D01*
X114086584Y-84699752D01*
X114073607Y-84706507D01*
X114069474Y-84709610D01*
X114069471Y-84709612D01*
X113910184Y-84829208D01*
X113894965Y-84840635D01*
X113891393Y-84844373D01*
X113766802Y-84974750D01*
X113740629Y-85002138D01*
X113737715Y-85006410D01*
X113737714Y-85006411D01*
X113719838Y-85032617D01*
X113614743Y-85186680D01*
X113520688Y-85389305D01*
X113460989Y-85604570D01*
X113437251Y-85826695D01*
X113437548Y-85831848D01*
X113437548Y-85831851D01*
X113443011Y-85926590D01*
X113450110Y-86049715D01*
X113451247Y-86054761D01*
X113451248Y-86054767D01*
X113471119Y-86142939D01*
X113499222Y-86267639D01*
X113583266Y-86474616D01*
X113699987Y-86665088D01*
X113846250Y-86833938D01*
X114018126Y-86976632D01*
X114088595Y-87017811D01*
X114091445Y-87019476D01*
X114140169Y-87071114D01*
X114153240Y-87140897D01*
X114126509Y-87206669D01*
X114086055Y-87240027D01*
X114073607Y-87246507D01*
X114069474Y-87249610D01*
X114069471Y-87249612D01*
X114045247Y-87267800D01*
X113894965Y-87380635D01*
X113740629Y-87542138D01*
X113737715Y-87546410D01*
X113737714Y-87546411D01*
X113725404Y-87564457D01*
X113614743Y-87726680D01*
X113599003Y-87760590D01*
X113544838Y-87877279D01*
X113520688Y-87929305D01*
X113460989Y-88144570D01*
X113437251Y-88366695D01*
X113437548Y-88371848D01*
X113437548Y-88371851D01*
X113443011Y-88466590D01*
X113450110Y-88589715D01*
X113451247Y-88594761D01*
X113451248Y-88594767D01*
X113471119Y-88682939D01*
X113499222Y-88807639D01*
X113583266Y-89014616D01*
X113699987Y-89205088D01*
X113846250Y-89373938D01*
X114018126Y-89516632D01*
X114088595Y-89557811D01*
X114091445Y-89559476D01*
X114140169Y-89611114D01*
X114153240Y-89680897D01*
X114126509Y-89746669D01*
X114086055Y-89780027D01*
X114073607Y-89786507D01*
X114069474Y-89789610D01*
X114069471Y-89789612D01*
X114045247Y-89807800D01*
X113894965Y-89920635D01*
X113740629Y-90082138D01*
X113614743Y-90266680D01*
X113520688Y-90469305D01*
X113460989Y-90684570D01*
X113437251Y-90906695D01*
X113437548Y-90911848D01*
X113437548Y-90911851D01*
X113443011Y-91006590D01*
X113450110Y-91129715D01*
X113451247Y-91134761D01*
X113451248Y-91134767D01*
X113471119Y-91222939D01*
X113499222Y-91347639D01*
X113583266Y-91554616D01*
X113699987Y-91745088D01*
X113846250Y-91913938D01*
X114018126Y-92056632D01*
X114088595Y-92097811D01*
X114091445Y-92099476D01*
X114140169Y-92151114D01*
X114153240Y-92220897D01*
X114126509Y-92286669D01*
X114086055Y-92320027D01*
X114073607Y-92326507D01*
X114069474Y-92329610D01*
X114069471Y-92329612D01*
X114045247Y-92347800D01*
X113894965Y-92460635D01*
X113740629Y-92622138D01*
X113614743Y-92806680D01*
X113520688Y-93009305D01*
X113460989Y-93224570D01*
X113437251Y-93446695D01*
X113437548Y-93451848D01*
X113437548Y-93451851D01*
X113449812Y-93664547D01*
X113450110Y-93669715D01*
X113451247Y-93674761D01*
X113451248Y-93674767D01*
X113456856Y-93699651D01*
X113499222Y-93887639D01*
X113583266Y-94094616D01*
X113585965Y-94099020D01*
X113688400Y-94266179D01*
X113699987Y-94285088D01*
X113846250Y-94453938D01*
X114018126Y-94596632D01*
X114088595Y-94637811D01*
X114091445Y-94639476D01*
X114140169Y-94691114D01*
X114153240Y-94760897D01*
X114126509Y-94826669D01*
X114086055Y-94860027D01*
X114073607Y-94866507D01*
X114069474Y-94869610D01*
X114069471Y-94869612D01*
X114045247Y-94887800D01*
X113894965Y-95000635D01*
X113740629Y-95162138D01*
X113614743Y-95346680D01*
X113520688Y-95549305D01*
X113460989Y-95764570D01*
X113437251Y-95986695D01*
X113437548Y-95991848D01*
X113437548Y-95991851D01*
X113447082Y-96157204D01*
X113450110Y-96209715D01*
X113451247Y-96214761D01*
X113451248Y-96214767D01*
X113463790Y-96270418D01*
X113499222Y-96427639D01*
X113583266Y-96634616D01*
X113699987Y-96825088D01*
X113846250Y-96993938D01*
X114018126Y-97136632D01*
X114088595Y-97177811D01*
X114091445Y-97179476D01*
X114140169Y-97231114D01*
X114153240Y-97300897D01*
X114126509Y-97366669D01*
X114086055Y-97400027D01*
X114073607Y-97406507D01*
X114069474Y-97409610D01*
X114069471Y-97409612D01*
X114045247Y-97427800D01*
X113894965Y-97540635D01*
X113740629Y-97702138D01*
X113737715Y-97706410D01*
X113737714Y-97706411D01*
X113614863Y-97886504D01*
X113559952Y-97931507D01*
X113510775Y-97941500D01*
X72924949Y-97941500D01*
X72856828Y-97921498D01*
X72835854Y-97904595D01*
X70695405Y-95764145D01*
X70661379Y-95701833D01*
X70658500Y-95675050D01*
X70658500Y-83507991D01*
X70679551Y-83438265D01*
X70723643Y-83371902D01*
X70788055Y-83202338D01*
X70789035Y-83195366D01*
X70812748Y-83026639D01*
X70812748Y-83026636D01*
X70813299Y-83022717D01*
X70813616Y-83000000D01*
X70793397Y-82819745D01*
X70791080Y-82813091D01*
X70736064Y-82655106D01*
X70736062Y-82655103D01*
X70733745Y-82648448D01*
X70708071Y-82607361D01*
X70641359Y-82500598D01*
X70637626Y-82494624D01*
X70632664Y-82489627D01*
X70514778Y-82370915D01*
X70514774Y-82370912D01*
X70509815Y-82365918D01*
X70498697Y-82358862D01*
X70402643Y-82297905D01*
X70356666Y-82268727D01*
X70327463Y-82258328D01*
X70192425Y-82210243D01*
X70192420Y-82210242D01*
X70185790Y-82207881D01*
X70178802Y-82207048D01*
X70178799Y-82207047D01*
X70055698Y-82192368D01*
X70005680Y-82186404D01*
X69998677Y-82187140D01*
X69998676Y-82187140D01*
X69832288Y-82204628D01*
X69832286Y-82204629D01*
X69825288Y-82205364D01*
X69653579Y-82263818D01*
X69647575Y-82267512D01*
X69505095Y-82355166D01*
X69505092Y-82355168D01*
X69499088Y-82358862D01*
X69494053Y-82363793D01*
X69494050Y-82363795D01*
X69394505Y-82461277D01*
X69369493Y-82485771D01*
X69271235Y-82638238D01*
X69268826Y-82644858D01*
X69268824Y-82644861D01*
X69211606Y-82802066D01*
X69209197Y-82808685D01*
X69186463Y-82988640D01*
X60442620Y-82988640D01*
X63985855Y-79445405D01*
X64048167Y-79411379D01*
X64074950Y-79408500D01*
X65992107Y-79408500D01*
X66061100Y-79429068D01*
X66086066Y-79445405D01*
X66133159Y-79476222D01*
X66139763Y-79478678D01*
X66139765Y-79478679D01*
X66296558Y-79536990D01*
X66296560Y-79536990D01*
X66303168Y-79539448D01*
X66367014Y-79547967D01*
X66475980Y-79562507D01*
X66475984Y-79562507D01*
X66482961Y-79563438D01*
X66489972Y-79562800D01*
X66489976Y-79562800D01*
X66632459Y-79549832D01*
X66663600Y-79546998D01*
X66670302Y-79544820D01*
X66670304Y-79544820D01*
X66829409Y-79493124D01*
X66829412Y-79493123D01*
X66836108Y-79490947D01*
X66939911Y-79429068D01*
X66985860Y-79401677D01*
X66985862Y-79401676D01*
X66991912Y-79398069D01*
X67123266Y-79272982D01*
X67223643Y-79121902D01*
X67288055Y-78952338D01*
X67308244Y-78808685D01*
X67312748Y-78776639D01*
X67312748Y-78776636D01*
X67313299Y-78772717D01*
X67313616Y-78750000D01*
X67293397Y-78569745D01*
X67291080Y-78563091D01*
X67236064Y-78405106D01*
X67236062Y-78405103D01*
X67233745Y-78398448D01*
X67137626Y-78244624D01*
X67114670Y-78221507D01*
X67014778Y-78120915D01*
X67014774Y-78120912D01*
X67009815Y-78115918D01*
X66995949Y-78107118D01*
X66941900Y-78072818D01*
X66856666Y-78018727D01*
X66827463Y-78008328D01*
X66692425Y-77960243D01*
X66692420Y-77960242D01*
X66685790Y-77957881D01*
X66678802Y-77957048D01*
X66678799Y-77957047D01*
X66555698Y-77942368D01*
X66505680Y-77936404D01*
X66498677Y-77937140D01*
X66498676Y-77937140D01*
X66332288Y-77954628D01*
X66332286Y-77954629D01*
X66325288Y-77955364D01*
X66235094Y-77986068D01*
X66160249Y-78011547D01*
X66160246Y-78011548D01*
X66153579Y-78013818D01*
X66147581Y-78017508D01*
X66147579Y-78017509D01*
X66057676Y-78072818D01*
X65991654Y-78091500D01*
X63832059Y-78091500D01*
X63820203Y-78090941D01*
X63812463Y-78089211D01*
X63804537Y-78089460D01*
X63804536Y-78089460D01*
X63741611Y-78091438D01*
X63737653Y-78091500D01*
X63708568Y-78091500D01*
X63704637Y-78091997D01*
X63704630Y-78091997D01*
X63704179Y-78092054D01*
X63692343Y-78092986D01*
X63646169Y-78094438D01*
X63625579Y-78100420D01*
X63606218Y-78104430D01*
X63599230Y-78105312D01*
X63592796Y-78106125D01*
X63592795Y-78106125D01*
X63584936Y-78107118D01*
X63577571Y-78110034D01*
X63577567Y-78110035D01*
X63541979Y-78124126D01*
X63530769Y-78127965D01*
X63486400Y-78140855D01*
X63467935Y-78151775D01*
X63450195Y-78160466D01*
X63430244Y-78168365D01*
X63392874Y-78195516D01*
X63382952Y-78202033D01*
X63350023Y-78221507D01*
X63350019Y-78221510D01*
X63343193Y-78225547D01*
X63328029Y-78240711D01*
X63312996Y-78253551D01*
X63295643Y-78266159D01*
X63266198Y-78301752D01*
X63258208Y-78310532D01*
X57092395Y-84476345D01*
X57083615Y-84484335D01*
X57083613Y-84484337D01*
X57076920Y-84488584D01*
X57071494Y-84494362D01*
X57071493Y-84494363D01*
X57028396Y-84540257D01*
X57025641Y-84543099D01*
X57005073Y-84563667D01*
X57002356Y-84567170D01*
X56994648Y-84576195D01*
X56963028Y-84609867D01*
X56959207Y-84616818D01*
X56959206Y-84616819D01*
X56952697Y-84628658D01*
X56941843Y-84645182D01*
X56934018Y-84655271D01*
X56928696Y-84662132D01*
X56925549Y-84669404D01*
X56925548Y-84669406D01*
X56910346Y-84704535D01*
X56905124Y-84715195D01*
X56899955Y-84724598D01*
X56882876Y-84755663D01*
X56877541Y-84776441D01*
X56871142Y-84795131D01*
X56862620Y-84814824D01*
X56861380Y-84822655D01*
X56855394Y-84860448D01*
X56852987Y-84872071D01*
X56841500Y-84916812D01*
X56841500Y-84938259D01*
X56839949Y-84957969D01*
X56836594Y-84979152D01*
X56837340Y-84987043D01*
X56840941Y-85025138D01*
X56841500Y-85036996D01*
X56841500Y-115114575D01*
X56821498Y-115182696D01*
X56780867Y-115222293D01*
X56696683Y-115273377D01*
X56692653Y-115276874D01*
X56591628Y-115364539D01*
X56522555Y-115424477D01*
X56503809Y-115447339D01*
X56379760Y-115598627D01*
X56379756Y-115598633D01*
X56376376Y-115602755D01*
X56373733Y-115607398D01*
X56358171Y-115634735D01*
X56307088Y-115684041D01*
X56237458Y-115697902D01*
X56171387Y-115671918D01*
X56144149Y-115642768D01*
X56065148Y-115525422D01*
X56058481Y-115517130D01*
X55906772Y-115358100D01*
X55898814Y-115351059D01*
X55722475Y-115219859D01*
X55713438Y-115214255D01*
X55517516Y-115114643D01*
X55507665Y-115110643D01*
X55297760Y-115045466D01*
X55287376Y-115043183D01*
X55271957Y-115041139D01*
X55257793Y-115043335D01*
X55254000Y-115056522D01*
X55254000Y-117941192D01*
X54746000Y-117941192D01*
X54746000Y-116772115D01*
X54741525Y-116756876D01*
X54740135Y-116755671D01*
X54732452Y-116754000D01*
X53666151Y-116754000D01*
X53651473Y-116758310D01*
X53649410Y-116770193D01*
X38875691Y-116770193D01*
X39009680Y-116446716D01*
X39011684Y-116441151D01*
X39077204Y-116228174D01*
X53646496Y-116228174D01*
X53647915Y-116241414D01*
X53662550Y-116246000D01*
X54727885Y-116246000D01*
X54743124Y-116241525D01*
X54744329Y-116240135D01*
X54746000Y-116232452D01*
X54746000Y-115058808D01*
X54742027Y-115045277D01*
X54731420Y-115043752D01*
X54613579Y-115068477D01*
X54603383Y-115071537D01*
X54398971Y-115152263D01*
X54389439Y-115156994D01*
X54201538Y-115271016D01*
X54192948Y-115277280D01*
X54026948Y-115421327D01*
X54019528Y-115428958D01*
X53880174Y-115598911D01*
X53874150Y-115607678D01*
X53765424Y-115798682D01*
X53760959Y-115808346D01*
X53685969Y-116014941D01*
X53683198Y-116025208D01*
X53646496Y-116228174D01*
X39077204Y-116228174D01*
X39128030Y-116062960D01*
X39129506Y-116057212D01*
X39209743Y-115669766D01*
X39210673Y-115663895D01*
X39254145Y-115270124D01*
X39254494Y-115265196D01*
X39262750Y-115002468D01*
X39262711Y-114997530D01*
X39244049Y-114601802D01*
X39243490Y-114595889D01*
X39187740Y-114204162D01*
X39186631Y-114198347D01*
X39094259Y-113813590D01*
X39092607Y-113807906D01*
X38964434Y-113433544D01*
X38962260Y-113428053D01*
X38799429Y-113067422D01*
X38796739Y-113062141D01*
X38600690Y-112718432D01*
X38597523Y-112713442D01*
X38370000Y-112389709D01*
X38366365Y-112385023D01*
X38197476Y-112187278D01*
X38184562Y-112178848D01*
X38174355Y-112184855D01*
X35372022Y-114987188D01*
X35364408Y-115001132D01*
X34634356Y-115001132D01*
X34635592Y-114998868D01*
X34635461Y-114997035D01*
X34631210Y-114990420D01*
X31827402Y-112186612D01*
X31813458Y-112178998D01*
X31813205Y-112179016D01*
X31804463Y-112184930D01*
X31717436Y-112280572D01*
X31713649Y-112285150D01*
X31476088Y-112601551D01*
X31472744Y-112606471D01*
X31266001Y-112943845D01*
X31263153Y-112949025D01*
X31089072Y-113304370D01*
X31086723Y-113309797D01*
X30946858Y-113679939D01*
X30945026Y-113685578D01*
X30840622Y-114067215D01*
X30839323Y-114073028D01*
X30771295Y-114462811D01*
X30770554Y-114468674D01*
X30739507Y-114863147D01*
X30739322Y-114869073D01*
X25508500Y-114869073D01*
X25508500Y-111815964D01*
X32178939Y-111815964D01*
X32178945Y-111816217D01*
X32184445Y-111825235D01*
X34987188Y-114627978D01*
X35001132Y-114635592D01*
X35002965Y-114635461D01*
X35009580Y-114631210D01*
X37816061Y-111824729D01*
X37823675Y-111810785D01*
X37823582Y-111809476D01*
X37819112Y-111802640D01*
X37816737Y-111800546D01*
X37507947Y-111553159D01*
X37503144Y-111549669D01*
X37172440Y-111332436D01*
X37167323Y-111329411D01*
X36817647Y-111144267D01*
X36812288Y-111141745D01*
X36446716Y-110990320D01*
X36441151Y-110988316D01*
X36062960Y-110871970D01*
X36057212Y-110870494D01*
X35669766Y-110790257D01*
X35663895Y-110789327D01*
X35270629Y-110745911D01*
X35264679Y-110745537D01*
X34869073Y-110739322D01*
X34863147Y-110739507D01*
X34468674Y-110770554D01*
X34462811Y-110771295D01*
X34073028Y-110839323D01*
X34067215Y-110840622D01*
X33685578Y-110945026D01*
X33679939Y-110946858D01*
X33309797Y-111086723D01*
X33304370Y-111089072D01*
X32949025Y-111263153D01*
X32943845Y-111266001D01*
X32606471Y-111472744D01*
X32601551Y-111476088D01*
X32285150Y-111713649D01*
X32280572Y-111717436D01*
X32187199Y-111802398D01*
X32178939Y-111815964D01*
X25508500Y-111815964D01*
X25508500Y-103147095D01*
X33492001Y-103147095D01*
X33492338Y-103153614D01*
X33502257Y-103249206D01*
X33505149Y-103262600D01*
X33556588Y-103416784D01*
X33562761Y-103429962D01*
X33648063Y-103567807D01*
X33657099Y-103579208D01*
X33771829Y-103693739D01*
X33783240Y-103702751D01*
X33921243Y-103787816D01*
X33934424Y-103793963D01*
X34088710Y-103845138D01*
X34102086Y-103848005D01*
X34196438Y-103857672D01*
X34202854Y-103858000D01*
X34727885Y-103858000D01*
X34743124Y-103853525D01*
X34744329Y-103852135D01*
X34746000Y-103844452D01*
X34746000Y-103839884D01*
X35254000Y-103839884D01*
X35258475Y-103855123D01*
X35259865Y-103856328D01*
X35267548Y-103857999D01*
X35797095Y-103857999D01*
X35803614Y-103857662D01*
X35899206Y-103847743D01*
X35912600Y-103844851D01*
X36066784Y-103793412D01*
X36079962Y-103787239D01*
X36217807Y-103701937D01*
X36229208Y-103692901D01*
X36343739Y-103578171D01*
X36352751Y-103566760D01*
X36437816Y-103428757D01*
X36443963Y-103415576D01*
X36495138Y-103261290D01*
X36498005Y-103247914D01*
X36507672Y-103153562D01*
X36508000Y-103147146D01*
X36508000Y-102772115D01*
X36503525Y-102756876D01*
X36502135Y-102755671D01*
X36494452Y-102754000D01*
X35272115Y-102754000D01*
X35256876Y-102758475D01*
X35255671Y-102759865D01*
X35254000Y-102767548D01*
X35254000Y-103839884D01*
X34746000Y-103839884D01*
X34746000Y-102772115D01*
X34741525Y-102756876D01*
X34740135Y-102755671D01*
X34732452Y-102754000D01*
X33510116Y-102754000D01*
X33494877Y-102758475D01*
X33493672Y-102759865D01*
X33492001Y-102767548D01*
X33492001Y-103147095D01*
X25508500Y-103147095D01*
X25508500Y-99935774D01*
X33488102Y-99935774D01*
X33488302Y-99941103D01*
X33488302Y-99941105D01*
X33492427Y-100050966D01*
X33496751Y-100166158D01*
X33544093Y-100391791D01*
X33628776Y-100606221D01*
X33748377Y-100803317D01*
X33751874Y-100807347D01*
X33838438Y-100907103D01*
X33899477Y-100977445D01*
X33903608Y-100980832D01*
X33935529Y-101007006D01*
X33975524Y-101065666D01*
X33977455Y-101136636D01*
X33940710Y-101197384D01*
X33921941Y-101211584D01*
X33782193Y-101298063D01*
X33770792Y-101307099D01*
X33656261Y-101421829D01*
X33647249Y-101433240D01*
X33562184Y-101571243D01*
X33556037Y-101584424D01*
X33504862Y-101738710D01*
X33501995Y-101752086D01*
X33492328Y-101846438D01*
X33492000Y-101852855D01*
X33492000Y-102227885D01*
X33496475Y-102243124D01*
X33497865Y-102244329D01*
X33505548Y-102246000D01*
X36489884Y-102246000D01*
X36505123Y-102241525D01*
X36506328Y-102240135D01*
X36507999Y-102232452D01*
X36507999Y-101852905D01*
X36507662Y-101846386D01*
X36497743Y-101750794D01*
X36494851Y-101737400D01*
X36443412Y-101583216D01*
X36437239Y-101570038D01*
X36351937Y-101432193D01*
X36342901Y-101420792D01*
X36228171Y-101306261D01*
X36216757Y-101297247D01*
X36077287Y-101211277D01*
X36029793Y-101158505D01*
X36018369Y-101088434D01*
X36046643Y-101023310D01*
X36056430Y-101012847D01*
X36089991Y-100980832D01*
X36171135Y-100903424D01*
X36308754Y-100718458D01*
X36413240Y-100512949D01*
X36449321Y-100396752D01*
X36480024Y-100297871D01*
X36481607Y-100292773D01*
X36494106Y-100198469D01*
X36511198Y-100069511D01*
X36511198Y-100069506D01*
X36511898Y-100064226D01*
X36503249Y-99833842D01*
X36455907Y-99608209D01*
X36453948Y-99603248D01*
X36373185Y-99398744D01*
X36373184Y-99398742D01*
X36371224Y-99393779D01*
X36251623Y-99196683D01*
X36199809Y-99136972D01*
X36104023Y-99026588D01*
X36104021Y-99026586D01*
X36100523Y-99022555D01*
X36058970Y-98988484D01*
X35926373Y-98879760D01*
X35926367Y-98879756D01*
X35922245Y-98876376D01*
X35917609Y-98873737D01*
X35917606Y-98873735D01*
X35726529Y-98764968D01*
X35721886Y-98762325D01*
X35505175Y-98683663D01*
X35499926Y-98682714D01*
X35499923Y-98682713D01*
X35282392Y-98643377D01*
X35282385Y-98643376D01*
X35278308Y-98642639D01*
X35260586Y-98641803D01*
X35255644Y-98641570D01*
X35255637Y-98641570D01*
X35254156Y-98641500D01*
X34792110Y-98641500D01*
X34725191Y-98647178D01*
X34625591Y-98655629D01*
X34625587Y-98655630D01*
X34620280Y-98656080D01*
X34615125Y-98657418D01*
X34615119Y-98657419D01*
X34402297Y-98712657D01*
X34402293Y-98712658D01*
X34397128Y-98713999D01*
X34392262Y-98716191D01*
X34392259Y-98716192D01*
X34283980Y-98764968D01*
X34186925Y-98808688D01*
X33995681Y-98937441D01*
X33828865Y-99096576D01*
X33691246Y-99281542D01*
X33688830Y-99286293D01*
X33688828Y-99286297D01*
X33651006Y-99360688D01*
X33586760Y-99487051D01*
X33585178Y-99492145D01*
X33585177Y-99492148D01*
X33537480Y-99645756D01*
X33518393Y-99707227D01*
X33517692Y-99712516D01*
X33502304Y-99828623D01*
X33488102Y-99935774D01*
X25508500Y-99935774D01*
X25508500Y-84397095D01*
X33492001Y-84397095D01*
X33492338Y-84403614D01*
X33502257Y-84499206D01*
X33505149Y-84512600D01*
X33556588Y-84666784D01*
X33562761Y-84679962D01*
X33648063Y-84817807D01*
X33657099Y-84829208D01*
X33771829Y-84943739D01*
X33783240Y-84952751D01*
X33921243Y-85037816D01*
X33934424Y-85043963D01*
X34088710Y-85095138D01*
X34102086Y-85098005D01*
X34196438Y-85107672D01*
X34202854Y-85108000D01*
X34727885Y-85108000D01*
X34743124Y-85103525D01*
X34744329Y-85102135D01*
X34746000Y-85094452D01*
X34746000Y-85089884D01*
X35254000Y-85089884D01*
X35258475Y-85105123D01*
X35259865Y-85106328D01*
X35267548Y-85107999D01*
X35797095Y-85107999D01*
X35803614Y-85107662D01*
X35899206Y-85097743D01*
X35912600Y-85094851D01*
X36066784Y-85043412D01*
X36079962Y-85037239D01*
X36217807Y-84951937D01*
X36229208Y-84942901D01*
X36343739Y-84828171D01*
X36352751Y-84816760D01*
X36437816Y-84678757D01*
X36443963Y-84665576D01*
X36495138Y-84511290D01*
X36498005Y-84497914D01*
X36507672Y-84403562D01*
X36508000Y-84397146D01*
X36508000Y-84304890D01*
X42686463Y-84304890D01*
X42704163Y-84485410D01*
X42761418Y-84657523D01*
X42765065Y-84663545D01*
X42765066Y-84663547D01*
X42844761Y-84795139D01*
X42855380Y-84812674D01*
X42860269Y-84817737D01*
X42860270Y-84817738D01*
X42900936Y-84859848D01*
X42981382Y-84943152D01*
X42994807Y-84951937D01*
X43124791Y-85036996D01*
X43133159Y-85042472D01*
X43139763Y-85044928D01*
X43139765Y-85044929D01*
X43296558Y-85103240D01*
X43296560Y-85103240D01*
X43303168Y-85105698D01*
X43386995Y-85116883D01*
X43475980Y-85128757D01*
X43475984Y-85128757D01*
X43482961Y-85129688D01*
X43489972Y-85129050D01*
X43489976Y-85129050D01*
X43632459Y-85116082D01*
X43663600Y-85113248D01*
X43670302Y-85111070D01*
X43670304Y-85111070D01*
X43829409Y-85059374D01*
X43829412Y-85059373D01*
X43836108Y-85057197D01*
X43944603Y-84992521D01*
X44009120Y-84974750D01*
X45789800Y-84974750D01*
X45857921Y-84994752D01*
X45904414Y-85048408D01*
X45914518Y-85118682D01*
X45885024Y-85183262D01*
X45878895Y-85189845D01*
X43129895Y-87938845D01*
X43121115Y-87946835D01*
X43121113Y-87946837D01*
X43114420Y-87951084D01*
X43108994Y-87956862D01*
X43108993Y-87956863D01*
X43065896Y-88002757D01*
X43063141Y-88005599D01*
X43042573Y-88026167D01*
X43039856Y-88029670D01*
X43032148Y-88038695D01*
X43000528Y-88072367D01*
X42996707Y-88079318D01*
X42996706Y-88079319D01*
X42990197Y-88091158D01*
X42979343Y-88107682D01*
X42971518Y-88117771D01*
X42966196Y-88124632D01*
X42963049Y-88131904D01*
X42963048Y-88131906D01*
X42947846Y-88167035D01*
X42942624Y-88177695D01*
X42939846Y-88182749D01*
X42920376Y-88218163D01*
X42915041Y-88238941D01*
X42908642Y-88257631D01*
X42900120Y-88277324D01*
X42897510Y-88293803D01*
X42892894Y-88322948D01*
X42890487Y-88334571D01*
X42879000Y-88379312D01*
X42879000Y-88400759D01*
X42877449Y-88420469D01*
X42874094Y-88441652D01*
X42874840Y-88449543D01*
X42878441Y-88487638D01*
X42879000Y-88499496D01*
X42879000Y-93029625D01*
X42858911Y-93097880D01*
X42808735Y-93175738D01*
X42806326Y-93182358D01*
X42806324Y-93182361D01*
X42780853Y-93252342D01*
X42746697Y-93346185D01*
X42723963Y-93526140D01*
X42741663Y-93706660D01*
X42798918Y-93878773D01*
X42802565Y-93884795D01*
X42802566Y-93884797D01*
X42864131Y-93986453D01*
X42892880Y-94033924D01*
X43018882Y-94164402D01*
X43170659Y-94263722D01*
X43177263Y-94266178D01*
X43177265Y-94266179D01*
X43334058Y-94324490D01*
X43334060Y-94324490D01*
X43340668Y-94326948D01*
X43424495Y-94338133D01*
X43513480Y-94350007D01*
X43513484Y-94350007D01*
X43520461Y-94350938D01*
X43527472Y-94350300D01*
X43527476Y-94350300D01*
X43669959Y-94337332D01*
X43701100Y-94334498D01*
X43707802Y-94332320D01*
X43707804Y-94332320D01*
X43866909Y-94280624D01*
X43866912Y-94280623D01*
X43873608Y-94278447D01*
X44029412Y-94185569D01*
X44160766Y-94060482D01*
X44261143Y-93909402D01*
X44325555Y-93739838D01*
X44326535Y-93732866D01*
X44350248Y-93564139D01*
X44350248Y-93564136D01*
X44350799Y-93560217D01*
X44351116Y-93537500D01*
X44330897Y-93357245D01*
X44328580Y-93350591D01*
X44273564Y-93192606D01*
X44273562Y-93192603D01*
X44271245Y-93185948D01*
X44261162Y-93169812D01*
X44215146Y-93096170D01*
X44196000Y-93029401D01*
X44196000Y-88787450D01*
X44216002Y-88719329D01*
X44232905Y-88698355D01*
X59442620Y-73488640D01*
X86686463Y-73488640D01*
X86704163Y-73669160D01*
X86761418Y-73841273D01*
X86765065Y-73847295D01*
X86765066Y-73847297D01*
X86842322Y-73974862D01*
X86855380Y-73996424D01*
X86860269Y-74001487D01*
X86860270Y-74001488D01*
X86918456Y-74061741D01*
X86981382Y-74126902D01*
X87133159Y-74226222D01*
X87139763Y-74228678D01*
X87139765Y-74228679D01*
X87296558Y-74286990D01*
X87296560Y-74286990D01*
X87303168Y-74289448D01*
X87386995Y-74300633D01*
X87475980Y-74312507D01*
X87475984Y-74312507D01*
X87482961Y-74313438D01*
X87489972Y-74312800D01*
X87489976Y-74312800D01*
X87632459Y-74299832D01*
X87663600Y-74296998D01*
X87670302Y-74294820D01*
X87670304Y-74294820D01*
X87829409Y-74243124D01*
X87829412Y-74243123D01*
X87836108Y-74240947D01*
X87991912Y-74148069D01*
X88123266Y-74022982D01*
X88223643Y-73871902D01*
X88288055Y-73702338D01*
X88289035Y-73695366D01*
X88289037Y-73695358D01*
X88291859Y-73675280D01*
X88321148Y-73610606D01*
X88327537Y-73603723D01*
X92883450Y-69047810D01*
X94087748Y-69047810D01*
X94088780Y-69054325D01*
X94089949Y-69061705D01*
X94091500Y-69081417D01*
X94091500Y-87547610D01*
X94106458Y-87689928D01*
X94165473Y-87871556D01*
X94260960Y-88036944D01*
X94265378Y-88041851D01*
X94265379Y-88041852D01*
X94346464Y-88131906D01*
X94388747Y-88178866D01*
X94484641Y-88248537D01*
X94535041Y-88285155D01*
X94543248Y-88291118D01*
X94549276Y-88293802D01*
X94549278Y-88293803D01*
X94711681Y-88366109D01*
X94717712Y-88368794D01*
X94804498Y-88387241D01*
X94898056Y-88407128D01*
X94898061Y-88407128D01*
X94904513Y-88408500D01*
X95095487Y-88408500D01*
X95101939Y-88407128D01*
X95101944Y-88407128D01*
X95195502Y-88387241D01*
X95282288Y-88368794D01*
X95288319Y-88366109D01*
X95450722Y-88293803D01*
X95450724Y-88293802D01*
X95456752Y-88291118D01*
X95464960Y-88285155D01*
X95515359Y-88248537D01*
X95611253Y-88178866D01*
X95653536Y-88131906D01*
X95734621Y-88041852D01*
X95734622Y-88041851D01*
X95739040Y-88036944D01*
X95834527Y-87871556D01*
X95893542Y-87689928D01*
X95908500Y-87547610D01*
X95908500Y-83054183D01*
X113464389Y-83054183D01*
X113465912Y-83062607D01*
X113478292Y-83066000D01*
X114527885Y-83066000D01*
X114543124Y-83061525D01*
X114544329Y-83060135D01*
X114546000Y-83052452D01*
X114546000Y-83047885D01*
X115054000Y-83047885D01*
X115058475Y-83063124D01*
X115059865Y-83064329D01*
X115067548Y-83066000D01*
X116118344Y-83066000D01*
X116131875Y-83062027D01*
X116133180Y-83052947D01*
X116091214Y-82885875D01*
X116087894Y-82876124D01*
X116002972Y-82680814D01*
X115998105Y-82671739D01*
X115882426Y-82492926D01*
X115876136Y-82484757D01*
X115732806Y-82327240D01*
X115725273Y-82320215D01*
X115558139Y-82188222D01*
X115549552Y-82182517D01*
X115363117Y-82079599D01*
X115353705Y-82075369D01*
X115152959Y-82004280D01*
X115142988Y-82001646D01*
X115071837Y-81988972D01*
X115058540Y-81990432D01*
X115054000Y-82004989D01*
X115054000Y-83047885D01*
X114546000Y-83047885D01*
X114546000Y-82003102D01*
X114542082Y-81989758D01*
X114527806Y-81987771D01*
X114489324Y-81993660D01*
X114479288Y-81996051D01*
X114276868Y-82062212D01*
X114267359Y-82066209D01*
X114078463Y-82164542D01*
X114069738Y-82170036D01*
X113899433Y-82297905D01*
X113891726Y-82304748D01*
X113744590Y-82458717D01*
X113738104Y-82466727D01*
X113618098Y-82642649D01*
X113613000Y-82651623D01*
X113523338Y-82844783D01*
X113519775Y-82854470D01*
X113464389Y-83054183D01*
X95908500Y-83054183D01*
X95908500Y-78812241D01*
X95928502Y-78744120D01*
X95982158Y-78697627D01*
X96052432Y-78687523D01*
X96103493Y-78706809D01*
X96133159Y-78726222D01*
X96139763Y-78728678D01*
X96139765Y-78728679D01*
X96296558Y-78786990D01*
X96296560Y-78786990D01*
X96303168Y-78789448D01*
X96386995Y-78800633D01*
X96475980Y-78812507D01*
X96475984Y-78812507D01*
X96482961Y-78813438D01*
X96489972Y-78812800D01*
X96489976Y-78812800D01*
X96555153Y-78806868D01*
X96624806Y-78820613D01*
X96675971Y-78869834D01*
X96692402Y-78938903D01*
X96691581Y-78948125D01*
X96686463Y-78988640D01*
X96704163Y-79169160D01*
X96761418Y-79341273D01*
X96765065Y-79347295D01*
X96765066Y-79347297D01*
X96850582Y-79488501D01*
X96855380Y-79496424D01*
X96860269Y-79501487D01*
X96860270Y-79501488D01*
X96877029Y-79518842D01*
X96981382Y-79626902D01*
X97133159Y-79726222D01*
X97139763Y-79728678D01*
X97139765Y-79728679D01*
X97296558Y-79786990D01*
X97296560Y-79786990D01*
X97303168Y-79789448D01*
X97386995Y-79800633D01*
X97475980Y-79812507D01*
X97475984Y-79812507D01*
X97482961Y-79813438D01*
X97489972Y-79812800D01*
X97489976Y-79812800D01*
X97632459Y-79799832D01*
X97663600Y-79796998D01*
X97670302Y-79794820D01*
X97670304Y-79794820D01*
X97829409Y-79743124D01*
X97829412Y-79743123D01*
X97836108Y-79740947D01*
X97944603Y-79676271D01*
X98009120Y-79658500D01*
X102417944Y-79658500D01*
X102429800Y-79659059D01*
X102429803Y-79659059D01*
X102437537Y-79660788D01*
X102508369Y-79658562D01*
X102512327Y-79658500D01*
X102541432Y-79658500D01*
X102545832Y-79657944D01*
X102557664Y-79657012D01*
X102603831Y-79655562D01*
X102624421Y-79649580D01*
X102643782Y-79645570D01*
X102650770Y-79644688D01*
X102657204Y-79643875D01*
X102657205Y-79643875D01*
X102665064Y-79642882D01*
X102672429Y-79639966D01*
X102672433Y-79639965D01*
X102708021Y-79625874D01*
X102719231Y-79622035D01*
X102763600Y-79609145D01*
X102782065Y-79598225D01*
X102799805Y-79589534D01*
X102819756Y-79581635D01*
X102857129Y-79554482D01*
X102867048Y-79547967D01*
X102899977Y-79528493D01*
X102899981Y-79528490D01*
X102906807Y-79524453D01*
X102921971Y-79509289D01*
X102937005Y-79496448D01*
X102941580Y-79493124D01*
X102954357Y-79483841D01*
X102983803Y-79448247D01*
X102991792Y-79439468D01*
X107907605Y-74523655D01*
X107916385Y-74515665D01*
X107916387Y-74515663D01*
X107923080Y-74511416D01*
X107971605Y-74459742D01*
X107974359Y-74456901D01*
X107994927Y-74436333D01*
X107997647Y-74432826D01*
X108005353Y-74423804D01*
X108031544Y-74395913D01*
X108036972Y-74390133D01*
X108040794Y-74383181D01*
X108047303Y-74371342D01*
X108058157Y-74354818D01*
X108066445Y-74344132D01*
X108071304Y-74337868D01*
X108082152Y-74312800D01*
X108089654Y-74295465D01*
X108094876Y-74284805D01*
X108113305Y-74251284D01*
X108113306Y-74251282D01*
X108117124Y-74244337D01*
X108122459Y-74223559D01*
X108128858Y-74204869D01*
X108137380Y-74185176D01*
X108144606Y-74139552D01*
X108147013Y-74127929D01*
X108156528Y-74090868D01*
X108158500Y-74083188D01*
X108158500Y-74061741D01*
X108160051Y-74042031D01*
X108162166Y-74028677D01*
X108163406Y-74020848D01*
X108159059Y-73974859D01*
X108158500Y-73963004D01*
X108158500Y-71697095D01*
X113517001Y-71697095D01*
X113517338Y-71703614D01*
X113527257Y-71799206D01*
X113530149Y-71812600D01*
X113581588Y-71966784D01*
X113587761Y-71979962D01*
X113673063Y-72117807D01*
X113682099Y-72129208D01*
X113796829Y-72243739D01*
X113808240Y-72252751D01*
X113946243Y-72337816D01*
X113959424Y-72343963D01*
X114113710Y-72395138D01*
X114127086Y-72398005D01*
X114221438Y-72407672D01*
X114227854Y-72408000D01*
X114727885Y-72408000D01*
X114743124Y-72403525D01*
X114744329Y-72402135D01*
X114746000Y-72394452D01*
X114746000Y-72389884D01*
X115254000Y-72389884D01*
X115258475Y-72405123D01*
X115259865Y-72406328D01*
X115267548Y-72407999D01*
X115772095Y-72407999D01*
X115778614Y-72407662D01*
X115874206Y-72397743D01*
X115887600Y-72394851D01*
X116041784Y-72343412D01*
X116054962Y-72337239D01*
X116192807Y-72251937D01*
X116204208Y-72242901D01*
X116318739Y-72128171D01*
X116327751Y-72116760D01*
X116412816Y-71978757D01*
X116418963Y-71965576D01*
X116470138Y-71811290D01*
X116473005Y-71797914D01*
X116482672Y-71703562D01*
X116483000Y-71697146D01*
X116483000Y-71322115D01*
X116478525Y-71306876D01*
X116477135Y-71305671D01*
X116469452Y-71304000D01*
X115272115Y-71304000D01*
X115256876Y-71308475D01*
X115255671Y-71309865D01*
X115254000Y-71317548D01*
X115254000Y-72389884D01*
X114746000Y-72389884D01*
X114746000Y-71322115D01*
X114741525Y-71306876D01*
X114740135Y-71305671D01*
X114732452Y-71304000D01*
X113535116Y-71304000D01*
X113519877Y-71308475D01*
X113518672Y-71309865D01*
X113517001Y-71317548D01*
X113517001Y-71697095D01*
X108158500Y-71697095D01*
X108158500Y-67324950D01*
X108178502Y-67256829D01*
X108195405Y-67235855D01*
X108685855Y-66745405D01*
X108748167Y-66711379D01*
X108774950Y-66708500D01*
X113614575Y-66708500D01*
X113682696Y-66728502D01*
X113722293Y-66769133D01*
X113773377Y-66853317D01*
X113776874Y-66857347D01*
X113882571Y-66979152D01*
X113924477Y-67027445D01*
X113966030Y-67061516D01*
X114098627Y-67170240D01*
X114098633Y-67170244D01*
X114102755Y-67173624D01*
X114134250Y-67191552D01*
X114183555Y-67242632D01*
X114197417Y-67312262D01*
X114171434Y-67378333D01*
X114142284Y-67405573D01*
X114020681Y-67487441D01*
X113853865Y-67646576D01*
X113716246Y-67831542D01*
X113611760Y-68037051D01*
X113610178Y-68042145D01*
X113610177Y-68042148D01*
X113571572Y-68166477D01*
X113543393Y-68257227D01*
X113542692Y-68262516D01*
X113514499Y-68475237D01*
X113513102Y-68485774D01*
X113513302Y-68491103D01*
X113513302Y-68491105D01*
X113516017Y-68563421D01*
X113521751Y-68716158D01*
X113569093Y-68941791D01*
X113571051Y-68946750D01*
X113571052Y-68946752D01*
X113616450Y-69061705D01*
X113653776Y-69156221D01*
X113656543Y-69160780D01*
X113656544Y-69160783D01*
X113718998Y-69263703D01*
X113773377Y-69353317D01*
X113776874Y-69357347D01*
X113904100Y-69503962D01*
X113924477Y-69527445D01*
X113928608Y-69530832D01*
X113960529Y-69557006D01*
X114000524Y-69615666D01*
X114002455Y-69686636D01*
X113965710Y-69747384D01*
X113946941Y-69761584D01*
X113807193Y-69848063D01*
X113795792Y-69857099D01*
X113681261Y-69971829D01*
X113672249Y-69983240D01*
X113587184Y-70121243D01*
X113581037Y-70134424D01*
X113529862Y-70288710D01*
X113526995Y-70302086D01*
X113517328Y-70396438D01*
X113517000Y-70402855D01*
X113517000Y-70777885D01*
X113521475Y-70793124D01*
X113522865Y-70794329D01*
X113530548Y-70796000D01*
X116464884Y-70796000D01*
X116480123Y-70791525D01*
X116481328Y-70790135D01*
X116482999Y-70782452D01*
X116482999Y-70402905D01*
X116482662Y-70396386D01*
X116472743Y-70300794D01*
X116469851Y-70287400D01*
X116418412Y-70133216D01*
X116412239Y-70120038D01*
X116326937Y-69982193D01*
X116317901Y-69970792D01*
X116203171Y-69856261D01*
X116191757Y-69847247D01*
X116052287Y-69761277D01*
X116004793Y-69708505D01*
X115993369Y-69638434D01*
X116021643Y-69573310D01*
X116031430Y-69562847D01*
X116064991Y-69530832D01*
X116146135Y-69453424D01*
X116283754Y-69268458D01*
X116318054Y-69200996D01*
X116385822Y-69067704D01*
X116388240Y-69062949D01*
X116406684Y-69003552D01*
X116455024Y-68847871D01*
X116456607Y-68842773D01*
X116466734Y-68766362D01*
X116486198Y-68619511D01*
X116486198Y-68619506D01*
X116486898Y-68614226D01*
X116478249Y-68383842D01*
X116430907Y-68158209D01*
X116413397Y-68113871D01*
X116348185Y-67948744D01*
X116348184Y-67948742D01*
X116346224Y-67943779D01*
X116226623Y-67746683D01*
X116139755Y-67646576D01*
X116079023Y-67576588D01*
X116079021Y-67576586D01*
X116075523Y-67572555D01*
X116033970Y-67538484D01*
X115901373Y-67429760D01*
X115901367Y-67429756D01*
X115897245Y-67426376D01*
X115865750Y-67408448D01*
X115816445Y-67357368D01*
X115802583Y-67287738D01*
X115828566Y-67221667D01*
X115857716Y-67194427D01*
X115893642Y-67170240D01*
X115979319Y-67112559D01*
X116146135Y-66953424D01*
X116283754Y-66768458D01*
X116290260Y-66755663D01*
X116350413Y-66637349D01*
X116388240Y-66562949D01*
X116420838Y-66457969D01*
X116455024Y-66347871D01*
X116456607Y-66342773D01*
X116467135Y-66263340D01*
X116486198Y-66119511D01*
X116486198Y-66119506D01*
X116486898Y-66114226D01*
X116485132Y-66067170D01*
X116478449Y-65889173D01*
X116478249Y-65883842D01*
X116430907Y-65658209D01*
X116410417Y-65606326D01*
X116348185Y-65448744D01*
X116348184Y-65448742D01*
X116346224Y-65443779D01*
X116314837Y-65392054D01*
X116253955Y-65291724D01*
X116226623Y-65246683D01*
X116139755Y-65146576D01*
X116079023Y-65076588D01*
X116079021Y-65076586D01*
X116075523Y-65072555D01*
X116033970Y-65038484D01*
X115901373Y-64929760D01*
X115901367Y-64929756D01*
X115897245Y-64926376D01*
X115865750Y-64908448D01*
X115816445Y-64857368D01*
X115802583Y-64787738D01*
X115828566Y-64721667D01*
X115857716Y-64694427D01*
X115893642Y-64670240D01*
X115979319Y-64612559D01*
X116146135Y-64453424D01*
X116283754Y-64268458D01*
X116312775Y-64211379D01*
X116385822Y-64067704D01*
X116388240Y-64062949D01*
X116456607Y-63842773D01*
X116486898Y-63614226D01*
X116478249Y-63383842D01*
X116430907Y-63158209D01*
X116428948Y-63153248D01*
X116348185Y-62948744D01*
X116348184Y-62948742D01*
X116346224Y-62943779D01*
X116343110Y-62938646D01*
X116229390Y-62751243D01*
X116226623Y-62746683D01*
X116139755Y-62646576D01*
X116079023Y-62576588D01*
X116079021Y-62576586D01*
X116075523Y-62572555D01*
X116033970Y-62538484D01*
X115901373Y-62429760D01*
X115901367Y-62429756D01*
X115897245Y-62426376D01*
X115892609Y-62423737D01*
X115892606Y-62423735D01*
X115701529Y-62314968D01*
X115696886Y-62312325D01*
X115480175Y-62233663D01*
X115474926Y-62232714D01*
X115474923Y-62232713D01*
X115257392Y-62193377D01*
X115257385Y-62193376D01*
X115253308Y-62192639D01*
X115235586Y-62191803D01*
X115230644Y-62191570D01*
X115230637Y-62191570D01*
X115229156Y-62191500D01*
X114817110Y-62191500D01*
X114750191Y-62197178D01*
X114650591Y-62205629D01*
X114650587Y-62205630D01*
X114645280Y-62206080D01*
X114640125Y-62207418D01*
X114640119Y-62207419D01*
X114427297Y-62262657D01*
X114427293Y-62262658D01*
X114422128Y-62263999D01*
X114417262Y-62266191D01*
X114417259Y-62266192D01*
X114308980Y-62314968D01*
X114211925Y-62358688D01*
X114020681Y-62487441D01*
X113853865Y-62646576D01*
X113716246Y-62831542D01*
X113715656Y-62832702D01*
X113663664Y-62879250D01*
X113609471Y-62891500D01*
X109032056Y-62891500D01*
X109020200Y-62890941D01*
X109020197Y-62890941D01*
X109012463Y-62889212D01*
X108957446Y-62890941D01*
X108941631Y-62891438D01*
X108937673Y-62891500D01*
X108908568Y-62891500D01*
X108904168Y-62892056D01*
X108892336Y-62892988D01*
X108846169Y-62894438D01*
X108825579Y-62900420D01*
X108806218Y-62904430D01*
X108799230Y-62905312D01*
X108792796Y-62906125D01*
X108792795Y-62906125D01*
X108784936Y-62907118D01*
X108777571Y-62910034D01*
X108777567Y-62910035D01*
X108741979Y-62924126D01*
X108730769Y-62927965D01*
X108686400Y-62940855D01*
X108667935Y-62951775D01*
X108650195Y-62960466D01*
X108630244Y-62968365D01*
X108592874Y-62995516D01*
X108582952Y-63002033D01*
X108550023Y-63021507D01*
X108550019Y-63021510D01*
X108543193Y-63025547D01*
X108528029Y-63040711D01*
X108512996Y-63053551D01*
X108495643Y-63066159D01*
X108466198Y-63101752D01*
X108458208Y-63110532D01*
X105592395Y-65976345D01*
X105583615Y-65984335D01*
X105583613Y-65984337D01*
X105576920Y-65988584D01*
X105571494Y-65994362D01*
X105571493Y-65994363D01*
X105528396Y-66040257D01*
X105525641Y-66043099D01*
X105505073Y-66063667D01*
X105502356Y-66067170D01*
X105494648Y-66076195D01*
X105463028Y-66109867D01*
X105459207Y-66116818D01*
X105459206Y-66116819D01*
X105452697Y-66128658D01*
X105441843Y-66145182D01*
X105434018Y-66155271D01*
X105428696Y-66162132D01*
X105425549Y-66169404D01*
X105425548Y-66169406D01*
X105410346Y-66204535D01*
X105405124Y-66215195D01*
X105382876Y-66255663D01*
X105377541Y-66276441D01*
X105371142Y-66295131D01*
X105362620Y-66314824D01*
X105357386Y-66347871D01*
X105355394Y-66360448D01*
X105352987Y-66372071D01*
X105341500Y-66416812D01*
X105341500Y-66438259D01*
X105339949Y-66457969D01*
X105336594Y-66479152D01*
X105337340Y-66487043D01*
X105340941Y-66525138D01*
X105341500Y-66536996D01*
X105341500Y-73175050D01*
X105321498Y-73243171D01*
X105304595Y-73264145D01*
X101264145Y-77304595D01*
X101201833Y-77338621D01*
X101175050Y-77341500D01*
X97007944Y-77341500D01*
X96940430Y-77321885D01*
X96913185Y-77304595D01*
X96856666Y-77268727D01*
X96827463Y-77258328D01*
X96692425Y-77210243D01*
X96692420Y-77210242D01*
X96685790Y-77207881D01*
X96678802Y-77207048D01*
X96678799Y-77207047D01*
X96528641Y-77189142D01*
X96505680Y-77186404D01*
X96498677Y-77187140D01*
X96498676Y-77187140D01*
X96332288Y-77204628D01*
X96332286Y-77204629D01*
X96325288Y-77205364D01*
X96153579Y-77263818D01*
X96147575Y-77267512D01*
X96100522Y-77296459D01*
X96032021Y-77315118D01*
X95964307Y-77293779D01*
X95918879Y-77239220D01*
X95908500Y-77189142D01*
X95908500Y-69363875D01*
X95922233Y-69306672D01*
X95944127Y-69263703D01*
X95972830Y-69207370D01*
X95986834Y-69155106D01*
X96020549Y-69029279D01*
X96020550Y-69029275D01*
X96022257Y-69022903D01*
X96022603Y-69016308D01*
X96031907Y-68838782D01*
X96031907Y-68838777D01*
X96032252Y-68832190D01*
X96002378Y-68643567D01*
X95989069Y-68608895D01*
X95936304Y-68471440D01*
X95936303Y-68471438D01*
X95933938Y-68465277D01*
X95829926Y-68305113D01*
X95694887Y-68170074D01*
X95534723Y-68066062D01*
X95528562Y-68063697D01*
X95528560Y-68063696D01*
X95362600Y-67999989D01*
X95362597Y-67999988D01*
X95356433Y-67997622D01*
X95228733Y-67977397D01*
X95174327Y-67968780D01*
X95174326Y-67968780D01*
X95167810Y-67967748D01*
X95161223Y-67968093D01*
X95161218Y-67968093D01*
X94983692Y-67977397D01*
X94983689Y-67977398D01*
X94977097Y-67977743D01*
X94970725Y-67979450D01*
X94970721Y-67979451D01*
X94799004Y-68025462D01*
X94792630Y-68027170D01*
X94622470Y-68113871D01*
X94617341Y-68118024D01*
X94617337Y-68118027D01*
X94567717Y-68158209D01*
X94511259Y-68203928D01*
X94415168Y-68300019D01*
X94400135Y-68312860D01*
X94388747Y-68321134D01*
X94384327Y-68326043D01*
X94342984Y-68371959D01*
X94338443Y-68376744D01*
X94323928Y-68391259D01*
X94321852Y-68393823D01*
X94311006Y-68407216D01*
X94306722Y-68412231D01*
X94265381Y-68458145D01*
X94265377Y-68458150D01*
X94260960Y-68463056D01*
X94257660Y-68468772D01*
X94257657Y-68468776D01*
X94253927Y-68475237D01*
X94242727Y-68491533D01*
X94233871Y-68502470D01*
X94202815Y-68563421D01*
X94199667Y-68569218D01*
X94176760Y-68608895D01*
X94165473Y-68628444D01*
X94163432Y-68634726D01*
X94163431Y-68634728D01*
X94161125Y-68641826D01*
X94153560Y-68660092D01*
X94147171Y-68672630D01*
X94137726Y-68707881D01*
X94129469Y-68738695D01*
X94127600Y-68745003D01*
X94106458Y-68810072D01*
X94105768Y-68816637D01*
X94105766Y-68816646D01*
X94104985Y-68824075D01*
X94101383Y-68843509D01*
X94100542Y-68846650D01*
X94097743Y-68857097D01*
X94097398Y-68863688D01*
X94097397Y-68863692D01*
X94094164Y-68925384D01*
X94093647Y-68931958D01*
X94091855Y-68949009D01*
X94091500Y-68952390D01*
X94091500Y-68972926D01*
X94091327Y-68979520D01*
X94089087Y-69022268D01*
X94087748Y-69047810D01*
X92883450Y-69047810D01*
X106284165Y-55647095D01*
X113017001Y-55647095D01*
X113017338Y-55653614D01*
X113027257Y-55749206D01*
X113030149Y-55762600D01*
X113081588Y-55916784D01*
X113087761Y-55929962D01*
X113173063Y-56067807D01*
X113182099Y-56079208D01*
X113296829Y-56193739D01*
X113308240Y-56202751D01*
X113446243Y-56287816D01*
X113459424Y-56293963D01*
X113613710Y-56345138D01*
X113627086Y-56348005D01*
X113721438Y-56357672D01*
X113727854Y-56358000D01*
X114227885Y-56358000D01*
X114243124Y-56353525D01*
X114244329Y-56352135D01*
X114246000Y-56344452D01*
X114246000Y-56339884D01*
X114754000Y-56339884D01*
X114758475Y-56355123D01*
X114759865Y-56356328D01*
X114767548Y-56357999D01*
X115272095Y-56357999D01*
X115278614Y-56357662D01*
X115374206Y-56347743D01*
X115387600Y-56344851D01*
X115541784Y-56293412D01*
X115554962Y-56287239D01*
X115692807Y-56201937D01*
X115704208Y-56192901D01*
X115818739Y-56078171D01*
X115827751Y-56066760D01*
X115912816Y-55928757D01*
X115918963Y-55915576D01*
X115970138Y-55761290D01*
X115973005Y-55747914D01*
X115982672Y-55653562D01*
X115983000Y-55647146D01*
X115983000Y-55272115D01*
X115978525Y-55256876D01*
X115977135Y-55255671D01*
X115969452Y-55254000D01*
X114772115Y-55254000D01*
X114756876Y-55258475D01*
X114755671Y-55259865D01*
X114754000Y-55267548D01*
X114754000Y-56339884D01*
X114246000Y-56339884D01*
X114246000Y-55272115D01*
X114241525Y-55256876D01*
X114240135Y-55255671D01*
X114232452Y-55254000D01*
X113035116Y-55254000D01*
X113019877Y-55258475D01*
X113018672Y-55259865D01*
X113017001Y-55267548D01*
X113017001Y-55647095D01*
X106284165Y-55647095D01*
X111235855Y-50695405D01*
X111298167Y-50661379D01*
X111324950Y-50658500D01*
X113114575Y-50658500D01*
X113182696Y-50678502D01*
X113222293Y-50719133D01*
X113273377Y-50803317D01*
X113276874Y-50807347D01*
X113363438Y-50907103D01*
X113424477Y-50977445D01*
X113428608Y-50980832D01*
X113598627Y-51120240D01*
X113598633Y-51120244D01*
X113602755Y-51123624D01*
X113634250Y-51141552D01*
X113683555Y-51192632D01*
X113697417Y-51262262D01*
X113671434Y-51328333D01*
X113642284Y-51355573D01*
X113520681Y-51437441D01*
X113353865Y-51596576D01*
X113216246Y-51781542D01*
X113111760Y-51987051D01*
X113110178Y-51992145D01*
X113110177Y-51992148D01*
X113048115Y-52192020D01*
X113043393Y-52207227D01*
X113042692Y-52212516D01*
X113027304Y-52328623D01*
X113013102Y-52435774D01*
X113021751Y-52666158D01*
X113069093Y-52891791D01*
X113153776Y-53106221D01*
X113273377Y-53303317D01*
X113276874Y-53307347D01*
X113363438Y-53407103D01*
X113424477Y-53477445D01*
X113428608Y-53480832D01*
X113460529Y-53507006D01*
X113500524Y-53565666D01*
X113502455Y-53636636D01*
X113465710Y-53697384D01*
X113446941Y-53711584D01*
X113307193Y-53798063D01*
X113295792Y-53807099D01*
X113181261Y-53921829D01*
X113172249Y-53933240D01*
X113087184Y-54071243D01*
X113081037Y-54084424D01*
X113029862Y-54238710D01*
X113026995Y-54252086D01*
X113017328Y-54346438D01*
X113017000Y-54352855D01*
X113017000Y-54727885D01*
X113021475Y-54743124D01*
X113022865Y-54744329D01*
X113030548Y-54746000D01*
X115964884Y-54746000D01*
X115980123Y-54741525D01*
X115981328Y-54740135D01*
X115982999Y-54732452D01*
X115982999Y-54352905D01*
X115982662Y-54346386D01*
X115972743Y-54250794D01*
X115969851Y-54237400D01*
X115918412Y-54083216D01*
X115912239Y-54070038D01*
X115826937Y-53932193D01*
X115817901Y-53920792D01*
X115703171Y-53806261D01*
X115691757Y-53797247D01*
X115552287Y-53711277D01*
X115504793Y-53658505D01*
X115493369Y-53588434D01*
X115521643Y-53523310D01*
X115531430Y-53512847D01*
X115564991Y-53480832D01*
X115646135Y-53403424D01*
X115783754Y-53218458D01*
X115888240Y-53012949D01*
X115924321Y-52896752D01*
X115955024Y-52797871D01*
X115956607Y-52792773D01*
X115957308Y-52787484D01*
X115986198Y-52569511D01*
X115986198Y-52569506D01*
X115986898Y-52564226D01*
X115978249Y-52333842D01*
X115930907Y-52108209D01*
X115846224Y-51893779D01*
X115726623Y-51696683D01*
X115639755Y-51596576D01*
X115579023Y-51526588D01*
X115579021Y-51526586D01*
X115575523Y-51522555D01*
X115533970Y-51488484D01*
X115401373Y-51379760D01*
X115401367Y-51379756D01*
X115397245Y-51376376D01*
X115365750Y-51358448D01*
X115316445Y-51307368D01*
X115302583Y-51237738D01*
X115328566Y-51171667D01*
X115357716Y-51144427D01*
X115393642Y-51120240D01*
X115479319Y-51062559D01*
X115646135Y-50903424D01*
X115783754Y-50718458D01*
X115812775Y-50661379D01*
X115885822Y-50517704D01*
X115888240Y-50512949D01*
X115956607Y-50292773D01*
X115986898Y-50064226D01*
X115978249Y-49833842D01*
X115930907Y-49608209D01*
X115846224Y-49393779D01*
X115726623Y-49196683D01*
X115639755Y-49096576D01*
X115579023Y-49026588D01*
X115579021Y-49026586D01*
X115575523Y-49022555D01*
X115533970Y-48988484D01*
X115401373Y-48879760D01*
X115401367Y-48879756D01*
X115397245Y-48876376D01*
X115365750Y-48858448D01*
X115316445Y-48807368D01*
X115302583Y-48737738D01*
X115328566Y-48671667D01*
X115357716Y-48644427D01*
X115393642Y-48620240D01*
X115479319Y-48562559D01*
X115646135Y-48403424D01*
X115783754Y-48218458D01*
X115812775Y-48161379D01*
X115885822Y-48017704D01*
X115888240Y-48012949D01*
X115956607Y-47792773D01*
X115986898Y-47564226D01*
X115978249Y-47333842D01*
X115930907Y-47108209D01*
X115846224Y-46893779D01*
X115726623Y-46696683D01*
X115639755Y-46596576D01*
X115579023Y-46526588D01*
X115579021Y-46526586D01*
X115575523Y-46522555D01*
X115533970Y-46488484D01*
X115401373Y-46379760D01*
X115401367Y-46379756D01*
X115397245Y-46376376D01*
X115365750Y-46358448D01*
X115316445Y-46307368D01*
X115302583Y-46237738D01*
X115328566Y-46171667D01*
X115357716Y-46144427D01*
X115393642Y-46120240D01*
X115479319Y-46062559D01*
X115646135Y-45903424D01*
X115783754Y-45718458D01*
X115888240Y-45512949D01*
X115956607Y-45292773D01*
X115986898Y-45064226D01*
X115978249Y-44833842D01*
X115930907Y-44608209D01*
X115928948Y-44603248D01*
X115848185Y-44398744D01*
X115848184Y-44398742D01*
X115846224Y-44393779D01*
X115843110Y-44388646D01*
X115729390Y-44201243D01*
X115726623Y-44196683D01*
X115639755Y-44096576D01*
X115579023Y-44026588D01*
X115579021Y-44026586D01*
X115575523Y-44022555D01*
X115533970Y-43988484D01*
X115401373Y-43879760D01*
X115401367Y-43879756D01*
X115397245Y-43876376D01*
X115392609Y-43873737D01*
X115392606Y-43873735D01*
X115201529Y-43764968D01*
X115196886Y-43762325D01*
X114980175Y-43683663D01*
X114974926Y-43682714D01*
X114974923Y-43682713D01*
X114757392Y-43643377D01*
X114757385Y-43643376D01*
X114753308Y-43642639D01*
X114735586Y-43641803D01*
X114730644Y-43641570D01*
X114730637Y-43641570D01*
X114729156Y-43641500D01*
X114317110Y-43641500D01*
X114250191Y-43647178D01*
X114150591Y-43655629D01*
X114150587Y-43655630D01*
X114145280Y-43656080D01*
X114140125Y-43657418D01*
X114140119Y-43657419D01*
X113927297Y-43712657D01*
X113927293Y-43712658D01*
X113922128Y-43713999D01*
X113917262Y-43716191D01*
X113917259Y-43716192D01*
X113808980Y-43764968D01*
X113711925Y-43808688D01*
X113520681Y-43937441D01*
X113353865Y-44096576D01*
X113216246Y-44281542D01*
X113215656Y-44282702D01*
X113163664Y-44329250D01*
X113109471Y-44341500D01*
X113082059Y-44341500D01*
X113070203Y-44340941D01*
X113062463Y-44339211D01*
X113054537Y-44339460D01*
X113054536Y-44339460D01*
X112991611Y-44341438D01*
X112987653Y-44341500D01*
X112958568Y-44341500D01*
X112954637Y-44341997D01*
X112954630Y-44341997D01*
X112954179Y-44342054D01*
X112942343Y-44342986D01*
X112896169Y-44344438D01*
X112875579Y-44350420D01*
X112856218Y-44354430D01*
X112849230Y-44355312D01*
X112842796Y-44356125D01*
X112842795Y-44356125D01*
X112834936Y-44357118D01*
X112827571Y-44360034D01*
X112827567Y-44360035D01*
X112791979Y-44374126D01*
X112780769Y-44377965D01*
X112736400Y-44390855D01*
X112717935Y-44401775D01*
X112700195Y-44410466D01*
X112680244Y-44418365D01*
X112642874Y-44445516D01*
X112632952Y-44452033D01*
X112600023Y-44471507D01*
X112600019Y-44471510D01*
X112593193Y-44475547D01*
X112578029Y-44490711D01*
X112562996Y-44503551D01*
X112545643Y-44516159D01*
X112516198Y-44551752D01*
X112508208Y-44560532D01*
X87399134Y-69669606D01*
X87337096Y-69703572D01*
X87332295Y-69704628D01*
X87325288Y-69705364D01*
X87153579Y-69763818D01*
X87147575Y-69767512D01*
X87005095Y-69855166D01*
X87005092Y-69855168D01*
X86999088Y-69858862D01*
X86994053Y-69863793D01*
X86994050Y-69863795D01*
X86948399Y-69908500D01*
X86869493Y-69985771D01*
X86771235Y-70138238D01*
X86768826Y-70144858D01*
X86768824Y-70144861D01*
X86733852Y-70240947D01*
X86709197Y-70308685D01*
X86686463Y-70488640D01*
X86704163Y-70669160D01*
X86761418Y-70841273D01*
X86765065Y-70847295D01*
X86765066Y-70847297D01*
X86775978Y-70865314D01*
X86855380Y-70996424D01*
X86981382Y-71126902D01*
X87006533Y-71143361D01*
X87052581Y-71197396D01*
X87062105Y-71267751D01*
X87032081Y-71332086D01*
X87010315Y-71350422D01*
X87010638Y-71350836D01*
X87005094Y-71355167D01*
X86999088Y-71358862D01*
X86994053Y-71363793D01*
X86994050Y-71363795D01*
X86874525Y-71480843D01*
X86869493Y-71485771D01*
X86771235Y-71638238D01*
X86768826Y-71644858D01*
X86768824Y-71644861D01*
X86749794Y-71697146D01*
X86709197Y-71808685D01*
X86686463Y-71988640D01*
X86704163Y-72169160D01*
X86761418Y-72341273D01*
X86765065Y-72347295D01*
X86765066Y-72347297D01*
X86800087Y-72405123D01*
X86855380Y-72496424D01*
X86981382Y-72626902D01*
X87006533Y-72643361D01*
X87052581Y-72697396D01*
X87062105Y-72767751D01*
X87032081Y-72832086D01*
X87010315Y-72850422D01*
X87010638Y-72850836D01*
X87005094Y-72855167D01*
X86999088Y-72858862D01*
X86994053Y-72863793D01*
X86994050Y-72863795D01*
X86874525Y-72980843D01*
X86869493Y-72985771D01*
X86771235Y-73138238D01*
X86768826Y-73144858D01*
X86768824Y-73144861D01*
X86733042Y-73243171D01*
X86709197Y-73308685D01*
X86686463Y-73488640D01*
X59442620Y-73488640D01*
X61735855Y-71195405D01*
X61798167Y-71161379D01*
X61824950Y-71158500D01*
X70492107Y-71158500D01*
X70561100Y-71179068D01*
X70586066Y-71195405D01*
X70633159Y-71226222D01*
X70639763Y-71228678D01*
X70639765Y-71228679D01*
X70796558Y-71286990D01*
X70796560Y-71286990D01*
X70803168Y-71289448D01*
X70886995Y-71300633D01*
X70975980Y-71312507D01*
X70975984Y-71312507D01*
X70982961Y-71313438D01*
X70989972Y-71312800D01*
X70989976Y-71312800D01*
X71132459Y-71299832D01*
X71163600Y-71296998D01*
X71170302Y-71294820D01*
X71170304Y-71294820D01*
X71329409Y-71243124D01*
X71329412Y-71243123D01*
X71336108Y-71240947D01*
X71439911Y-71179068D01*
X71485860Y-71151677D01*
X71485862Y-71151676D01*
X71491912Y-71148069D01*
X71623266Y-71022982D01*
X71723643Y-70871902D01*
X71788055Y-70702338D01*
X71789035Y-70695366D01*
X71812748Y-70526639D01*
X71812748Y-70526636D01*
X71813299Y-70522717D01*
X71813616Y-70500000D01*
X71811557Y-70481646D01*
X71807776Y-70447931D01*
X71820061Y-70378005D01*
X71868200Y-70325822D01*
X71936910Y-70307948D01*
X71949655Y-70308994D01*
X71953114Y-70309455D01*
X71975980Y-70312507D01*
X71975984Y-70312507D01*
X71982961Y-70313438D01*
X71989972Y-70312800D01*
X71989976Y-70312800D01*
X72132459Y-70299832D01*
X72163600Y-70296998D01*
X72170302Y-70294820D01*
X72170304Y-70294820D01*
X72329409Y-70243124D01*
X72329412Y-70243123D01*
X72336108Y-70240947D01*
X72491912Y-70148069D01*
X72623266Y-70022982D01*
X72723643Y-69871902D01*
X72765666Y-69761277D01*
X72785555Y-69708920D01*
X72785556Y-69708918D01*
X72788055Y-69702338D01*
X72790262Y-69686636D01*
X72812748Y-69526639D01*
X72812748Y-69526636D01*
X72813299Y-69522717D01*
X72813616Y-69500000D01*
X72793397Y-69319745D01*
X72791080Y-69313091D01*
X72736064Y-69155106D01*
X72736062Y-69155103D01*
X72733745Y-69148448D01*
X72680320Y-69062949D01*
X72641359Y-69000598D01*
X72637626Y-68994624D01*
X72595686Y-68952390D01*
X72514778Y-68870915D01*
X72514774Y-68870912D01*
X72509815Y-68865918D01*
X72495949Y-68857118D01*
X72441900Y-68822818D01*
X72356666Y-68768727D01*
X72281254Y-68741874D01*
X72192425Y-68710243D01*
X72192420Y-68710242D01*
X72185790Y-68707881D01*
X72178802Y-68707048D01*
X72178799Y-68707047D01*
X72055698Y-68692368D01*
X72005680Y-68686404D01*
X71998677Y-68687140D01*
X71998676Y-68687140D01*
X71832288Y-68704628D01*
X71832286Y-68704629D01*
X71825288Y-68705364D01*
X71793581Y-68716158D01*
X71660249Y-68761547D01*
X71660246Y-68761548D01*
X71653579Y-68763818D01*
X71647581Y-68767508D01*
X71647579Y-68767509D01*
X71557676Y-68822818D01*
X71491654Y-68841500D01*
X61082059Y-68841500D01*
X61070203Y-68840941D01*
X61062463Y-68839211D01*
X61054537Y-68839460D01*
X61054536Y-68839460D01*
X60991611Y-68841438D01*
X60987653Y-68841500D01*
X60958568Y-68841500D01*
X60954637Y-68841997D01*
X60954630Y-68841997D01*
X60954179Y-68842054D01*
X60942343Y-68842986D01*
X60896169Y-68844438D01*
X60875579Y-68850420D01*
X60856218Y-68854430D01*
X60849230Y-68855312D01*
X60842796Y-68856125D01*
X60842795Y-68856125D01*
X60834936Y-68857118D01*
X60827571Y-68860034D01*
X60827567Y-68860035D01*
X60791979Y-68874126D01*
X60780769Y-68877965D01*
X60736400Y-68890855D01*
X60717935Y-68901775D01*
X60700195Y-68910466D01*
X60680244Y-68918365D01*
X60648001Y-68941791D01*
X60642874Y-68945516D01*
X60632952Y-68952033D01*
X60600023Y-68971507D01*
X60600019Y-68971510D01*
X60593193Y-68975547D01*
X60578029Y-68990711D01*
X60562996Y-69003551D01*
X60545643Y-69016159D01*
X60519459Y-69047810D01*
X60516198Y-69051752D01*
X60508208Y-69060532D01*
X45947895Y-83620845D01*
X45885583Y-83654871D01*
X45858800Y-83657750D01*
X44007944Y-83657750D01*
X43940430Y-83638135D01*
X43900681Y-83612910D01*
X43856666Y-83584977D01*
X43825839Y-83574000D01*
X43692425Y-83526493D01*
X43692420Y-83526492D01*
X43685790Y-83524131D01*
X43678802Y-83523298D01*
X43678799Y-83523297D01*
X43550437Y-83507991D01*
X43505680Y-83502654D01*
X43498677Y-83503390D01*
X43498676Y-83503390D01*
X43332288Y-83520878D01*
X43332286Y-83520879D01*
X43325288Y-83521614D01*
X43153579Y-83580068D01*
X43147575Y-83583762D01*
X43005095Y-83671416D01*
X43005092Y-83671418D01*
X42999088Y-83675112D01*
X42994053Y-83680043D01*
X42994050Y-83680045D01*
X42950752Y-83722446D01*
X42869493Y-83802021D01*
X42771235Y-83954488D01*
X42768826Y-83961108D01*
X42768824Y-83961111D01*
X42745199Y-84026020D01*
X42709197Y-84124935D01*
X42686463Y-84304890D01*
X36508000Y-84304890D01*
X36508000Y-84022115D01*
X36503525Y-84006876D01*
X36502135Y-84005671D01*
X36494452Y-84004000D01*
X35272115Y-84004000D01*
X35256876Y-84008475D01*
X35255671Y-84009865D01*
X35254000Y-84017548D01*
X35254000Y-85089884D01*
X34746000Y-85089884D01*
X34746000Y-84022115D01*
X34741525Y-84006876D01*
X34740135Y-84005671D01*
X34732452Y-84004000D01*
X33510116Y-84004000D01*
X33494877Y-84008475D01*
X33493672Y-84009865D01*
X33492001Y-84017548D01*
X33492001Y-84397095D01*
X25508500Y-84397095D01*
X25508500Y-81185774D01*
X33488102Y-81185774D01*
X33496751Y-81416158D01*
X33544093Y-81641791D01*
X33628776Y-81856221D01*
X33748377Y-82053317D01*
X33751874Y-82057347D01*
X33881777Y-82207047D01*
X33899477Y-82227445D01*
X33903608Y-82230832D01*
X33935529Y-82257006D01*
X33975524Y-82315666D01*
X33977455Y-82386636D01*
X33940710Y-82447384D01*
X33921941Y-82461584D01*
X33782193Y-82548063D01*
X33770792Y-82557099D01*
X33656261Y-82671829D01*
X33647249Y-82683240D01*
X33562184Y-82821243D01*
X33556037Y-82834424D01*
X33504862Y-82988710D01*
X33501995Y-83002086D01*
X33492328Y-83096438D01*
X33492000Y-83102855D01*
X33492000Y-83477885D01*
X33496475Y-83493124D01*
X33497865Y-83494329D01*
X33505548Y-83496000D01*
X36489884Y-83496000D01*
X36505123Y-83491525D01*
X36506328Y-83490135D01*
X36507999Y-83482452D01*
X36507999Y-83102905D01*
X36507662Y-83096386D01*
X36497743Y-83000794D01*
X36494851Y-82987400D01*
X36443412Y-82833216D01*
X36437239Y-82820038D01*
X36351937Y-82682193D01*
X36342901Y-82670792D01*
X36228171Y-82556261D01*
X36216757Y-82547247D01*
X36077287Y-82461277D01*
X36029793Y-82408505D01*
X36018369Y-82338434D01*
X36046643Y-82273310D01*
X36056430Y-82262847D01*
X36089991Y-82230832D01*
X36171135Y-82153424D01*
X36308754Y-81968458D01*
X36413240Y-81762949D01*
X36449321Y-81646752D01*
X36480024Y-81547871D01*
X36481607Y-81542773D01*
X36482308Y-81537484D01*
X36511198Y-81319511D01*
X36511198Y-81319506D01*
X36511898Y-81314226D01*
X36503249Y-81083842D01*
X36455907Y-80858209D01*
X36371224Y-80643779D01*
X36251623Y-80446683D01*
X36164755Y-80346576D01*
X36104023Y-80276588D01*
X36104021Y-80276586D01*
X36100523Y-80272555D01*
X36058970Y-80238484D01*
X35926373Y-80129760D01*
X35926367Y-80129756D01*
X35922245Y-80126376D01*
X35917609Y-80123737D01*
X35917606Y-80123735D01*
X35726529Y-80014968D01*
X35721886Y-80012325D01*
X35505175Y-79933663D01*
X35499926Y-79932714D01*
X35499923Y-79932713D01*
X35282392Y-79893377D01*
X35282385Y-79893376D01*
X35278308Y-79892639D01*
X35260586Y-79891803D01*
X35255644Y-79891570D01*
X35255637Y-79891570D01*
X35254156Y-79891500D01*
X34792110Y-79891500D01*
X34725191Y-79897178D01*
X34625591Y-79905629D01*
X34625587Y-79905630D01*
X34620280Y-79906080D01*
X34615125Y-79907418D01*
X34615119Y-79907419D01*
X34402297Y-79962657D01*
X34402293Y-79962658D01*
X34397128Y-79963999D01*
X34392262Y-79966191D01*
X34392259Y-79966192D01*
X34283980Y-80014968D01*
X34186925Y-80058688D01*
X33995681Y-80187441D01*
X33828865Y-80346576D01*
X33691246Y-80531542D01*
X33586760Y-80737051D01*
X33585178Y-80742145D01*
X33585177Y-80742148D01*
X33523115Y-80942020D01*
X33518393Y-80957227D01*
X33517692Y-80962516D01*
X33502304Y-81078623D01*
X33488102Y-81185774D01*
X25508500Y-81185774D01*
X25508500Y-38186434D01*
X32178921Y-38186434D01*
X32185708Y-38196135D01*
X32385023Y-38366365D01*
X32389709Y-38370000D01*
X32713442Y-38597523D01*
X32718432Y-38600690D01*
X33062141Y-38796739D01*
X33067422Y-38799429D01*
X33428053Y-38962260D01*
X33433544Y-38964434D01*
X33807906Y-39092607D01*
X33813590Y-39094259D01*
X34198347Y-39186631D01*
X34204162Y-39187740D01*
X34595889Y-39243490D01*
X34601802Y-39244049D01*
X34997031Y-39262688D01*
X35002969Y-39262688D01*
X35398198Y-39244049D01*
X35404111Y-39243490D01*
X35795838Y-39187740D01*
X35801653Y-39186631D01*
X36186410Y-39094259D01*
X36192094Y-39092607D01*
X36566456Y-38964434D01*
X36571947Y-38962260D01*
X36932578Y-38799429D01*
X36937859Y-38796739D01*
X37281568Y-38600690D01*
X37286558Y-38597523D01*
X37610291Y-38370000D01*
X37614977Y-38366365D01*
X37812722Y-38197476D01*
X37819930Y-38186434D01*
X112178921Y-38186434D01*
X112185708Y-38196135D01*
X112385023Y-38366365D01*
X112389709Y-38370000D01*
X112713442Y-38597523D01*
X112718432Y-38600690D01*
X113062141Y-38796739D01*
X113067422Y-38799429D01*
X113428053Y-38962260D01*
X113433544Y-38964434D01*
X113807906Y-39092607D01*
X113813590Y-39094259D01*
X114198347Y-39186631D01*
X114204162Y-39187740D01*
X114595889Y-39243490D01*
X114601802Y-39244049D01*
X114997031Y-39262688D01*
X115002969Y-39262688D01*
X115398198Y-39244049D01*
X115404111Y-39243490D01*
X115795838Y-39187740D01*
X115801653Y-39186631D01*
X116186410Y-39094259D01*
X116192094Y-39092607D01*
X116566456Y-38964434D01*
X116571947Y-38962260D01*
X116932578Y-38799429D01*
X116937859Y-38796739D01*
X117281568Y-38600690D01*
X117286558Y-38597523D01*
X117610291Y-38370000D01*
X117614977Y-38366365D01*
X117812722Y-38197476D01*
X117821152Y-38184562D01*
X117815145Y-38174355D01*
X115012812Y-35372022D01*
X114998868Y-35364408D01*
X114997035Y-35364539D01*
X114990420Y-35368790D01*
X112186313Y-38172897D01*
X112178921Y-38186434D01*
X37819930Y-38186434D01*
X37821152Y-38184562D01*
X37815145Y-38174355D01*
X35012812Y-35372022D01*
X34998868Y-35364408D01*
X34997035Y-35364539D01*
X34990420Y-35368790D01*
X32186313Y-38172897D01*
X32178921Y-38186434D01*
X25508500Y-38186434D01*
X25508500Y-34869073D01*
X30739322Y-34869073D01*
X30745537Y-35264679D01*
X30745911Y-35270629D01*
X30789327Y-35663895D01*
X30790257Y-35669766D01*
X30870494Y-36057212D01*
X30871970Y-36062960D01*
X30988316Y-36441151D01*
X30990320Y-36446716D01*
X31141745Y-36812288D01*
X31144267Y-36817647D01*
X31329411Y-37167323D01*
X31332436Y-37172440D01*
X31549669Y-37503144D01*
X31553159Y-37507947D01*
X31800292Y-37816420D01*
X31813130Y-37823694D01*
X31814439Y-37823621D01*
X31821852Y-37818938D01*
X34627978Y-35012812D01*
X34634356Y-35001132D01*
X35364408Y-35001132D01*
X35364539Y-35002965D01*
X35368790Y-35009580D01*
X38175271Y-37816061D01*
X38189215Y-37823675D01*
X38190524Y-37823582D01*
X38197360Y-37819112D01*
X38199454Y-37816737D01*
X38446841Y-37507947D01*
X38450331Y-37503144D01*
X38667564Y-37172440D01*
X38670589Y-37167323D01*
X38855733Y-36817647D01*
X38858255Y-36812288D01*
X39009680Y-36446716D01*
X39011684Y-36441151D01*
X39128030Y-36062960D01*
X39129506Y-36057212D01*
X39209743Y-35669766D01*
X39210673Y-35663895D01*
X39254145Y-35270124D01*
X39254494Y-35265196D01*
X39262750Y-35002468D01*
X39262711Y-34997530D01*
X39244049Y-34601802D01*
X39243490Y-34595889D01*
X39226843Y-34478918D01*
X70446917Y-34478918D01*
X70462682Y-34752320D01*
X70463507Y-34756525D01*
X70463508Y-34756533D01*
X70474127Y-34810657D01*
X70515405Y-35021053D01*
X70516792Y-35025103D01*
X70516793Y-35025108D01*
X70537605Y-35085895D01*
X70604112Y-35280144D01*
X70727160Y-35524799D01*
X70729586Y-35528328D01*
X70729589Y-35528334D01*
X70879843Y-35746953D01*
X70882274Y-35750490D01*
X71066582Y-35953043D01*
X71276675Y-36128707D01*
X71280316Y-36130991D01*
X71505024Y-36271951D01*
X71505028Y-36271953D01*
X71508664Y-36274234D01*
X71576544Y-36304883D01*
X71754345Y-36385164D01*
X71754349Y-36385166D01*
X71758257Y-36386930D01*
X71762377Y-36388150D01*
X71762376Y-36388150D01*
X72016723Y-36463491D01*
X72016727Y-36463492D01*
X72020836Y-36464709D01*
X72025070Y-36465357D01*
X72025075Y-36465358D01*
X72287298Y-36505483D01*
X72287300Y-36505483D01*
X72291540Y-36506132D01*
X72430912Y-36508322D01*
X72561071Y-36510367D01*
X72561077Y-36510367D01*
X72565362Y-36510434D01*
X72837235Y-36477534D01*
X73102127Y-36408041D01*
X73106087Y-36406401D01*
X73106092Y-36406399D01*
X73228632Y-36355641D01*
X73355136Y-36303241D01*
X73591582Y-36165073D01*
X73745139Y-36044669D01*
X75532001Y-36044669D01*
X75532371Y-36051490D01*
X75537895Y-36102352D01*
X75541521Y-36117604D01*
X75586676Y-36238054D01*
X75595214Y-36253649D01*
X75671715Y-36355724D01*
X75684276Y-36368285D01*
X75786351Y-36444786D01*
X75801946Y-36453324D01*
X75922394Y-36498478D01*
X75937649Y-36502105D01*
X75988514Y-36507631D01*
X75995328Y-36508000D01*
X77267885Y-36508000D01*
X77283124Y-36503525D01*
X77284329Y-36502135D01*
X77286000Y-36494452D01*
X77286000Y-36489884D01*
X77794000Y-36489884D01*
X77798475Y-36505123D01*
X77799865Y-36506328D01*
X77807548Y-36507999D01*
X79084669Y-36507999D01*
X79091490Y-36507629D01*
X79142352Y-36502105D01*
X79157604Y-36498479D01*
X79278054Y-36453324D01*
X79293649Y-36444786D01*
X79395724Y-36368285D01*
X79408285Y-36355724D01*
X79484786Y-36253649D01*
X79493324Y-36238054D01*
X79538478Y-36117606D01*
X79542105Y-36102351D01*
X79547631Y-36051486D01*
X79548000Y-36044672D01*
X79548000Y-34869073D01*
X110739322Y-34869073D01*
X110745537Y-35264679D01*
X110745911Y-35270629D01*
X110789327Y-35663895D01*
X110790257Y-35669766D01*
X110870494Y-36057212D01*
X110871970Y-36062960D01*
X110988316Y-36441151D01*
X110990320Y-36446716D01*
X111141745Y-36812288D01*
X111144267Y-36817647D01*
X111329411Y-37167323D01*
X111332436Y-37172440D01*
X111549669Y-37503144D01*
X111553159Y-37507947D01*
X111800292Y-37816420D01*
X111813130Y-37823694D01*
X111814439Y-37823621D01*
X111821852Y-37818938D01*
X114627978Y-35012812D01*
X114634356Y-35001132D01*
X115364408Y-35001132D01*
X115364539Y-35002965D01*
X115368790Y-35009580D01*
X118175271Y-37816061D01*
X118189215Y-37823675D01*
X118190524Y-37823582D01*
X118197360Y-37819112D01*
X118199454Y-37816737D01*
X118446841Y-37507947D01*
X118450331Y-37503144D01*
X118667564Y-37172440D01*
X118670589Y-37167323D01*
X118855733Y-36817647D01*
X118858255Y-36812288D01*
X119009680Y-36446716D01*
X119011684Y-36441151D01*
X119128030Y-36062960D01*
X119129506Y-36057212D01*
X119209743Y-35669766D01*
X119210673Y-35663895D01*
X119254145Y-35270124D01*
X119254494Y-35265196D01*
X119262750Y-35002468D01*
X119262711Y-34997530D01*
X119244049Y-34601802D01*
X119243490Y-34595889D01*
X119187740Y-34204162D01*
X119186631Y-34198347D01*
X119094259Y-33813590D01*
X119092607Y-33807906D01*
X118964434Y-33433544D01*
X118962260Y-33428053D01*
X118799429Y-33067422D01*
X118796739Y-33062141D01*
X118600690Y-32718432D01*
X118597523Y-32713442D01*
X118370000Y-32389709D01*
X118366365Y-32385023D01*
X118197476Y-32187278D01*
X118184562Y-32178848D01*
X118174355Y-32184855D01*
X115372022Y-34987188D01*
X115364408Y-35001132D01*
X114634356Y-35001132D01*
X114635592Y-34998868D01*
X114635461Y-34997035D01*
X114631210Y-34990420D01*
X111827402Y-32186612D01*
X111813458Y-32178998D01*
X111813205Y-32179016D01*
X111804463Y-32184930D01*
X111717436Y-32280572D01*
X111713649Y-32285150D01*
X111476088Y-32601551D01*
X111472744Y-32606471D01*
X111266001Y-32943845D01*
X111263153Y-32949025D01*
X111089072Y-33304370D01*
X111086723Y-33309797D01*
X110946858Y-33679939D01*
X110945026Y-33685578D01*
X110840622Y-34067215D01*
X110839323Y-34073028D01*
X110771295Y-34462811D01*
X110770554Y-34468674D01*
X110739507Y-34863147D01*
X110739322Y-34869073D01*
X79548000Y-34869073D01*
X79548000Y-34772115D01*
X79543525Y-34756876D01*
X79542135Y-34755671D01*
X79534452Y-34754000D01*
X77812115Y-34754000D01*
X77796876Y-34758475D01*
X77795671Y-34759865D01*
X77794000Y-34767548D01*
X77794000Y-36489884D01*
X77286000Y-36489884D01*
X77286000Y-34772115D01*
X77281525Y-34756876D01*
X77280135Y-34755671D01*
X77272452Y-34754000D01*
X75550116Y-34754000D01*
X75534877Y-34758475D01*
X75533672Y-34759865D01*
X75532001Y-34767548D01*
X75532001Y-36044669D01*
X73745139Y-36044669D01*
X73807089Y-35996094D01*
X73848809Y-35953043D01*
X73994686Y-35802509D01*
X73997669Y-35799431D01*
X74000202Y-35795983D01*
X74000206Y-35795978D01*
X74157257Y-35582178D01*
X74159795Y-35578723D01*
X74187154Y-35528334D01*
X74288418Y-35341830D01*
X74288419Y-35341828D01*
X74290468Y-35338054D01*
X74387269Y-35081877D01*
X74412107Y-34973427D01*
X74447449Y-34819117D01*
X74447450Y-34819113D01*
X74448407Y-34814933D01*
X74452229Y-34772115D01*
X74472531Y-34544627D01*
X74472531Y-34544625D01*
X74472751Y-34542161D01*
X74473193Y-34500000D01*
X74471465Y-34474648D01*
X74454859Y-34231055D01*
X74454858Y-34231049D01*
X74454642Y-34227885D01*
X75532000Y-34227885D01*
X75536475Y-34243124D01*
X75537865Y-34244329D01*
X75545548Y-34246000D01*
X77267885Y-34246000D01*
X77283124Y-34241525D01*
X77284329Y-34240135D01*
X77286000Y-34232452D01*
X77286000Y-34227885D01*
X77794000Y-34227885D01*
X77798475Y-34243124D01*
X77799865Y-34244329D01*
X77807548Y-34246000D01*
X79529884Y-34246000D01*
X79545123Y-34241525D01*
X79546328Y-34240135D01*
X79547999Y-34232452D01*
X79547999Y-32955331D01*
X79547629Y-32948510D01*
X79542105Y-32897648D01*
X79538479Y-32882396D01*
X79493324Y-32761946D01*
X79484786Y-32746351D01*
X79408285Y-32644276D01*
X79395724Y-32631715D01*
X79293649Y-32555214D01*
X79278054Y-32546676D01*
X79157606Y-32501522D01*
X79142351Y-32497895D01*
X79091486Y-32492369D01*
X79084672Y-32492000D01*
X77812115Y-32492000D01*
X77796876Y-32496475D01*
X77795671Y-32497865D01*
X77794000Y-32505548D01*
X77794000Y-34227885D01*
X77286000Y-34227885D01*
X77286000Y-32510116D01*
X77281525Y-32494877D01*
X77280135Y-32493672D01*
X77272452Y-32492001D01*
X75995331Y-32492001D01*
X75988510Y-32492371D01*
X75937648Y-32497895D01*
X75922396Y-32501521D01*
X75801946Y-32546676D01*
X75786351Y-32555214D01*
X75684276Y-32631715D01*
X75671715Y-32644276D01*
X75595214Y-32746351D01*
X75586676Y-32761946D01*
X75541522Y-32882394D01*
X75537895Y-32897649D01*
X75532369Y-32948514D01*
X75532000Y-32955328D01*
X75532000Y-34227885D01*
X74454642Y-34227885D01*
X74454567Y-34226778D01*
X74449884Y-34204162D01*
X74399901Y-33962809D01*
X74399032Y-33958612D01*
X74307617Y-33700465D01*
X74182013Y-33457112D01*
X74172040Y-33442921D01*
X74103279Y-33345085D01*
X74024545Y-33233057D01*
X73838125Y-33032445D01*
X73834810Y-33029731D01*
X73834806Y-33029728D01*
X73629523Y-32861706D01*
X73626205Y-32858990D01*
X73392704Y-32715901D01*
X73388768Y-32714173D01*
X73145873Y-32607549D01*
X73145869Y-32607548D01*
X73141945Y-32605825D01*
X72878566Y-32530800D01*
X72874324Y-32530196D01*
X72874318Y-32530195D01*
X72647366Y-32497895D01*
X72607443Y-32492213D01*
X72463589Y-32491460D01*
X72337877Y-32490802D01*
X72337871Y-32490802D01*
X72333591Y-32490780D01*
X72329347Y-32491339D01*
X72329343Y-32491339D01*
X72221416Y-32505548D01*
X72062078Y-32526525D01*
X72057938Y-32527658D01*
X72057936Y-32527658D01*
X71988418Y-32546676D01*
X71797928Y-32598788D01*
X71793980Y-32600472D01*
X71549982Y-32704546D01*
X71549978Y-32704548D01*
X71546030Y-32706232D01*
X71478996Y-32746351D01*
X71314725Y-32844664D01*
X71314721Y-32844667D01*
X71311043Y-32846868D01*
X71097318Y-33018094D01*
X70908808Y-33216742D01*
X70749002Y-33439136D01*
X70620857Y-33681161D01*
X70619385Y-33685184D01*
X70619383Y-33685188D01*
X70612314Y-33704506D01*
X70526743Y-33938337D01*
X70468404Y-34205907D01*
X70446917Y-34478918D01*
X39226843Y-34478918D01*
X39187740Y-34204162D01*
X39186631Y-34198347D01*
X39094259Y-33813590D01*
X39092607Y-33807906D01*
X38964434Y-33433544D01*
X38962260Y-33428053D01*
X38799429Y-33067422D01*
X38796739Y-33062141D01*
X38600690Y-32718432D01*
X38597523Y-32713442D01*
X38370000Y-32389709D01*
X38366365Y-32385023D01*
X38197476Y-32187278D01*
X38184562Y-32178848D01*
X38174355Y-32184855D01*
X35372022Y-34987188D01*
X35364408Y-35001132D01*
X34634356Y-35001132D01*
X34635592Y-34998868D01*
X34635461Y-34997035D01*
X34631210Y-34990420D01*
X31827402Y-32186612D01*
X31813458Y-32178998D01*
X31813205Y-32179016D01*
X31804463Y-32184930D01*
X31717436Y-32280572D01*
X31713649Y-32285150D01*
X31476088Y-32601551D01*
X31472744Y-32606471D01*
X31266001Y-32943845D01*
X31263153Y-32949025D01*
X31089072Y-33304370D01*
X31086723Y-33309797D01*
X30946858Y-33679939D01*
X30945026Y-33685578D01*
X30840622Y-34067215D01*
X30839323Y-34073028D01*
X30771295Y-34462811D01*
X30770554Y-34468674D01*
X30739507Y-34863147D01*
X30739322Y-34869073D01*
X25508500Y-34869073D01*
X25508500Y-31815964D01*
X32178939Y-31815964D01*
X32178945Y-31816217D01*
X32184445Y-31825235D01*
X34987188Y-34627978D01*
X35001132Y-34635592D01*
X35002965Y-34635461D01*
X35009580Y-34631210D01*
X37816061Y-31824729D01*
X37820847Y-31815964D01*
X112178939Y-31815964D01*
X112178945Y-31816217D01*
X112184445Y-31825235D01*
X114987188Y-34627978D01*
X115001132Y-34635592D01*
X115002965Y-34635461D01*
X115009580Y-34631210D01*
X117816061Y-31824729D01*
X117823675Y-31810785D01*
X117823582Y-31809476D01*
X117819112Y-31802640D01*
X117816737Y-31800546D01*
X117507947Y-31553159D01*
X117503144Y-31549669D01*
X117172440Y-31332436D01*
X117167323Y-31329411D01*
X116817647Y-31144267D01*
X116812288Y-31141745D01*
X116446716Y-30990320D01*
X116441151Y-30988316D01*
X116062960Y-30871970D01*
X116057212Y-30870494D01*
X115669766Y-30790257D01*
X115663895Y-30789327D01*
X115270629Y-30745911D01*
X115264679Y-30745537D01*
X114869073Y-30739322D01*
X114863147Y-30739507D01*
X114468674Y-30770554D01*
X114462811Y-30771295D01*
X114073028Y-30839323D01*
X114067215Y-30840622D01*
X113685578Y-30945026D01*
X113679939Y-30946858D01*
X113309797Y-31086723D01*
X113304370Y-31089072D01*
X112949025Y-31263153D01*
X112943845Y-31266001D01*
X112606471Y-31472744D01*
X112601551Y-31476088D01*
X112285150Y-31713649D01*
X112280572Y-31717436D01*
X112187199Y-31802398D01*
X112178939Y-31815964D01*
X37820847Y-31815964D01*
X37823675Y-31810785D01*
X37823582Y-31809476D01*
X37819112Y-31802640D01*
X37816737Y-31800546D01*
X37507947Y-31553159D01*
X37503144Y-31549669D01*
X37172440Y-31332436D01*
X37167323Y-31329411D01*
X36817647Y-31144267D01*
X36812288Y-31141745D01*
X36446716Y-30990320D01*
X36441151Y-30988316D01*
X36062960Y-30871970D01*
X36057212Y-30870494D01*
X35669766Y-30790257D01*
X35663895Y-30789327D01*
X35270629Y-30745911D01*
X35264679Y-30745537D01*
X34869073Y-30739322D01*
X34863147Y-30739507D01*
X34468674Y-30770554D01*
X34462811Y-30771295D01*
X34073028Y-30839323D01*
X34067215Y-30840622D01*
X33685578Y-30945026D01*
X33679939Y-30946858D01*
X33309797Y-31086723D01*
X33304370Y-31089072D01*
X32949025Y-31263153D01*
X32943845Y-31266001D01*
X32606471Y-31472744D01*
X32601551Y-31476088D01*
X32285150Y-31713649D01*
X32280572Y-31717436D01*
X32187199Y-31802398D01*
X32178939Y-31815964D01*
X25508500Y-31815964D01*
X25508500Y-25634500D01*
X25528502Y-25566379D01*
X25582158Y-25519886D01*
X25634500Y-25508500D01*
X124365500Y-25508500D01*
X124433621Y-25528502D01*
G37*
%TD.AperFunction*%
%TD*%
M02*
