%TF.GenerationSoftware,KiCad,Pcbnew,6.0.11-2627ca5db0~126~ubuntu22.04.1*%
%TF.CreationDate,2023-04-06T15:07:13+02:00*%
%TF.ProjectId,Subductor_carte_commande,53756264-7563-4746-9f72-5f6361727465,rev?*%
%TF.SameCoordinates,Original*%
%TF.FileFunction,Copper,L1,Top*%
%TF.FilePolarity,Positive*%
%FSLAX46Y46*%
G04 Gerber Fmt 4.6, Leading zero omitted, Abs format (unit mm)*
G04 Created by KiCad (PCBNEW 6.0.11-2627ca5db0~126~ubuntu22.04.1) date 2023-04-06 15:07:13*
%MOMM*%
%LPD*%
G01*
G04 APERTURE LIST*
G04 Aperture macros list*
%AMRoundRect*
0 Rectangle with rounded corners*
0 $1 Rounding radius*
0 $2 $3 $4 $5 $6 $7 $8 $9 X,Y pos of 4 corners*
0 Add a 4 corners polygon primitive as box body*
4,1,4,$2,$3,$4,$5,$6,$7,$8,$9,$2,$3,0*
0 Add four circle primitives for the rounded corners*
1,1,$1+$1,$2,$3*
1,1,$1+$1,$4,$5*
1,1,$1+$1,$6,$7*
1,1,$1+$1,$8,$9*
0 Add four rect primitives between the rounded corners*
20,1,$1+$1,$2,$3,$4,$5,0*
20,1,$1+$1,$4,$5,$6,$7,0*
20,1,$1+$1,$6,$7,$8,$9,0*
20,1,$1+$1,$8,$9,$2,$3,0*%
G04 Aperture macros list end*
%TA.AperFunction,ComponentPad*%
%ADD10RoundRect,0.250000X0.600000X0.725000X-0.600000X0.725000X-0.600000X-0.725000X0.600000X-0.725000X0*%
%TD*%
%TA.AperFunction,ComponentPad*%
%ADD11O,1.700000X1.950000*%
%TD*%
%TA.AperFunction,ComponentPad*%
%ADD12RoundRect,0.250000X0.750000X-0.600000X0.750000X0.600000X-0.750000X0.600000X-0.750000X-0.600000X0*%
%TD*%
%TA.AperFunction,ComponentPad*%
%ADD13O,2.000000X1.700000*%
%TD*%
%TA.AperFunction,SMDPad,CuDef*%
%ADD14RoundRect,0.140000X-0.170000X0.140000X-0.170000X-0.140000X0.170000X-0.140000X0.170000X0.140000X0*%
%TD*%
%TA.AperFunction,ComponentPad*%
%ADD15RoundRect,0.250000X0.725000X-0.600000X0.725000X0.600000X-0.725000X0.600000X-0.725000X-0.600000X0*%
%TD*%
%TA.AperFunction,ComponentPad*%
%ADD16O,1.950000X1.700000*%
%TD*%
%TA.AperFunction,SMDPad,CuDef*%
%ADD17RoundRect,0.250000X-0.312500X-0.625000X0.312500X-0.625000X0.312500X0.625000X-0.312500X0.625000X0*%
%TD*%
%TA.AperFunction,SMDPad,CuDef*%
%ADD18R,0.550000X1.600000*%
%TD*%
%TA.AperFunction,SMDPad,CuDef*%
%ADD19R,1.600000X0.550000*%
%TD*%
%TA.AperFunction,ComponentPad*%
%ADD20R,3.000000X3.000000*%
%TD*%
%TA.AperFunction,ComponentPad*%
%ADD21C,3.000000*%
%TD*%
%TA.AperFunction,ComponentPad*%
%ADD22R,1.700000X1.700000*%
%TD*%
%TA.AperFunction,ComponentPad*%
%ADD23O,1.700000X1.700000*%
%TD*%
%TA.AperFunction,ComponentPad*%
%ADD24C,7.500000*%
%TD*%
%TA.AperFunction,SMDPad,CuDef*%
%ADD25RoundRect,0.250000X0.312500X0.625000X-0.312500X0.625000X-0.312500X-0.625000X0.312500X-0.625000X0*%
%TD*%
%TA.AperFunction,SMDPad,CuDef*%
%ADD26R,1.400000X1.200000*%
%TD*%
%TA.AperFunction,SMDPad,CuDef*%
%ADD27R,1.500000X1.500000*%
%TD*%
%TA.AperFunction,ViaPad*%
%ADD28C,0.600000*%
%TD*%
%TA.AperFunction,Conductor*%
%ADD29C,0.800000*%
%TD*%
%TA.AperFunction,Conductor*%
%ADD30C,0.600000*%
%TD*%
%TA.AperFunction,Conductor*%
%ADD31C,0.300000*%
%TD*%
G04 APERTURE END LIST*
D10*
%TO.P,J7,1,Pin_1*%
%TO.N,+5V*%
X60000000Y-116500000D03*
D11*
%TO.P,J7,2,Pin_2*%
%TO.N,BUZZER*%
X57500000Y-116500000D03*
%TO.P,J7,3,Pin_3*%
%TO.N,GND*%
X55000000Y-116500000D03*
%TD*%
D12*
%TO.P,J5,1,Pin_1*%
%TO.N,GND*%
X35000000Y-83750000D03*
D13*
%TO.P,J5,2,Pin_2*%
%TO.N,Bouton1*%
X35000000Y-81250000D03*
%TD*%
D14*
%TO.P,C4,1*%
%TO.N,Net-(C4-Pad1)*%
X72175000Y-64725000D03*
%TO.P,C4,2*%
%TO.N,GND*%
X72175000Y-65685000D03*
%TD*%
D15*
%TO.P,J2,1,Pin_1*%
%TO.N,GND*%
X115000000Y-71050000D03*
D16*
%TO.P,J2,2,Pin_2*%
%TO.N,+5V*%
X115000000Y-68550000D03*
%TO.P,J2,3,Pin_3*%
%TO.N,SDA*%
X115000000Y-66050000D03*
%TO.P,J2,4,Pin_4*%
%TO.N,SCL*%
X115000000Y-63550000D03*
%TD*%
D17*
%TO.P,R2,1*%
%TO.N,Bouton2*%
X43537500Y-98170000D03*
%TO.P,R2,2*%
%TO.N,+5V*%
X46462500Y-98170000D03*
%TD*%
D18*
%TO.P,uC1,1,PD3*%
%TO.N,DT*%
X80300000Y-73250000D03*
%TO.P,uC1,2,PD4*%
%TO.N,CLK*%
X79500000Y-73250000D03*
%TO.P,uC1,3,GND*%
%TO.N,GND*%
X78700000Y-73250000D03*
%TO.P,uC1,4,VCC*%
%TO.N,+5V*%
X77900000Y-73250000D03*
%TO.P,uC1,5,GND*%
%TO.N,GND*%
X77100000Y-73250000D03*
%TO.P,uC1,6,VCC*%
%TO.N,+5V*%
X76300000Y-73250000D03*
%TO.P,uC1,7,XTAL1/PB6*%
%TO.N,Net-(C3-Pad1)*%
X75500000Y-73250000D03*
%TO.P,uC1,8,XTAL2/PB7*%
%TO.N,Net-(C4-Pad1)*%
X74700000Y-73250000D03*
D19*
%TO.P,uC1,9,PD5*%
%TO.N,Bouton1*%
X73250000Y-74700000D03*
%TO.P,uC1,10,PD6*%
%TO.N,Bouton2*%
X73250000Y-75500000D03*
%TO.P,uC1,11,PD7*%
%TO.N,unconnected-(uC1-Pad11)*%
X73250000Y-76300000D03*
%TO.P,uC1,12,PB0*%
%TO.N,unconnected-(uC1-Pad12)*%
X73250000Y-77100000D03*
%TO.P,uC1,13,PB1*%
%TO.N,unconnected-(uC1-Pad13)*%
X73250000Y-77900000D03*
%TO.P,uC1,14,PB2*%
%TO.N,BUZZER*%
X73250000Y-78700000D03*
%TO.P,uC1,15,PB3*%
%TO.N,MOSI*%
X73250000Y-79500000D03*
%TO.P,uC1,16,PB4*%
%TO.N,MISO*%
X73250000Y-80300000D03*
D18*
%TO.P,uC1,17,PB5*%
%TO.N,SCK*%
X74700000Y-81750000D03*
%TO.P,uC1,18,AVCC*%
%TO.N,+5V*%
X75500000Y-81750000D03*
%TO.P,uC1,19,ADC6*%
%TO.N,unconnected-(uC1-Pad19)*%
X76300000Y-81750000D03*
%TO.P,uC1,20,AREF*%
%TO.N,+5V*%
X77100000Y-81750000D03*
%TO.P,uC1,21,GND*%
%TO.N,GND*%
X77900000Y-81750000D03*
%TO.P,uC1,22,ADC7*%
%TO.N,unconnected-(uC1-Pad22)*%
X78700000Y-81750000D03*
%TO.P,uC1,23,PC0*%
%TO.N,unconnected-(uC1-Pad23)*%
X79500000Y-81750000D03*
%TO.P,uC1,24,PC1*%
%TO.N,unconnected-(uC1-Pad24)*%
X80300000Y-81750000D03*
D19*
%TO.P,uC1,25,PC2*%
%TO.N,unconnected-(uC1-Pad25)*%
X81750000Y-80300000D03*
%TO.P,uC1,26,PC3*%
%TO.N,unconnected-(uC1-Pad26)*%
X81750000Y-79500000D03*
%TO.P,uC1,27,PC4*%
%TO.N,SDA*%
X81750000Y-78700000D03*
%TO.P,uC1,28,PC5*%
%TO.N,SCL*%
X81750000Y-77900000D03*
%TO.P,uC1,29,~{RESET}/PC6*%
%TO.N,RST*%
X81750000Y-77100000D03*
%TO.P,uC1,30,PD0*%
%TO.N,UART RX*%
X81750000Y-76300000D03*
%TO.P,uC1,31,PD1*%
%TO.N,UART TX*%
X81750000Y-75500000D03*
%TO.P,uC1,32,PD2*%
%TO.N,SW*%
X81750000Y-74700000D03*
%TD*%
D15*
%TO.P,J3,1,Pin_1*%
%TO.N,GND*%
X114500000Y-55000000D03*
D16*
%TO.P,J3,2,Pin_2*%
%TO.N,+5V*%
X114500000Y-52500000D03*
%TO.P,J3,3,Pin_3*%
%TO.N,SW*%
X114500000Y-50000000D03*
%TO.P,J3,4,Pin_4*%
%TO.N,DT*%
X114500000Y-47500000D03*
%TO.P,J3,5,Pin_5*%
%TO.N,CLK*%
X114500000Y-45000000D03*
%TD*%
D20*
%TO.P,J1,1,Pin_1*%
%TO.N,GND*%
X77540000Y-34500000D03*
D21*
%TO.P,J1,2,Pin_2*%
%TO.N,+5V*%
X72460000Y-34500000D03*
%TD*%
D22*
%TO.P,J4,1,Pin_1*%
%TO.N,+5V*%
X114800000Y-101100000D03*
D23*
%TO.P,J4,2,Pin_2*%
%TO.N,MISO*%
X114800000Y-98560000D03*
%TO.P,J4,3,Pin_3*%
%TO.N,MOSI*%
X114800000Y-96020000D03*
%TO.P,J4,4,Pin_4*%
%TO.N,SCK*%
X114800000Y-93480000D03*
%TO.P,J4,5,Pin_5*%
%TO.N,RST*%
X114800000Y-90940000D03*
%TO.P,J4,6,Pin_6*%
%TO.N,UART TX*%
X114800000Y-88400000D03*
%TO.P,J4,7,Pin_7*%
%TO.N,UART RX*%
X114800000Y-85860000D03*
%TO.P,J4,8,Pin_8*%
%TO.N,GND*%
X114800000Y-83320000D03*
%TD*%
D14*
%TO.P,C3,1*%
%TO.N,Net-(C3-Pad1)*%
X77675000Y-64745000D03*
%TO.P,C3,2*%
%TO.N,GND*%
X77675000Y-65705000D03*
%TD*%
D24*
%TO.P,H1,1,1*%
%TO.N,GND*%
X35000000Y-35000000D03*
%TD*%
%TO.P,H4,1,1*%
%TO.N,GND*%
X115000000Y-115000000D03*
%TD*%
D12*
%TO.P,J6,1,Pin_1*%
%TO.N,GND*%
X35000000Y-102500000D03*
D13*
%TO.P,J6,2,Pin_2*%
%TO.N,Bouton2*%
X35000000Y-100000000D03*
%TD*%
D25*
%TO.P,R13,1*%
%TO.N,RST*%
X100500000Y-87500000D03*
%TO.P,R13,2*%
%TO.N,+5V*%
X97575000Y-87500000D03*
%TD*%
D24*
%TO.P,H3,1,1*%
%TO.N,GND*%
X35000000Y-115000000D03*
%TD*%
D26*
%TO.P,Y1,1,1*%
%TO.N,Net-(C3-Pad1)*%
X76025000Y-64875000D03*
%TO.P,Y1,2,2*%
%TO.N,Net-(C4-Pad1)*%
X73825000Y-64875000D03*
%TO.P,Y1,3*%
%TO.N,N/C*%
X73825000Y-66575000D03*
%TO.P,Y1,4*%
X76025000Y-66575000D03*
%TD*%
D24*
%TO.P,H2,1,1*%
%TO.N,GND*%
X115000000Y-35000000D03*
%TD*%
D17*
%TO.P,R1,1*%
%TO.N,Bouton1*%
X43575000Y-79500000D03*
%TO.P,R1,2*%
%TO.N,+5V*%
X46500000Y-79500000D03*
%TD*%
D27*
%TO.P,TP1,1,1*%
%TO.N,Net-(C3-Pad1)*%
X76000000Y-62000000D03*
%TD*%
D28*
%TO.N,+5V*%
X95000000Y-87500000D03*
%TO.N,BUZZER*%
X66500000Y-78750000D03*
%TO.N,GND*%
X77900000Y-83400000D03*
X77100000Y-71900000D03*
X77100000Y-71000000D03*
X78700000Y-71000000D03*
X78700000Y-71800000D03*
X72500000Y-67000000D03*
X77500000Y-67000000D03*
%TO.N,+5V*%
X95120000Y-68880000D03*
%TO.N,SDA*%
X97500000Y-79000000D03*
%TO.N,SCL*%
X96500000Y-78000000D03*
%TO.N,MISO*%
X70000000Y-83000000D03*
%TO.N,Bouton1*%
X43500000Y-84316250D03*
X72000000Y-69500000D03*
%TO.N,Bouton2*%
X71000000Y-70500000D03*
X43537500Y-93537500D03*
%TO.N,SW*%
X87500000Y-73500000D03*
%TO.N,DT*%
X87500000Y-72000000D03*
%TO.N,CLK*%
X87500000Y-70500000D03*
%TD*%
D29*
%TO.N,+5V*%
X48920000Y-81920000D02*
X48920000Y-78330000D01*
X48920000Y-78330000D02*
X48920000Y-77830000D01*
X46500000Y-79500000D02*
X47750000Y-79500000D01*
X47750000Y-79500000D02*
X48920000Y-78330000D01*
X115000000Y-68550000D02*
X117050000Y-68550000D01*
X48920000Y-77830000D02*
X48920000Y-76920000D01*
D30*
%TO.N,GND*%
X77900000Y-81750000D02*
X77900000Y-83400000D01*
D31*
%TO.N,BUZZER*%
X69650000Y-78750000D02*
X69700000Y-78700000D01*
X66500000Y-78750000D02*
X69650000Y-78750000D01*
X69700000Y-78700000D02*
X73250000Y-78700000D01*
D29*
%TO.N,+5V*%
X48920000Y-95712500D02*
X48920000Y-86920000D01*
X48920000Y-86920000D02*
X48920000Y-81920000D01*
X60000000Y-116500000D02*
X60000000Y-98000000D01*
X60000000Y-98000000D02*
X48920000Y-86920000D01*
X62000000Y-52500000D02*
X69000000Y-52500000D01*
X69000000Y-52500000D02*
X76500000Y-52500000D01*
X72460000Y-34500000D02*
X72460000Y-49040000D01*
X72460000Y-49040000D02*
X69000000Y-52500000D01*
X48920000Y-76920000D02*
X48920000Y-65580000D01*
X119500000Y-54500000D02*
X119500000Y-71000000D01*
X119500000Y-71000000D02*
X119500000Y-99000000D01*
X117050000Y-68550000D02*
X119500000Y-71000000D01*
X114500000Y-52500000D02*
X117500000Y-52500000D01*
X117500000Y-52500000D02*
X119500000Y-54500000D01*
X119500000Y-99000000D02*
X117400000Y-101100000D01*
X117400000Y-101100000D02*
X114800000Y-101100000D01*
X95120000Y-68880000D02*
X95120000Y-55620000D01*
X95120000Y-55620000D02*
X92000000Y-52500000D01*
X92000000Y-52500000D02*
X90500000Y-52500000D01*
X76500000Y-52500000D02*
X82000000Y-52500000D01*
X79120000Y-68880000D02*
X82620000Y-68880000D01*
X82000000Y-52500000D02*
X90500000Y-52500000D01*
X78000000Y-70000000D02*
X79120000Y-68880000D01*
X82620000Y-68880000D02*
X85500000Y-66000000D01*
X85500000Y-66000000D02*
X85500000Y-56000000D01*
X85500000Y-56000000D02*
X82000000Y-52500000D01*
X90500000Y-52500000D02*
X114500000Y-52500000D01*
X48920000Y-65580000D02*
X62000000Y-52500000D01*
D31*
%TO.N,Net-(C3-Pad1)*%
X77675000Y-64745000D02*
X78745000Y-64745000D01*
X76250000Y-68500000D02*
X75500000Y-69250000D01*
X77000000Y-68500000D02*
X76250000Y-68500000D01*
X78745000Y-64745000D02*
X79000000Y-65000000D01*
X75500000Y-69250000D02*
X75500000Y-73250000D01*
X77675000Y-64745000D02*
X76205000Y-64745000D01*
X79000000Y-66500000D02*
X77000000Y-68500000D01*
X76205000Y-64745000D02*
X76000000Y-64950000D01*
X79000000Y-65000000D02*
X79000000Y-66500000D01*
X76000000Y-62000000D02*
X76000000Y-64950000D01*
D30*
%TO.N,GND*%
X78700000Y-73250000D02*
X78700000Y-71800000D01*
X77100000Y-73250000D02*
X77100000Y-71900000D01*
X78700000Y-71800000D02*
X78700000Y-71000000D01*
X77100000Y-71900000D02*
X77100000Y-71000000D01*
D31*
%TO.N,Net-(C4-Pad1)*%
X73625000Y-64725000D02*
X73850000Y-64950000D01*
X73000000Y-68500000D02*
X74000000Y-68500000D01*
X71275000Y-64725000D02*
X71000000Y-65000000D01*
X74700000Y-69200000D02*
X74700000Y-73250000D01*
X72175000Y-64725000D02*
X71275000Y-64725000D01*
X71000000Y-66500000D02*
X73000000Y-68500000D01*
X74000000Y-68500000D02*
X74700000Y-69200000D01*
X72175000Y-64725000D02*
X73625000Y-64725000D01*
X71000000Y-65000000D02*
X71000000Y-66500000D01*
D30*
%TO.N,+5V*%
X77900000Y-70100000D02*
X78000000Y-70000000D01*
X77100000Y-82900000D02*
X76000000Y-84000000D01*
X76300000Y-73250000D02*
X76300000Y-70200000D01*
X75500000Y-81750000D02*
X75500000Y-83500000D01*
X76300000Y-70200000D02*
X76500000Y-70000000D01*
D29*
X76000000Y-84000000D02*
X76000000Y-86500000D01*
D30*
X77100000Y-81750000D02*
X77100000Y-82900000D01*
X77900000Y-73250000D02*
X77900000Y-70100000D01*
D29*
X95000000Y-87500000D02*
X97575000Y-87500000D01*
D30*
X75500000Y-83500000D02*
X76000000Y-84000000D01*
D29*
X78000000Y-70000000D02*
X76500000Y-70000000D01*
X76000000Y-86500000D02*
X77000000Y-87500000D01*
X46462500Y-98170000D02*
X48920000Y-95712500D01*
X77000000Y-87500000D02*
X95000000Y-87500000D01*
D31*
%TO.N,SDA*%
X97500000Y-79000000D02*
X94000000Y-79000000D01*
X94000000Y-79000000D02*
X93700000Y-78700000D01*
X93700000Y-78700000D02*
X81750000Y-78700000D01*
%TO.N,SCL*%
X96400000Y-77900000D02*
X81750000Y-77900000D01*
X96500000Y-78000000D02*
X96400000Y-77900000D01*
%TO.N,MISO*%
X71000000Y-80500000D02*
X70000000Y-81500000D01*
X70000000Y-81500000D02*
X70000000Y-83000000D01*
X71200000Y-80300000D02*
X71000000Y-80500000D01*
X73250000Y-80300000D02*
X71200000Y-80300000D01*
%TO.N,MOSI*%
X68500000Y-81000000D02*
X70000000Y-79500000D01*
X114800000Y-96100000D02*
X113700000Y-95000000D01*
X113700000Y-95000000D02*
X72500000Y-95000000D01*
X72500000Y-95000000D02*
X68500000Y-91000000D01*
X70000000Y-79500000D02*
X73250000Y-79500000D01*
X68500000Y-91000000D02*
X68500000Y-81000000D01*
%TO.N,SCK*%
X114800000Y-93600000D02*
X79600000Y-93600000D01*
X74700000Y-88700000D02*
X74700000Y-81750000D01*
X79600000Y-93600000D02*
X74700000Y-88700000D01*
%TO.N,RST*%
X93100000Y-77100000D02*
X81750000Y-77100000D01*
X111600000Y-91100000D02*
X108000000Y-87500000D01*
X93400000Y-77100000D02*
X93100000Y-77100000D01*
X108000000Y-87500000D02*
X97600000Y-77100000D01*
X114800000Y-91100000D02*
X111600000Y-91100000D01*
X97600000Y-77100000D02*
X93600000Y-77100000D01*
X93600000Y-77100000D02*
X93400000Y-77100000D01*
X100500000Y-87500000D02*
X108000000Y-87500000D01*
%TO.N,UART TX*%
X115400000Y-88600000D02*
X114800000Y-88600000D01*
X100000000Y-75500000D02*
X81750000Y-75500000D01*
X117500000Y-86500000D02*
X115400000Y-88600000D01*
X117500000Y-81000000D02*
X117500000Y-86500000D01*
X100000000Y-75500000D02*
X112000000Y-75500000D01*
X112000000Y-75500000D02*
X117500000Y-81000000D01*
%TO.N,UART RX*%
X114800000Y-86100000D02*
X108100000Y-86100000D01*
X98300000Y-76300000D02*
X81750000Y-76300000D01*
X108100000Y-86100000D02*
X98300000Y-76300000D01*
%TO.N,Bouton1*%
X43537500Y-79420000D02*
X41707500Y-81250000D01*
X72000000Y-74500000D02*
X72200000Y-74700000D01*
X43500000Y-84316250D02*
X43500000Y-79683750D01*
X41707500Y-81250000D02*
X35000000Y-81250000D01*
X72000000Y-69500000D02*
X72000000Y-74500000D01*
X72200000Y-74700000D02*
X73250000Y-74700000D01*
%TO.N,Bouton2*%
X43537500Y-98170000D02*
X41707500Y-100000000D01*
X43537500Y-98170000D02*
X43537500Y-93537500D01*
X41707500Y-100000000D02*
X35000000Y-100000000D01*
X71000000Y-75000000D02*
X71000000Y-70500000D01*
X73250000Y-75500000D02*
X71500000Y-75500000D01*
X71500000Y-75500000D02*
X71000000Y-75000000D01*
%TO.N,SW*%
X86300000Y-74700000D02*
X87500000Y-73500000D01*
X81750000Y-74700000D02*
X86300000Y-74700000D01*
%TO.N,DT*%
X80500000Y-73050000D02*
X80500000Y-72000000D01*
X80500000Y-72000000D02*
X87500000Y-72000000D01*
X80300000Y-73250000D02*
X80500000Y-73050000D01*
%TO.N,CLK*%
X79500000Y-71500000D02*
X80500000Y-70500000D01*
X80500000Y-70500000D02*
X87500000Y-70500000D01*
X79500000Y-73250000D02*
X79500000Y-71500000D01*
%TD*%
%TA.AperFunction,Conductor*%
%TO.N,GND*%
G36*
X124433621Y-25528502D02*
G01*
X124480114Y-25582158D01*
X124491500Y-25634500D01*
X124491500Y-124365500D01*
X124471498Y-124433621D01*
X124417842Y-124480114D01*
X124365500Y-124491500D01*
X25634500Y-124491500D01*
X25566379Y-124471498D01*
X25519886Y-124417842D01*
X25508500Y-124365500D01*
X25508500Y-118186434D01*
X32178921Y-118186434D01*
X32185708Y-118196135D01*
X32385023Y-118366365D01*
X32389709Y-118370000D01*
X32713442Y-118597523D01*
X32718432Y-118600690D01*
X33062141Y-118796739D01*
X33067422Y-118799429D01*
X33428053Y-118962260D01*
X33433544Y-118964434D01*
X33807906Y-119092607D01*
X33813590Y-119094259D01*
X34198347Y-119186631D01*
X34204162Y-119187740D01*
X34595889Y-119243490D01*
X34601802Y-119244049D01*
X34997031Y-119262688D01*
X35002969Y-119262688D01*
X35398198Y-119244049D01*
X35404111Y-119243490D01*
X35795838Y-119187740D01*
X35801653Y-119186631D01*
X36186410Y-119094259D01*
X36192094Y-119092607D01*
X36566456Y-118964434D01*
X36571947Y-118962260D01*
X36932578Y-118799429D01*
X36937859Y-118796739D01*
X37281568Y-118600690D01*
X37286558Y-118597523D01*
X37610291Y-118370000D01*
X37614977Y-118366365D01*
X37812722Y-118197476D01*
X37819930Y-118186434D01*
X112178921Y-118186434D01*
X112185708Y-118196135D01*
X112385023Y-118366365D01*
X112389709Y-118370000D01*
X112713442Y-118597523D01*
X112718432Y-118600690D01*
X113062141Y-118796739D01*
X113067422Y-118799429D01*
X113428053Y-118962260D01*
X113433544Y-118964434D01*
X113807906Y-119092607D01*
X113813590Y-119094259D01*
X114198347Y-119186631D01*
X114204162Y-119187740D01*
X114595889Y-119243490D01*
X114601802Y-119244049D01*
X114997031Y-119262688D01*
X115002969Y-119262688D01*
X115398198Y-119244049D01*
X115404111Y-119243490D01*
X115795838Y-119187740D01*
X115801653Y-119186631D01*
X116186410Y-119094259D01*
X116192094Y-119092607D01*
X116566456Y-118964434D01*
X116571947Y-118962260D01*
X116932578Y-118799429D01*
X116937859Y-118796739D01*
X117281568Y-118600690D01*
X117286558Y-118597523D01*
X117610291Y-118370000D01*
X117614977Y-118366365D01*
X117812722Y-118197476D01*
X117821152Y-118184562D01*
X117815145Y-118174355D01*
X115012812Y-115372022D01*
X114998868Y-115364408D01*
X114997035Y-115364539D01*
X114990420Y-115368790D01*
X112186313Y-118172897D01*
X112178921Y-118186434D01*
X37819930Y-118186434D01*
X37821152Y-118184562D01*
X37815145Y-118174355D01*
X35012812Y-115372022D01*
X34998868Y-115364408D01*
X34997035Y-115364539D01*
X34990420Y-115368790D01*
X32186313Y-118172897D01*
X32178921Y-118186434D01*
X25508500Y-118186434D01*
X25508500Y-114869073D01*
X30739322Y-114869073D01*
X30745537Y-115264679D01*
X30745911Y-115270629D01*
X30789327Y-115663895D01*
X30790257Y-115669766D01*
X30870494Y-116057212D01*
X30871970Y-116062960D01*
X30988316Y-116441151D01*
X30990320Y-116446716D01*
X31141745Y-116812288D01*
X31144267Y-116817647D01*
X31329411Y-117167323D01*
X31332436Y-117172440D01*
X31549669Y-117503144D01*
X31553159Y-117507947D01*
X31800292Y-117816420D01*
X31813130Y-117823694D01*
X31814439Y-117823621D01*
X31821852Y-117818938D01*
X34627978Y-115012812D01*
X34634356Y-115001132D01*
X35364408Y-115001132D01*
X35364539Y-115002965D01*
X35368790Y-115009580D01*
X38175271Y-117816061D01*
X38189215Y-117823675D01*
X38190524Y-117823582D01*
X38197360Y-117819112D01*
X38199454Y-117816737D01*
X38446841Y-117507947D01*
X38450331Y-117503144D01*
X38667564Y-117172440D01*
X38670589Y-117167323D01*
X38855733Y-116817647D01*
X38858255Y-116812288D01*
X38875691Y-116770193D01*
X53649410Y-116770193D01*
X53656124Y-116849325D01*
X53657914Y-116859797D01*
X53713130Y-117072535D01*
X53716665Y-117082575D01*
X53806937Y-117282970D01*
X53812106Y-117292256D01*
X53934850Y-117474575D01*
X53941519Y-117482870D01*
X54093228Y-117641900D01*
X54101186Y-117648941D01*
X54277525Y-117780141D01*
X54286562Y-117785745D01*
X54482484Y-117885357D01*
X54492335Y-117889357D01*
X54702240Y-117954534D01*
X54712624Y-117956817D01*
X54728043Y-117958861D01*
X54742207Y-117956665D01*
X54746000Y-117943478D01*
X54746000Y-116772115D01*
X54741525Y-116756876D01*
X54740135Y-116755671D01*
X54732452Y-116754000D01*
X53666151Y-116754000D01*
X53651473Y-116758310D01*
X53649410Y-116770193D01*
X38875691Y-116770193D01*
X39009680Y-116446716D01*
X39011684Y-116441151D01*
X39077204Y-116228174D01*
X53646496Y-116228174D01*
X53647915Y-116241414D01*
X53662550Y-116246000D01*
X54727885Y-116246000D01*
X54743124Y-116241525D01*
X54744329Y-116240135D01*
X54746000Y-116232452D01*
X54746000Y-115058808D01*
X54742027Y-115045277D01*
X54731420Y-115043752D01*
X54613579Y-115068477D01*
X54603383Y-115071537D01*
X54398971Y-115152263D01*
X54389439Y-115156994D01*
X54201538Y-115271016D01*
X54192948Y-115277280D01*
X54026948Y-115421327D01*
X54019528Y-115428958D01*
X53880174Y-115598911D01*
X53874150Y-115607678D01*
X53765424Y-115798682D01*
X53760959Y-115808346D01*
X53685969Y-116014941D01*
X53683198Y-116025208D01*
X53646496Y-116228174D01*
X39077204Y-116228174D01*
X39128030Y-116062960D01*
X39129506Y-116057212D01*
X39209743Y-115669766D01*
X39210673Y-115663895D01*
X39254145Y-115270124D01*
X39254494Y-115265196D01*
X39262750Y-115002468D01*
X39262711Y-114997530D01*
X39244049Y-114601802D01*
X39243490Y-114595889D01*
X39187740Y-114204162D01*
X39186631Y-114198347D01*
X39094259Y-113813590D01*
X39092607Y-113807906D01*
X38964434Y-113433544D01*
X38962260Y-113428053D01*
X38799429Y-113067422D01*
X38796739Y-113062141D01*
X38600690Y-112718432D01*
X38597523Y-112713442D01*
X38370000Y-112389709D01*
X38366365Y-112385023D01*
X38197476Y-112187278D01*
X38184562Y-112178848D01*
X38174355Y-112184855D01*
X35372022Y-114987188D01*
X35364408Y-115001132D01*
X34634356Y-115001132D01*
X34635592Y-114998868D01*
X34635461Y-114997035D01*
X34631210Y-114990420D01*
X31827402Y-112186612D01*
X31813458Y-112178998D01*
X31813205Y-112179016D01*
X31804463Y-112184930D01*
X31717436Y-112280572D01*
X31713649Y-112285150D01*
X31476088Y-112601551D01*
X31472744Y-112606471D01*
X31266001Y-112943845D01*
X31263153Y-112949025D01*
X31089072Y-113304370D01*
X31086723Y-113309797D01*
X30946858Y-113679939D01*
X30945026Y-113685578D01*
X30840622Y-114067215D01*
X30839323Y-114073028D01*
X30771295Y-114462811D01*
X30770554Y-114468674D01*
X30739507Y-114863147D01*
X30739322Y-114869073D01*
X25508500Y-114869073D01*
X25508500Y-111815964D01*
X32178939Y-111815964D01*
X32178945Y-111816217D01*
X32184445Y-111825235D01*
X34987188Y-114627978D01*
X35001132Y-114635592D01*
X35002965Y-114635461D01*
X35009580Y-114631210D01*
X37816061Y-111824729D01*
X37823675Y-111810785D01*
X37823582Y-111809476D01*
X37819112Y-111802640D01*
X37816737Y-111800546D01*
X37507947Y-111553159D01*
X37503144Y-111549669D01*
X37172440Y-111332436D01*
X37167323Y-111329411D01*
X36817647Y-111144267D01*
X36812288Y-111141745D01*
X36446716Y-110990320D01*
X36441151Y-110988316D01*
X36062960Y-110871970D01*
X36057212Y-110870494D01*
X35669766Y-110790257D01*
X35663895Y-110789327D01*
X35270629Y-110745911D01*
X35264679Y-110745537D01*
X34869073Y-110739322D01*
X34863147Y-110739507D01*
X34468674Y-110770554D01*
X34462811Y-110771295D01*
X34073028Y-110839323D01*
X34067215Y-110840622D01*
X33685578Y-110945026D01*
X33679939Y-110946858D01*
X33309797Y-111086723D01*
X33304370Y-111089072D01*
X32949025Y-111263153D01*
X32943845Y-111266001D01*
X32606471Y-111472744D01*
X32601551Y-111476088D01*
X32285150Y-111713649D01*
X32280572Y-111717436D01*
X32187199Y-111802398D01*
X32178939Y-111815964D01*
X25508500Y-111815964D01*
X25508500Y-103147095D01*
X33492001Y-103147095D01*
X33492338Y-103153614D01*
X33502257Y-103249206D01*
X33505149Y-103262600D01*
X33556588Y-103416784D01*
X33562761Y-103429962D01*
X33648063Y-103567807D01*
X33657099Y-103579208D01*
X33771829Y-103693739D01*
X33783240Y-103702751D01*
X33921243Y-103787816D01*
X33934424Y-103793963D01*
X34088710Y-103845138D01*
X34102086Y-103848005D01*
X34196438Y-103857672D01*
X34202854Y-103858000D01*
X34727885Y-103858000D01*
X34743124Y-103853525D01*
X34744329Y-103852135D01*
X34746000Y-103844452D01*
X34746000Y-103839884D01*
X35254000Y-103839884D01*
X35258475Y-103855123D01*
X35259865Y-103856328D01*
X35267548Y-103857999D01*
X35797095Y-103857999D01*
X35803614Y-103857662D01*
X35899206Y-103847743D01*
X35912600Y-103844851D01*
X36066784Y-103793412D01*
X36079962Y-103787239D01*
X36217807Y-103701937D01*
X36229208Y-103692901D01*
X36343739Y-103578171D01*
X36352751Y-103566760D01*
X36437816Y-103428757D01*
X36443963Y-103415576D01*
X36495138Y-103261290D01*
X36498005Y-103247914D01*
X36507672Y-103153562D01*
X36508000Y-103147146D01*
X36508000Y-102772115D01*
X36503525Y-102756876D01*
X36502135Y-102755671D01*
X36494452Y-102754000D01*
X35272115Y-102754000D01*
X35256876Y-102758475D01*
X35255671Y-102759865D01*
X35254000Y-102767548D01*
X35254000Y-103839884D01*
X34746000Y-103839884D01*
X34746000Y-102772115D01*
X34741525Y-102756876D01*
X34740135Y-102755671D01*
X34732452Y-102754000D01*
X33510116Y-102754000D01*
X33494877Y-102758475D01*
X33493672Y-102759865D01*
X33492001Y-102767548D01*
X33492001Y-103147095D01*
X25508500Y-103147095D01*
X25508500Y-99935774D01*
X33488102Y-99935774D01*
X33488302Y-99941103D01*
X33488302Y-99941105D01*
X33492427Y-100050966D01*
X33496751Y-100166158D01*
X33544093Y-100391791D01*
X33546051Y-100396750D01*
X33546052Y-100396752D01*
X33622184Y-100589528D01*
X33628776Y-100606221D01*
X33631543Y-100610780D01*
X33631544Y-100610783D01*
X33658717Y-100655562D01*
X33748377Y-100803317D01*
X33751874Y-100807347D01*
X33838438Y-100907103D01*
X33899477Y-100977445D01*
X33903608Y-100980832D01*
X33935529Y-101007006D01*
X33975524Y-101065666D01*
X33977455Y-101136636D01*
X33940710Y-101197384D01*
X33921941Y-101211584D01*
X33782193Y-101298063D01*
X33770792Y-101307099D01*
X33656261Y-101421829D01*
X33647249Y-101433240D01*
X33562184Y-101571243D01*
X33556037Y-101584424D01*
X33504862Y-101738710D01*
X33501995Y-101752086D01*
X33492328Y-101846438D01*
X33492000Y-101852855D01*
X33492000Y-102227885D01*
X33496475Y-102243124D01*
X33497865Y-102244329D01*
X33505548Y-102246000D01*
X36489884Y-102246000D01*
X36505123Y-102241525D01*
X36506328Y-102240135D01*
X36507999Y-102232452D01*
X36507999Y-101852905D01*
X36507662Y-101846386D01*
X36497743Y-101750794D01*
X36494851Y-101737400D01*
X36443412Y-101583216D01*
X36437239Y-101570038D01*
X36351937Y-101432193D01*
X36342901Y-101420792D01*
X36228171Y-101306261D01*
X36216757Y-101297247D01*
X36077287Y-101211277D01*
X36029793Y-101158505D01*
X36018369Y-101088434D01*
X36046643Y-101023310D01*
X36056430Y-101012847D01*
X36089991Y-100980832D01*
X36171135Y-100903424D01*
X36308754Y-100718458D01*
X36309344Y-100717298D01*
X36361336Y-100670750D01*
X36415529Y-100658500D01*
X41625444Y-100658500D01*
X41637300Y-100659059D01*
X41637303Y-100659059D01*
X41645037Y-100660788D01*
X41715869Y-100658562D01*
X41719827Y-100658500D01*
X41748932Y-100658500D01*
X41753332Y-100657944D01*
X41765164Y-100657012D01*
X41811331Y-100655562D01*
X41831921Y-100649580D01*
X41851282Y-100645570D01*
X41858270Y-100644688D01*
X41864704Y-100643875D01*
X41864705Y-100643875D01*
X41872564Y-100642882D01*
X41879929Y-100639966D01*
X41879933Y-100639965D01*
X41915521Y-100625874D01*
X41926731Y-100622035D01*
X41971100Y-100609145D01*
X41989565Y-100598225D01*
X42007305Y-100589534D01*
X42027256Y-100581635D01*
X42064629Y-100554482D01*
X42074548Y-100547967D01*
X42107477Y-100528493D01*
X42107481Y-100528490D01*
X42114307Y-100524453D01*
X42129471Y-100509289D01*
X42144505Y-100496448D01*
X42155443Y-100488501D01*
X42161857Y-100483841D01*
X42191303Y-100448247D01*
X42199292Y-100439468D01*
X43051209Y-99587551D01*
X43113521Y-99553525D01*
X43153146Y-99551302D01*
X43163310Y-99552343D01*
X43174600Y-99553500D01*
X43900400Y-99553500D01*
X43903646Y-99553163D01*
X43903650Y-99553163D01*
X43999308Y-99543238D01*
X43999312Y-99543237D01*
X44006166Y-99542526D01*
X44012702Y-99540345D01*
X44012704Y-99540345D01*
X44158665Y-99491648D01*
X44173946Y-99486550D01*
X44324348Y-99393478D01*
X44449305Y-99268303D01*
X44453146Y-99262072D01*
X44538275Y-99123968D01*
X44538276Y-99123966D01*
X44542115Y-99117738D01*
X44590313Y-98972425D01*
X44595632Y-98956389D01*
X44595632Y-98956387D01*
X44597797Y-98949861D01*
X44598693Y-98941122D01*
X44608172Y-98848598D01*
X44608500Y-98845400D01*
X45391500Y-98845400D01*
X45391837Y-98848646D01*
X45391837Y-98848650D01*
X45401432Y-98941122D01*
X45402474Y-98951166D01*
X45404655Y-98957702D01*
X45404655Y-98957704D01*
X45425161Y-99019168D01*
X45458450Y-99118946D01*
X45551522Y-99269348D01*
X45676697Y-99394305D01*
X45682927Y-99398145D01*
X45682928Y-99398146D01*
X45820090Y-99482694D01*
X45827262Y-99487115D01*
X45874126Y-99502659D01*
X45988611Y-99540632D01*
X45988613Y-99540632D01*
X45995139Y-99542797D01*
X46001975Y-99543497D01*
X46001978Y-99543498D01*
X46043256Y-99547727D01*
X46099600Y-99553500D01*
X46825400Y-99553500D01*
X46828646Y-99553163D01*
X46828650Y-99553163D01*
X46924308Y-99543238D01*
X46924312Y-99543237D01*
X46931166Y-99542526D01*
X46937702Y-99540345D01*
X46937704Y-99540345D01*
X47083665Y-99491648D01*
X47098946Y-99486550D01*
X47249348Y-99393478D01*
X47374305Y-99268303D01*
X47378146Y-99262072D01*
X47463275Y-99123968D01*
X47463276Y-99123966D01*
X47467115Y-99117738D01*
X47515313Y-98972425D01*
X47520632Y-98956389D01*
X47520632Y-98956387D01*
X47522797Y-98949861D01*
X47523693Y-98941122D01*
X47533172Y-98848598D01*
X47533500Y-98845400D01*
X47533500Y-98436003D01*
X47553502Y-98367882D01*
X47570405Y-98346908D01*
X49504832Y-96412481D01*
X49519865Y-96399640D01*
X49525913Y-96395246D01*
X49525914Y-96395245D01*
X49531253Y-96391366D01*
X49577016Y-96340541D01*
X49581557Y-96335756D01*
X49596072Y-96321241D01*
X49602727Y-96313023D01*
X49608994Y-96305284D01*
X49613278Y-96300269D01*
X49654619Y-96254355D01*
X49654623Y-96254350D01*
X49659040Y-96249444D01*
X49662340Y-96243728D01*
X49662343Y-96243724D01*
X49666073Y-96237263D01*
X49677273Y-96220966D01*
X49681975Y-96215160D01*
X49681976Y-96215158D01*
X49686129Y-96210030D01*
X49717188Y-96149074D01*
X49720336Y-96143277D01*
X49751224Y-96089777D01*
X49754527Y-96084056D01*
X49758875Y-96070674D01*
X49766438Y-96052415D01*
X49772830Y-96039870D01*
X49790537Y-95973788D01*
X49792409Y-95967469D01*
X49811501Y-95908710D01*
X49811501Y-95908709D01*
X49813542Y-95902428D01*
X49815014Y-95888425D01*
X49818615Y-95868996D01*
X49822257Y-95855403D01*
X49822603Y-95848804D01*
X49825836Y-95787116D01*
X49826353Y-95780542D01*
X49828156Y-95763384D01*
X49828156Y-95763382D01*
X49828500Y-95760110D01*
X49828500Y-95739574D01*
X49828673Y-95732980D01*
X49831907Y-95671282D01*
X49831907Y-95671277D01*
X49832252Y-95664690D01*
X49830051Y-95650792D01*
X49828500Y-95631083D01*
X49828500Y-89417503D01*
X49848502Y-89349382D01*
X49902158Y-89302889D01*
X49972432Y-89292785D01*
X50037012Y-89322279D01*
X50043595Y-89328408D01*
X59054595Y-98339408D01*
X59088621Y-98401720D01*
X59091500Y-98428503D01*
X59091500Y-115003689D01*
X59071498Y-115071810D01*
X59031804Y-115110833D01*
X58925652Y-115176522D01*
X58800695Y-115301697D01*
X58727170Y-115420977D01*
X58710920Y-115447339D01*
X58658148Y-115494832D01*
X58588076Y-115506256D01*
X58522952Y-115477982D01*
X58512490Y-115468195D01*
X58420745Y-115372022D01*
X58403424Y-115353865D01*
X58218458Y-115216246D01*
X58213707Y-115213830D01*
X58213703Y-115213828D01*
X58095588Y-115153776D01*
X58012949Y-115111760D01*
X58007855Y-115110178D01*
X58007852Y-115110177D01*
X57797871Y-115044976D01*
X57792773Y-115043393D01*
X57787484Y-115042692D01*
X57569511Y-115013802D01*
X57569506Y-115013802D01*
X57564226Y-115013102D01*
X57558897Y-115013302D01*
X57558895Y-115013302D01*
X57449034Y-115017427D01*
X57333842Y-115021751D01*
X57108209Y-115069093D01*
X57103250Y-115071051D01*
X57103248Y-115071052D01*
X56898744Y-115151815D01*
X56898742Y-115151816D01*
X56893779Y-115153776D01*
X56889220Y-115156543D01*
X56889217Y-115156544D01*
X56794113Y-115214255D01*
X56696683Y-115273377D01*
X56692653Y-115276874D01*
X56591628Y-115364539D01*
X56522555Y-115424477D01*
X56503809Y-115447339D01*
X56379760Y-115598627D01*
X56379756Y-115598633D01*
X56376376Y-115602755D01*
X56373733Y-115607398D01*
X56358171Y-115634735D01*
X56307088Y-115684041D01*
X56237458Y-115697902D01*
X56171387Y-115671918D01*
X56144149Y-115642768D01*
X56065148Y-115525422D01*
X56058481Y-115517130D01*
X55906772Y-115358100D01*
X55898814Y-115351059D01*
X55722475Y-115219859D01*
X55713438Y-115214255D01*
X55517516Y-115114643D01*
X55507665Y-115110643D01*
X55297760Y-115045466D01*
X55287376Y-115043183D01*
X55271957Y-115041139D01*
X55257793Y-115043335D01*
X55254000Y-115056522D01*
X55254000Y-117941192D01*
X55257973Y-117954723D01*
X55268580Y-117956248D01*
X55386421Y-117931523D01*
X55396617Y-117928463D01*
X55601029Y-117847737D01*
X55610561Y-117843006D01*
X55798462Y-117728984D01*
X55807052Y-117722720D01*
X55973052Y-117578673D01*
X55980472Y-117571042D01*
X56119826Y-117401089D01*
X56125848Y-117392326D01*
X56141238Y-117365289D01*
X56192320Y-117315982D01*
X56261951Y-117302120D01*
X56328022Y-117328103D01*
X56355261Y-117357253D01*
X56384773Y-117401089D01*
X56437441Y-117479319D01*
X56441120Y-117483176D01*
X56441122Y-117483178D01*
X56502710Y-117547738D01*
X56596576Y-117646135D01*
X56781542Y-117783754D01*
X56786293Y-117786170D01*
X56786297Y-117786172D01*
X56860061Y-117823675D01*
X56987051Y-117888240D01*
X56992145Y-117889822D01*
X56992148Y-117889823D01*
X57157583Y-117941192D01*
X57207227Y-117956607D01*
X57212516Y-117957308D01*
X57430489Y-117986198D01*
X57430494Y-117986198D01*
X57435774Y-117986898D01*
X57441103Y-117986698D01*
X57441105Y-117986698D01*
X57550966Y-117982574D01*
X57666158Y-117978249D01*
X57688802Y-117973498D01*
X57886572Y-117932002D01*
X57891791Y-117930907D01*
X57896750Y-117928949D01*
X57896752Y-117928948D01*
X58101256Y-117848185D01*
X58101258Y-117848184D01*
X58106221Y-117846224D01*
X58111525Y-117843006D01*
X58298757Y-117729390D01*
X58298756Y-117729390D01*
X58303317Y-117726623D01*
X58343134Y-117692072D01*
X58473412Y-117579023D01*
X58473414Y-117579021D01*
X58477445Y-117575523D01*
X58506670Y-117539880D01*
X58565329Y-117499886D01*
X58636299Y-117497954D01*
X58697048Y-117534698D01*
X58711248Y-117553468D01*
X58727062Y-117579023D01*
X58801522Y-117699348D01*
X58926697Y-117824305D01*
X58932927Y-117828145D01*
X58932928Y-117828146D01*
X59070090Y-117912694D01*
X59077262Y-117917115D01*
X59112938Y-117928948D01*
X59238611Y-117970632D01*
X59238613Y-117970632D01*
X59245139Y-117972797D01*
X59251975Y-117973497D01*
X59251978Y-117973498D01*
X59287663Y-117977154D01*
X59349600Y-117983500D01*
X60650400Y-117983500D01*
X60653646Y-117983163D01*
X60653650Y-117983163D01*
X60749308Y-117973238D01*
X60749312Y-117973237D01*
X60756166Y-117972526D01*
X60762702Y-117970345D01*
X60762704Y-117970345D01*
X60894806Y-117926272D01*
X60923946Y-117916550D01*
X61074348Y-117823478D01*
X61199305Y-117698303D01*
X61231462Y-117646135D01*
X61288275Y-117553968D01*
X61288276Y-117553966D01*
X61292115Y-117547738D01*
X61347797Y-117379861D01*
X61350114Y-117357253D01*
X61358172Y-117278598D01*
X61358500Y-117275400D01*
X61358500Y-115724600D01*
X61352811Y-115669766D01*
X61348238Y-115625692D01*
X61348237Y-115625688D01*
X61347526Y-115618834D01*
X61340785Y-115598627D01*
X61293868Y-115458002D01*
X61291550Y-115451054D01*
X61198478Y-115300652D01*
X61073303Y-115175695D01*
X61042235Y-115156544D01*
X61034194Y-115151588D01*
X60968383Y-115111021D01*
X60920891Y-115058250D01*
X60908500Y-115003762D01*
X60908500Y-114869073D01*
X110739322Y-114869073D01*
X110745537Y-115264679D01*
X110745911Y-115270629D01*
X110789327Y-115663895D01*
X110790257Y-115669766D01*
X110870494Y-116057212D01*
X110871970Y-116062960D01*
X110988316Y-116441151D01*
X110990320Y-116446716D01*
X111141745Y-116812288D01*
X111144267Y-116817647D01*
X111329411Y-117167323D01*
X111332436Y-117172440D01*
X111549669Y-117503144D01*
X111553159Y-117507947D01*
X111800292Y-117816420D01*
X111813130Y-117823694D01*
X111814439Y-117823621D01*
X111821852Y-117818938D01*
X114627978Y-115012812D01*
X114634356Y-115001132D01*
X115364408Y-115001132D01*
X115364539Y-115002965D01*
X115368790Y-115009580D01*
X118175271Y-117816061D01*
X118189215Y-117823675D01*
X118190524Y-117823582D01*
X118197360Y-117819112D01*
X118199454Y-117816737D01*
X118446841Y-117507947D01*
X118450331Y-117503144D01*
X118667564Y-117172440D01*
X118670589Y-117167323D01*
X118855733Y-116817647D01*
X118858255Y-116812288D01*
X119009680Y-116446716D01*
X119011684Y-116441151D01*
X119128030Y-116062960D01*
X119129506Y-116057212D01*
X119209743Y-115669766D01*
X119210673Y-115663895D01*
X119254145Y-115270124D01*
X119254494Y-115265196D01*
X119262750Y-115002468D01*
X119262711Y-114997530D01*
X119244049Y-114601802D01*
X119243490Y-114595889D01*
X119187740Y-114204162D01*
X119186631Y-114198347D01*
X119094259Y-113813590D01*
X119092607Y-113807906D01*
X118964434Y-113433544D01*
X118962260Y-113428053D01*
X118799429Y-113067422D01*
X118796739Y-113062141D01*
X118600690Y-112718432D01*
X118597523Y-112713442D01*
X118370000Y-112389709D01*
X118366365Y-112385023D01*
X118197476Y-112187278D01*
X118184562Y-112178848D01*
X118174355Y-112184855D01*
X115372022Y-114987188D01*
X115364408Y-115001132D01*
X114634356Y-115001132D01*
X114635592Y-114998868D01*
X114635461Y-114997035D01*
X114631210Y-114990420D01*
X111827402Y-112186612D01*
X111813458Y-112178998D01*
X111813205Y-112179016D01*
X111804463Y-112184930D01*
X111717436Y-112280572D01*
X111713649Y-112285150D01*
X111476088Y-112601551D01*
X111472744Y-112606471D01*
X111266001Y-112943845D01*
X111263153Y-112949025D01*
X111089072Y-113304370D01*
X111086723Y-113309797D01*
X110946858Y-113679939D01*
X110945026Y-113685578D01*
X110840622Y-114067215D01*
X110839323Y-114073028D01*
X110771295Y-114462811D01*
X110770554Y-114468674D01*
X110739507Y-114863147D01*
X110739322Y-114869073D01*
X60908500Y-114869073D01*
X60908500Y-111815964D01*
X112178939Y-111815964D01*
X112178945Y-111816217D01*
X112184445Y-111825235D01*
X114987188Y-114627978D01*
X115001132Y-114635592D01*
X115002965Y-114635461D01*
X115009580Y-114631210D01*
X117816061Y-111824729D01*
X117823675Y-111810785D01*
X117823582Y-111809476D01*
X117819112Y-111802640D01*
X117816737Y-111800546D01*
X117507947Y-111553159D01*
X117503144Y-111549669D01*
X117172440Y-111332436D01*
X117167323Y-111329411D01*
X116817647Y-111144267D01*
X116812288Y-111141745D01*
X116446716Y-110990320D01*
X116441151Y-110988316D01*
X116062960Y-110871970D01*
X116057212Y-110870494D01*
X115669766Y-110790257D01*
X115663895Y-110789327D01*
X115270629Y-110745911D01*
X115264679Y-110745537D01*
X114869073Y-110739322D01*
X114863147Y-110739507D01*
X114468674Y-110770554D01*
X114462811Y-110771295D01*
X114073028Y-110839323D01*
X114067215Y-110840622D01*
X113685578Y-110945026D01*
X113679939Y-110946858D01*
X113309797Y-111086723D01*
X113304370Y-111089072D01*
X112949025Y-111263153D01*
X112943845Y-111266001D01*
X112606471Y-111472744D01*
X112601551Y-111476088D01*
X112285150Y-111713649D01*
X112280572Y-111717436D01*
X112187199Y-111802398D01*
X112178939Y-111815964D01*
X60908500Y-111815964D01*
X60908500Y-98081416D01*
X60910051Y-98061704D01*
X60911220Y-98054324D01*
X60912252Y-98047809D01*
X60908673Y-97979519D01*
X60908500Y-97972925D01*
X60908500Y-97952390D01*
X60906353Y-97931960D01*
X60905836Y-97925385D01*
X60902603Y-97863696D01*
X60902603Y-97863695D01*
X60902257Y-97857096D01*
X60898616Y-97843508D01*
X60895012Y-97824061D01*
X60894233Y-97816644D01*
X60894232Y-97816640D01*
X60893542Y-97810072D01*
X60872402Y-97745009D01*
X60870529Y-97738685D01*
X60854539Y-97679010D01*
X60854538Y-97679006D01*
X60852829Y-97672630D01*
X60846440Y-97660092D01*
X60838875Y-97641826D01*
X60836569Y-97634728D01*
X60836568Y-97634726D01*
X60834527Y-97628444D01*
X60800331Y-97569215D01*
X60797185Y-97563421D01*
X60766129Y-97502470D01*
X60757273Y-97491533D01*
X60746073Y-97475237D01*
X60742343Y-97468776D01*
X60742340Y-97468772D01*
X60739040Y-97463056D01*
X60734623Y-97458150D01*
X60734619Y-97458145D01*
X60693278Y-97412231D01*
X60688994Y-97407216D01*
X60678148Y-97393823D01*
X60676072Y-97391259D01*
X60661557Y-97376744D01*
X60657016Y-97371959D01*
X60615673Y-97326043D01*
X60611253Y-97321134D01*
X60599865Y-97312860D01*
X60584832Y-97300019D01*
X49865405Y-86580592D01*
X49831379Y-86518280D01*
X49828500Y-86491497D01*
X49828500Y-78357074D01*
X49828673Y-78350480D01*
X49831907Y-78288782D01*
X49831907Y-78288777D01*
X49832252Y-78282190D01*
X49830051Y-78268292D01*
X49828500Y-78248583D01*
X49828500Y-66008503D01*
X49848502Y-65940382D01*
X49865405Y-65919408D01*
X62339408Y-53445405D01*
X62401720Y-53411379D01*
X62428503Y-53408500D01*
X68918583Y-53408500D01*
X68938292Y-53410051D01*
X68952190Y-53412252D01*
X68958777Y-53411907D01*
X68958782Y-53411907D01*
X69020480Y-53408673D01*
X69027074Y-53408500D01*
X81571497Y-53408500D01*
X81639618Y-53428502D01*
X81660592Y-53445405D01*
X84554595Y-56339408D01*
X84588621Y-56401720D01*
X84591500Y-56428503D01*
X84591500Y-65571497D01*
X84571498Y-65639618D01*
X84554595Y-65660592D01*
X82280592Y-67934595D01*
X82218280Y-67968621D01*
X82191497Y-67971500D01*
X79201416Y-67971500D01*
X79181707Y-67969949D01*
X79167809Y-67967748D01*
X79161222Y-67968093D01*
X79161217Y-67968093D01*
X79099519Y-67971327D01*
X79092925Y-67971500D01*
X79072390Y-67971500D01*
X79066222Y-67972148D01*
X79051960Y-67973647D01*
X79045385Y-67974164D01*
X78983696Y-67977397D01*
X78983695Y-67977397D01*
X78977096Y-67977743D01*
X78963508Y-67981384D01*
X78944061Y-67984988D01*
X78936644Y-67985767D01*
X78936640Y-67985768D01*
X78930072Y-67986458D01*
X78880256Y-68002644D01*
X78865009Y-68007598D01*
X78858685Y-68009471D01*
X78799010Y-68025461D01*
X78799006Y-68025462D01*
X78792630Y-68027171D01*
X78786748Y-68030168D01*
X78780093Y-68033559D01*
X78761826Y-68041125D01*
X78754728Y-68043431D01*
X78754726Y-68043432D01*
X78748444Y-68045473D01*
X78719228Y-68062341D01*
X78650233Y-68079078D01*
X78583141Y-68055857D01*
X78539254Y-68000050D01*
X78532506Y-67929374D01*
X78567134Y-67864126D01*
X79407605Y-67023655D01*
X79416385Y-67015665D01*
X79416387Y-67015663D01*
X79423080Y-67011416D01*
X79471605Y-66959742D01*
X79474359Y-66956901D01*
X79494927Y-66936333D01*
X79497647Y-66932826D01*
X79505353Y-66923804D01*
X79531544Y-66895913D01*
X79536972Y-66890133D01*
X79540794Y-66883181D01*
X79547303Y-66871342D01*
X79558157Y-66854818D01*
X79566443Y-66844135D01*
X79566444Y-66844134D01*
X79571304Y-66837868D01*
X79589654Y-66795464D01*
X79594869Y-66784819D01*
X79617124Y-66744337D01*
X79619094Y-66736663D01*
X79619097Y-66736656D01*
X79622455Y-66723574D01*
X79628861Y-66704862D01*
X79637380Y-66685177D01*
X79639399Y-66672433D01*
X79644607Y-66639544D01*
X79647012Y-66627930D01*
X79658500Y-66583188D01*
X79658500Y-66561742D01*
X79660051Y-66542032D01*
X79662166Y-66528678D01*
X79662166Y-66528677D01*
X79663406Y-66520848D01*
X79659059Y-66474859D01*
X79658500Y-66463004D01*
X79658500Y-65082056D01*
X79659059Y-65070200D01*
X79659059Y-65070197D01*
X79660788Y-65062463D01*
X79658562Y-64991631D01*
X79658500Y-64987673D01*
X79658500Y-64958568D01*
X79657944Y-64954168D01*
X79657012Y-64942330D01*
X79656211Y-64916812D01*
X79655562Y-64896169D01*
X79649580Y-64875579D01*
X79645570Y-64856216D01*
X79643875Y-64842796D01*
X79643875Y-64842795D01*
X79642882Y-64834936D01*
X79639966Y-64827571D01*
X79639965Y-64827567D01*
X79625876Y-64791982D01*
X79622031Y-64780753D01*
X79611356Y-64744010D01*
X79609145Y-64736399D01*
X79598230Y-64717943D01*
X79589531Y-64700187D01*
X79586111Y-64691550D01*
X79581635Y-64680244D01*
X79554480Y-64642868D01*
X79547965Y-64632949D01*
X79528492Y-64600023D01*
X79528489Y-64600019D01*
X79524452Y-64593193D01*
X79509291Y-64578032D01*
X79496449Y-64562997D01*
X79494896Y-64560859D01*
X79483841Y-64545643D01*
X79448244Y-64516194D01*
X79439465Y-64508205D01*
X79268657Y-64337397D01*
X79260668Y-64328618D01*
X79260663Y-64328612D01*
X79256416Y-64321920D01*
X79204741Y-64273394D01*
X79201900Y-64270640D01*
X79181333Y-64250073D01*
X79177826Y-64247353D01*
X79168804Y-64239647D01*
X79150784Y-64222725D01*
X79135133Y-64208028D01*
X79128181Y-64204206D01*
X79116342Y-64197697D01*
X79099818Y-64186843D01*
X79089132Y-64178555D01*
X79082868Y-64173696D01*
X79075596Y-64170549D01*
X79075594Y-64170548D01*
X79040465Y-64155346D01*
X79029805Y-64150124D01*
X78996284Y-64131695D01*
X78996282Y-64131694D01*
X78989337Y-64127876D01*
X78968559Y-64122541D01*
X78949869Y-64116142D01*
X78930176Y-64107620D01*
X78884552Y-64100394D01*
X78872929Y-64097987D01*
X78844928Y-64090798D01*
X78828188Y-64086500D01*
X78806741Y-64086500D01*
X78787031Y-64084949D01*
X78773677Y-64082834D01*
X78765848Y-64081594D01*
X78719859Y-64085941D01*
X78708004Y-64086500D01*
X78276697Y-64086500D01*
X78212558Y-64068953D01*
X78111426Y-64009144D01*
X78111422Y-64009142D01*
X78104597Y-64005106D01*
X78096986Y-64002895D01*
X78096984Y-64002894D01*
X78028142Y-63982894D01*
X77947254Y-63959394D01*
X77940849Y-63958890D01*
X77940844Y-63958889D01*
X77912940Y-63956693D01*
X77912932Y-63956693D01*
X77910484Y-63956500D01*
X77439516Y-63956500D01*
X77437068Y-63956693D01*
X77437060Y-63956693D01*
X77409156Y-63958889D01*
X77409151Y-63958890D01*
X77402746Y-63959394D01*
X77257526Y-64001584D01*
X77186529Y-64001381D01*
X77126913Y-63962827D01*
X77121547Y-63956152D01*
X77093643Y-63918920D01*
X77093642Y-63918919D01*
X77088261Y-63911739D01*
X76971705Y-63824385D01*
X76835316Y-63773255D01*
X76773134Y-63766500D01*
X76773258Y-63765361D01*
X76710766Y-63743289D01*
X76667232Y-63687206D01*
X76658500Y-63641116D01*
X76658500Y-63384500D01*
X76678502Y-63316379D01*
X76732158Y-63269886D01*
X76784500Y-63258500D01*
X76798134Y-63258500D01*
X76860316Y-63251745D01*
X76996705Y-63200615D01*
X77113261Y-63113261D01*
X77200615Y-62996705D01*
X77251745Y-62860316D01*
X77258500Y-62798134D01*
X77258500Y-61201866D01*
X77251745Y-61139684D01*
X77200615Y-61003295D01*
X77113261Y-60886739D01*
X76996705Y-60799385D01*
X76860316Y-60748255D01*
X76798134Y-60741500D01*
X75201866Y-60741500D01*
X75139684Y-60748255D01*
X75003295Y-60799385D01*
X74886739Y-60886739D01*
X74799385Y-61003295D01*
X74748255Y-61139684D01*
X74741500Y-61201866D01*
X74741500Y-62798134D01*
X74748255Y-62860316D01*
X74799385Y-62996705D01*
X74886739Y-63113261D01*
X75003295Y-63200615D01*
X75139684Y-63251745D01*
X75201866Y-63258500D01*
X75215500Y-63258500D01*
X75283621Y-63278502D01*
X75330114Y-63332158D01*
X75341500Y-63384500D01*
X75341500Y-63646425D01*
X75321498Y-63714546D01*
X75267842Y-63761039D01*
X75229108Y-63771688D01*
X75228037Y-63771804D01*
X75214684Y-63773255D01*
X75078295Y-63824385D01*
X75071110Y-63829770D01*
X75071108Y-63829771D01*
X75000565Y-63882640D01*
X74934058Y-63907488D01*
X74864676Y-63892435D01*
X74849435Y-63882640D01*
X74778892Y-63829771D01*
X74778890Y-63829770D01*
X74771705Y-63824385D01*
X74635316Y-63773255D01*
X74573134Y-63766500D01*
X73076866Y-63766500D01*
X73014684Y-63773255D01*
X72878295Y-63824385D01*
X72761739Y-63911739D01*
X72756357Y-63918920D01*
X72756356Y-63918921D01*
X72740746Y-63939749D01*
X72683887Y-63982264D01*
X72613068Y-63987288D01*
X72604742Y-63984607D01*
X72604597Y-63985106D01*
X72447254Y-63939394D01*
X72440849Y-63938890D01*
X72440844Y-63938889D01*
X72412940Y-63936693D01*
X72412932Y-63936693D01*
X72410484Y-63936500D01*
X71939516Y-63936500D01*
X71937068Y-63936693D01*
X71937060Y-63936693D01*
X71909156Y-63938889D01*
X71909151Y-63938890D01*
X71902746Y-63939394D01*
X71803995Y-63968084D01*
X71753016Y-63982894D01*
X71753014Y-63982895D01*
X71745403Y-63985106D01*
X71738578Y-63989142D01*
X71738574Y-63989144D01*
X71637442Y-64048953D01*
X71573303Y-64066500D01*
X71357059Y-64066500D01*
X71345203Y-64065941D01*
X71337463Y-64064211D01*
X71329537Y-64064460D01*
X71329536Y-64064460D01*
X71266611Y-64066438D01*
X71262653Y-64066500D01*
X71233568Y-64066500D01*
X71229637Y-64066997D01*
X71229630Y-64066997D01*
X71229179Y-64067054D01*
X71217343Y-64067986D01*
X71171169Y-64069438D01*
X71150579Y-64075420D01*
X71131218Y-64079430D01*
X71124230Y-64080312D01*
X71117796Y-64081125D01*
X71117795Y-64081125D01*
X71109936Y-64082118D01*
X71102571Y-64085034D01*
X71102567Y-64085035D01*
X71066979Y-64099126D01*
X71055769Y-64102965D01*
X71011400Y-64115855D01*
X70992935Y-64126775D01*
X70975195Y-64135466D01*
X70955244Y-64143365D01*
X70917874Y-64170516D01*
X70907952Y-64177033D01*
X70875023Y-64196507D01*
X70875019Y-64196510D01*
X70868193Y-64200547D01*
X70853029Y-64215711D01*
X70837996Y-64228551D01*
X70820643Y-64241159D01*
X70794517Y-64272740D01*
X70791198Y-64276752D01*
X70783208Y-64285532D01*
X70592395Y-64476345D01*
X70583615Y-64484335D01*
X70583613Y-64484337D01*
X70576920Y-64488584D01*
X70571494Y-64494362D01*
X70571493Y-64494363D01*
X70528396Y-64540257D01*
X70525641Y-64543099D01*
X70505073Y-64563667D01*
X70502356Y-64567170D01*
X70494648Y-64576195D01*
X70463028Y-64609867D01*
X70459207Y-64616818D01*
X70459206Y-64616819D01*
X70452697Y-64628658D01*
X70441843Y-64645182D01*
X70434018Y-64655271D01*
X70428696Y-64662132D01*
X70425549Y-64669404D01*
X70425548Y-64669406D01*
X70410346Y-64704535D01*
X70405124Y-64715195D01*
X70382876Y-64755663D01*
X70377541Y-64776441D01*
X70371142Y-64795131D01*
X70362620Y-64814824D01*
X70361380Y-64822655D01*
X70355394Y-64860448D01*
X70352987Y-64872071D01*
X70349145Y-64887036D01*
X70341500Y-64916812D01*
X70341500Y-64938259D01*
X70339949Y-64957969D01*
X70336594Y-64979152D01*
X70337726Y-64991122D01*
X70340941Y-65025138D01*
X70341500Y-65036996D01*
X70341500Y-66417944D01*
X70340941Y-66429800D01*
X70339212Y-66437537D01*
X70339461Y-66445459D01*
X70341438Y-66508369D01*
X70341500Y-66512327D01*
X70341500Y-66541432D01*
X70342056Y-66545832D01*
X70342988Y-66557664D01*
X70344438Y-66603831D01*
X70346650Y-66611444D01*
X70346650Y-66611445D01*
X70350419Y-66624416D01*
X70354430Y-66643782D01*
X70357118Y-66665064D01*
X70360034Y-66672429D01*
X70360035Y-66672433D01*
X70374126Y-66708021D01*
X70377965Y-66719231D01*
X70390855Y-66763600D01*
X70401775Y-66782065D01*
X70410466Y-66799805D01*
X70418365Y-66819756D01*
X70443839Y-66854818D01*
X70445516Y-66857126D01*
X70452033Y-66867048D01*
X70471507Y-66899977D01*
X70471510Y-66899981D01*
X70475547Y-66906807D01*
X70490711Y-66921971D01*
X70503551Y-66937004D01*
X70516159Y-66954357D01*
X70542652Y-66976274D01*
X70551752Y-66983802D01*
X70560532Y-66991792D01*
X72044626Y-68475886D01*
X72078652Y-68538198D01*
X72073587Y-68609013D01*
X72031040Y-68665849D01*
X71968702Y-68690291D01*
X71876387Y-68699993D01*
X71832289Y-68704628D01*
X71832288Y-68704628D01*
X71825288Y-68705364D01*
X71653579Y-68763818D01*
X71647575Y-68767512D01*
X71505095Y-68855166D01*
X71505092Y-68855168D01*
X71499088Y-68858862D01*
X71494053Y-68863793D01*
X71494050Y-68863795D01*
X71374525Y-68980843D01*
X71369493Y-68985771D01*
X71271235Y-69138238D01*
X71268826Y-69144858D01*
X71268824Y-69144861D01*
X71250428Y-69195404D01*
X71209197Y-69308685D01*
X71186463Y-69488640D01*
X71192930Y-69554592D01*
X71179671Y-69624337D01*
X71130809Y-69675844D01*
X71061856Y-69692758D01*
X71052613Y-69692000D01*
X71012674Y-69687238D01*
X71005680Y-69686404D01*
X70998677Y-69687140D01*
X70998676Y-69687140D01*
X70832288Y-69704628D01*
X70832286Y-69704629D01*
X70825288Y-69705364D01*
X70653579Y-69763818D01*
X70591109Y-69802250D01*
X70505095Y-69855166D01*
X70505092Y-69855168D01*
X70499088Y-69858862D01*
X70494053Y-69863793D01*
X70494050Y-69863795D01*
X70418006Y-69938263D01*
X70369493Y-69985771D01*
X70271235Y-70138238D01*
X70268826Y-70144858D01*
X70268824Y-70144861D01*
X70216944Y-70287400D01*
X70209197Y-70308685D01*
X70186463Y-70488640D01*
X70204163Y-70669160D01*
X70261418Y-70841273D01*
X70265065Y-70847295D01*
X70265066Y-70847297D01*
X70323276Y-70943413D01*
X70341500Y-71008684D01*
X70341500Y-74917944D01*
X70340941Y-74929800D01*
X70339212Y-74937537D01*
X70339461Y-74945459D01*
X70341438Y-75008369D01*
X70341500Y-75012327D01*
X70341500Y-75041432D01*
X70342056Y-75045832D01*
X70342988Y-75057664D01*
X70344438Y-75103831D01*
X70346650Y-75111444D01*
X70346650Y-75111445D01*
X70350419Y-75124416D01*
X70354430Y-75143782D01*
X70357118Y-75165064D01*
X70360034Y-75172429D01*
X70360035Y-75172433D01*
X70374126Y-75208021D01*
X70377965Y-75219231D01*
X70390855Y-75263600D01*
X70401775Y-75282065D01*
X70410466Y-75299805D01*
X70418365Y-75319756D01*
X70445516Y-75357126D01*
X70452033Y-75367048D01*
X70471507Y-75399977D01*
X70471510Y-75399981D01*
X70475547Y-75406807D01*
X70490711Y-75421971D01*
X70503551Y-75437004D01*
X70516159Y-75454357D01*
X70551752Y-75483802D01*
X70560532Y-75491792D01*
X70976345Y-75907605D01*
X70984335Y-75916385D01*
X70988584Y-75923080D01*
X70994362Y-75928506D01*
X70994363Y-75928507D01*
X71040257Y-75971604D01*
X71043099Y-75974359D01*
X71063667Y-75994927D01*
X71067170Y-75997644D01*
X71076195Y-76005352D01*
X71109867Y-76036972D01*
X71116818Y-76040793D01*
X71116819Y-76040794D01*
X71128658Y-76047303D01*
X71145182Y-76058157D01*
X71155271Y-76065982D01*
X71162132Y-76071304D01*
X71169404Y-76074451D01*
X71169406Y-76074452D01*
X71204535Y-76089654D01*
X71215196Y-76094876D01*
X71255663Y-76117124D01*
X71276441Y-76122459D01*
X71295131Y-76128858D01*
X71314824Y-76137380D01*
X71358596Y-76144313D01*
X71360448Y-76144606D01*
X71372071Y-76147013D01*
X71400072Y-76154202D01*
X71416812Y-76158500D01*
X71438259Y-76158500D01*
X71457969Y-76160051D01*
X71479152Y-76163406D01*
X71525141Y-76159059D01*
X71536996Y-76158500D01*
X71815500Y-76158500D01*
X71883621Y-76178502D01*
X71930114Y-76232158D01*
X71941500Y-76284500D01*
X71941500Y-76623134D01*
X71941869Y-76626531D01*
X71948255Y-76685316D01*
X71945826Y-76685580D01*
X71945826Y-76714420D01*
X71948255Y-76714684D01*
X71941500Y-76776866D01*
X71941500Y-77423134D01*
X71941869Y-77426531D01*
X71948255Y-77485316D01*
X71945826Y-77485580D01*
X71945826Y-77514420D01*
X71948255Y-77514684D01*
X71941500Y-77576866D01*
X71941500Y-77915500D01*
X71921498Y-77983621D01*
X71867842Y-78030114D01*
X71815500Y-78041500D01*
X69782059Y-78041500D01*
X69770203Y-78040941D01*
X69762463Y-78039211D01*
X69754537Y-78039460D01*
X69754536Y-78039460D01*
X69691611Y-78041438D01*
X69687653Y-78041500D01*
X69658568Y-78041500D01*
X69654637Y-78041997D01*
X69654630Y-78041997D01*
X69654179Y-78042054D01*
X69642343Y-78042986D01*
X69596169Y-78044438D01*
X69575579Y-78050420D01*
X69556218Y-78054430D01*
X69549230Y-78055312D01*
X69542796Y-78056125D01*
X69542795Y-78056125D01*
X69534936Y-78057118D01*
X69527571Y-78060034D01*
X69527567Y-78060035D01*
X69491979Y-78074126D01*
X69480769Y-78077965D01*
X69451394Y-78086499D01*
X69416249Y-78091500D01*
X67007944Y-78091500D01*
X66940430Y-78071885D01*
X66910966Y-78053187D01*
X66856666Y-78018727D01*
X66827463Y-78008328D01*
X66692425Y-77960243D01*
X66692420Y-77960242D01*
X66685790Y-77957881D01*
X66678802Y-77957048D01*
X66678799Y-77957047D01*
X66555698Y-77942368D01*
X66505680Y-77936404D01*
X66498677Y-77937140D01*
X66498676Y-77937140D01*
X66332288Y-77954628D01*
X66332286Y-77954629D01*
X66325288Y-77955364D01*
X66153579Y-78013818D01*
X66108684Y-78041438D01*
X66005095Y-78105166D01*
X66005092Y-78105168D01*
X65999088Y-78108862D01*
X65994053Y-78113793D01*
X65994050Y-78113795D01*
X65874525Y-78230843D01*
X65869493Y-78235771D01*
X65771235Y-78388238D01*
X65768826Y-78394858D01*
X65768824Y-78394861D01*
X65758811Y-78422372D01*
X65709197Y-78558685D01*
X65686463Y-78738640D01*
X65704163Y-78919160D01*
X65761418Y-79091273D01*
X65765065Y-79097295D01*
X65765066Y-79097297D01*
X65828681Y-79202338D01*
X65855380Y-79246424D01*
X65981382Y-79376902D01*
X66133159Y-79476222D01*
X66139763Y-79478678D01*
X66139765Y-79478679D01*
X66296558Y-79536990D01*
X66296560Y-79536990D01*
X66303168Y-79539448D01*
X66386995Y-79550633D01*
X66475980Y-79562507D01*
X66475984Y-79562507D01*
X66482961Y-79563438D01*
X66489972Y-79562800D01*
X66489976Y-79562800D01*
X66632459Y-79549832D01*
X66663600Y-79546998D01*
X66670302Y-79544820D01*
X66670304Y-79544820D01*
X66829409Y-79493124D01*
X66829412Y-79493123D01*
X66836108Y-79490947D01*
X66944603Y-79426271D01*
X67009120Y-79408500D01*
X68856051Y-79408500D01*
X68924172Y-79428502D01*
X68970665Y-79482158D01*
X68980769Y-79552432D01*
X68951275Y-79617012D01*
X68945146Y-79623595D01*
X68092396Y-80476345D01*
X68083613Y-80484337D01*
X68076920Y-80488584D01*
X68071494Y-80494362D01*
X68028395Y-80540258D01*
X68025640Y-80543100D01*
X68005073Y-80563667D01*
X68002356Y-80567170D01*
X67994648Y-80576195D01*
X67963028Y-80609867D01*
X67959207Y-80616818D01*
X67959206Y-80616819D01*
X67952697Y-80628658D01*
X67941843Y-80645182D01*
X67934018Y-80655271D01*
X67928696Y-80662132D01*
X67925549Y-80669404D01*
X67925548Y-80669406D01*
X67910346Y-80704535D01*
X67905124Y-80715195D01*
X67897216Y-80729580D01*
X67882876Y-80755663D01*
X67877541Y-80776441D01*
X67871142Y-80795131D01*
X67862620Y-80814824D01*
X67861380Y-80822655D01*
X67855394Y-80860448D01*
X67852987Y-80872071D01*
X67850137Y-80883172D01*
X67841500Y-80916812D01*
X67841500Y-80938259D01*
X67839949Y-80957969D01*
X67836594Y-80979152D01*
X67837397Y-80987641D01*
X67840941Y-81025138D01*
X67841500Y-81036996D01*
X67841500Y-90917944D01*
X67840941Y-90929800D01*
X67839212Y-90937537D01*
X67839461Y-90945459D01*
X67841438Y-91008369D01*
X67841500Y-91012327D01*
X67841500Y-91041432D01*
X67842056Y-91045832D01*
X67842988Y-91057664D01*
X67844438Y-91103831D01*
X67846650Y-91111444D01*
X67846650Y-91111445D01*
X67850419Y-91124416D01*
X67854430Y-91143782D01*
X67857118Y-91165064D01*
X67860034Y-91172429D01*
X67860035Y-91172433D01*
X67874126Y-91208021D01*
X67877965Y-91219231D01*
X67890855Y-91263600D01*
X67901775Y-91282065D01*
X67910466Y-91299805D01*
X67918365Y-91319756D01*
X67945516Y-91357126D01*
X67952033Y-91367048D01*
X67971507Y-91399977D01*
X67971510Y-91399981D01*
X67975547Y-91406807D01*
X67990711Y-91421971D01*
X68003551Y-91437004D01*
X68016159Y-91454357D01*
X68051752Y-91483802D01*
X68060532Y-91491792D01*
X71976341Y-95407600D01*
X71984331Y-95416381D01*
X71984339Y-95416390D01*
X71988584Y-95423080D01*
X71994359Y-95428503D01*
X72040274Y-95471620D01*
X72043116Y-95474375D01*
X72063667Y-95494926D01*
X72066801Y-95497357D01*
X72067163Y-95497638D01*
X72076191Y-95505348D01*
X72109867Y-95536972D01*
X72116818Y-95540793D01*
X72116819Y-95540794D01*
X72128655Y-95547301D01*
X72145183Y-95558157D01*
X72162131Y-95571304D01*
X72204545Y-95589659D01*
X72215183Y-95594871D01*
X72255663Y-95617124D01*
X72263340Y-95619095D01*
X72263345Y-95619097D01*
X72276426Y-95622455D01*
X72295134Y-95628860D01*
X72314823Y-95637380D01*
X72322649Y-95638619D01*
X72322651Y-95638620D01*
X72337686Y-95641001D01*
X72360459Y-95644608D01*
X72372070Y-95647012D01*
X72403107Y-95654981D01*
X72409135Y-95656529D01*
X72409136Y-95656529D01*
X72416812Y-95658500D01*
X72438258Y-95658500D01*
X72457968Y-95660051D01*
X72479151Y-95663406D01*
X72525140Y-95659059D01*
X72536995Y-95658500D01*
X113332141Y-95658500D01*
X113400262Y-95678502D01*
X113446755Y-95732158D01*
X113457428Y-95797889D01*
X113437251Y-95986695D01*
X113437548Y-95991848D01*
X113437548Y-95991851D01*
X113449789Y-96204149D01*
X113450110Y-96209715D01*
X113451247Y-96214761D01*
X113451248Y-96214767D01*
X113471070Y-96302721D01*
X113499222Y-96427639D01*
X113583266Y-96634616D01*
X113585965Y-96639020D01*
X113684402Y-96799655D01*
X113699987Y-96825088D01*
X113846250Y-96993938D01*
X114018126Y-97136632D01*
X114088595Y-97177811D01*
X114091445Y-97179476D01*
X114140169Y-97231114D01*
X114153240Y-97300897D01*
X114126509Y-97366669D01*
X114086055Y-97400027D01*
X114073607Y-97406507D01*
X114069474Y-97409610D01*
X114069471Y-97409612D01*
X113951993Y-97497817D01*
X113894965Y-97540635D01*
X113891393Y-97544373D01*
X113768828Y-97672630D01*
X113740629Y-97702138D01*
X113737715Y-97706410D01*
X113737714Y-97706411D01*
X113711384Y-97745009D01*
X113614743Y-97886680D01*
X113574710Y-97972925D01*
X113528954Y-98071498D01*
X113520688Y-98089305D01*
X113460989Y-98304570D01*
X113437251Y-98526695D01*
X113437548Y-98531848D01*
X113437548Y-98531851D01*
X113447973Y-98712657D01*
X113450110Y-98749715D01*
X113451247Y-98754761D01*
X113451248Y-98754767D01*
X113463400Y-98808688D01*
X113499222Y-98967639D01*
X113583266Y-99174616D01*
X113585965Y-99179020D01*
X113689970Y-99348741D01*
X113699987Y-99365088D01*
X113846250Y-99533938D01*
X113850230Y-99537242D01*
X113854981Y-99541187D01*
X113894616Y-99600090D01*
X113896113Y-99671071D01*
X113858997Y-99731593D01*
X113818724Y-99756112D01*
X113703295Y-99799385D01*
X113586739Y-99886739D01*
X113499385Y-100003295D01*
X113448255Y-100139684D01*
X113441500Y-100201866D01*
X113441500Y-101998134D01*
X113448255Y-102060316D01*
X113499385Y-102196705D01*
X113586739Y-102313261D01*
X113703295Y-102400615D01*
X113839684Y-102451745D01*
X113901866Y-102458500D01*
X115698134Y-102458500D01*
X115760316Y-102451745D01*
X115896705Y-102400615D01*
X116013261Y-102313261D01*
X116100615Y-102196705D01*
X116140516Y-102090270D01*
X116183158Y-102033506D01*
X116249719Y-102008806D01*
X116258498Y-102008500D01*
X117318583Y-102008500D01*
X117338292Y-102010051D01*
X117352190Y-102012252D01*
X117358777Y-102011907D01*
X117358782Y-102011907D01*
X117420480Y-102008673D01*
X117427074Y-102008500D01*
X117447610Y-102008500D01*
X117450882Y-102008156D01*
X117450884Y-102008156D01*
X117468042Y-102006353D01*
X117474616Y-102005836D01*
X117536308Y-102002603D01*
X117536312Y-102002602D01*
X117542903Y-102002257D01*
X117549284Y-102000547D01*
X117549286Y-102000547D01*
X117556491Y-101998617D01*
X117575925Y-101995015D01*
X117583354Y-101994234D01*
X117583363Y-101994232D01*
X117589928Y-101993542D01*
X117654997Y-101972400D01*
X117661299Y-101970533D01*
X117727370Y-101952829D01*
X117739908Y-101946440D01*
X117758174Y-101938875D01*
X117765272Y-101936569D01*
X117765274Y-101936568D01*
X117771556Y-101934527D01*
X117830785Y-101900331D01*
X117836579Y-101897185D01*
X117897530Y-101866129D01*
X117908467Y-101857273D01*
X117924763Y-101846073D01*
X117931224Y-101842343D01*
X117931228Y-101842340D01*
X117936944Y-101839040D01*
X117941850Y-101834623D01*
X117941855Y-101834619D01*
X117987769Y-101793278D01*
X117992784Y-101788994D01*
X118006177Y-101778148D01*
X118008741Y-101776072D01*
X118023256Y-101761557D01*
X118028041Y-101757016D01*
X118073957Y-101715673D01*
X118078866Y-101711253D01*
X118087140Y-101699865D01*
X118099981Y-101684832D01*
X120084832Y-99699981D01*
X120099865Y-99687140D01*
X120105913Y-99682746D01*
X120105914Y-99682745D01*
X120111253Y-99678866D01*
X120157016Y-99628041D01*
X120161557Y-99623256D01*
X120176072Y-99608741D01*
X120188997Y-99592780D01*
X120193269Y-99587779D01*
X120234619Y-99541855D01*
X120234623Y-99541850D01*
X120239040Y-99536944D01*
X120246073Y-99524763D01*
X120257267Y-99508474D01*
X120266129Y-99497531D01*
X120270263Y-99489419D01*
X120297188Y-99436574D01*
X120300336Y-99430777D01*
X120331223Y-99377279D01*
X120331223Y-99377278D01*
X120334527Y-99371556D01*
X120338875Y-99358173D01*
X120346441Y-99339907D01*
X120349832Y-99333252D01*
X120352829Y-99327370D01*
X120366257Y-99277260D01*
X120370529Y-99261315D01*
X120372402Y-99254991D01*
X120391500Y-99196212D01*
X120393542Y-99189928D01*
X120395012Y-99175939D01*
X120398617Y-99156486D01*
X120400547Y-99149285D01*
X120402257Y-99142904D01*
X120403186Y-99125176D01*
X120405836Y-99074615D01*
X120406353Y-99068040D01*
X120408156Y-99050882D01*
X120408500Y-99047610D01*
X120408500Y-99027075D01*
X120408673Y-99020481D01*
X120411907Y-98958783D01*
X120411907Y-98958778D01*
X120412252Y-98952191D01*
X120410051Y-98938293D01*
X120408500Y-98918584D01*
X120408500Y-71081416D01*
X120410051Y-71061704D01*
X120411220Y-71054324D01*
X120412252Y-71047809D01*
X120411857Y-71040257D01*
X120408673Y-70979519D01*
X120408500Y-70972925D01*
X120408500Y-54581417D01*
X120410051Y-54561705D01*
X120411220Y-54554325D01*
X120412252Y-54547810D01*
X120408673Y-54479519D01*
X120408500Y-54472925D01*
X120408500Y-54452390D01*
X120406353Y-54431960D01*
X120405836Y-54425385D01*
X120402603Y-54363696D01*
X120402603Y-54363695D01*
X120402257Y-54357096D01*
X120398616Y-54343508D01*
X120395012Y-54324061D01*
X120394233Y-54316644D01*
X120394232Y-54316640D01*
X120393542Y-54310072D01*
X120372402Y-54245009D01*
X120370529Y-54238685D01*
X120354539Y-54179010D01*
X120354538Y-54179006D01*
X120352829Y-54172630D01*
X120346440Y-54160092D01*
X120338875Y-54141826D01*
X120336569Y-54134728D01*
X120336568Y-54134726D01*
X120334527Y-54128444D01*
X120300331Y-54069215D01*
X120297185Y-54063421D01*
X120266129Y-54002470D01*
X120257273Y-53991533D01*
X120246073Y-53975237D01*
X120242343Y-53968776D01*
X120242340Y-53968772D01*
X120239040Y-53963056D01*
X120234623Y-53958150D01*
X120234619Y-53958145D01*
X120193278Y-53912231D01*
X120188994Y-53907216D01*
X120178148Y-53893823D01*
X120176072Y-53891259D01*
X120161557Y-53876744D01*
X120157016Y-53871959D01*
X120115673Y-53826043D01*
X120111253Y-53821134D01*
X120099865Y-53812860D01*
X120084832Y-53800019D01*
X118199981Y-51915168D01*
X118187140Y-51900135D01*
X118182746Y-51894087D01*
X118182745Y-51894086D01*
X118178866Y-51888747D01*
X118128041Y-51842984D01*
X118123256Y-51838443D01*
X118108741Y-51823928D01*
X118092795Y-51811015D01*
X118092784Y-51811006D01*
X118087769Y-51806722D01*
X118041855Y-51765381D01*
X118041850Y-51765377D01*
X118036944Y-51760960D01*
X118031228Y-51757660D01*
X118031224Y-51757657D01*
X118024763Y-51753927D01*
X118008466Y-51742727D01*
X118002660Y-51738025D01*
X118002658Y-51738024D01*
X117997530Y-51733871D01*
X117936573Y-51702812D01*
X117930782Y-51699667D01*
X117877279Y-51668777D01*
X117877278Y-51668776D01*
X117871556Y-51665473D01*
X117865274Y-51663432D01*
X117865272Y-51663431D01*
X117858174Y-51661125D01*
X117839907Y-51653559D01*
X117827370Y-51647171D01*
X117820989Y-51645461D01*
X117802852Y-51640601D01*
X117761299Y-51629467D01*
X117754997Y-51627600D01*
X117689928Y-51606458D01*
X117683363Y-51605768D01*
X117683354Y-51605766D01*
X117675925Y-51604985D01*
X117656491Y-51601383D01*
X117649286Y-51599453D01*
X117649284Y-51599453D01*
X117642903Y-51597743D01*
X117636312Y-51597398D01*
X117636308Y-51597397D01*
X117574616Y-51594164D01*
X117568042Y-51593647D01*
X117550884Y-51591844D01*
X117550882Y-51591844D01*
X117547610Y-51591500D01*
X117527074Y-51591500D01*
X117520480Y-51591327D01*
X117458782Y-51588093D01*
X117458777Y-51588093D01*
X117452190Y-51587748D01*
X117438292Y-51589949D01*
X117418583Y-51591500D01*
X115692838Y-51591500D01*
X115624717Y-51571498D01*
X115597672Y-51548079D01*
X115579028Y-51526593D01*
X115579021Y-51526587D01*
X115575523Y-51522555D01*
X115484070Y-51447568D01*
X115401373Y-51379760D01*
X115401367Y-51379756D01*
X115397245Y-51376376D01*
X115365750Y-51358448D01*
X115316445Y-51307368D01*
X115302583Y-51237738D01*
X115328566Y-51171667D01*
X115357716Y-51144427D01*
X115393642Y-51120240D01*
X115479319Y-51062559D01*
X115646135Y-50903424D01*
X115783754Y-50718458D01*
X115888240Y-50512949D01*
X115924321Y-50396752D01*
X115955024Y-50297871D01*
X115956607Y-50292773D01*
X115957308Y-50287484D01*
X115986198Y-50069511D01*
X115986198Y-50069506D01*
X115986898Y-50064226D01*
X115978249Y-49833842D01*
X115930907Y-49608209D01*
X115907313Y-49548466D01*
X115848185Y-49398744D01*
X115848184Y-49398742D01*
X115846224Y-49393779D01*
X115843170Y-49388745D01*
X115729390Y-49201243D01*
X115726623Y-49196683D01*
X115655409Y-49114616D01*
X115579023Y-49026588D01*
X115579021Y-49026586D01*
X115575523Y-49022555D01*
X115521544Y-48978295D01*
X115401373Y-48879760D01*
X115401367Y-48879756D01*
X115397245Y-48876376D01*
X115365750Y-48858448D01*
X115316445Y-48807368D01*
X115302583Y-48737738D01*
X115328566Y-48671667D01*
X115357716Y-48644427D01*
X115393642Y-48620240D01*
X115479319Y-48562559D01*
X115646135Y-48403424D01*
X115783754Y-48218458D01*
X115888240Y-48012949D01*
X115924321Y-47896752D01*
X115955024Y-47797871D01*
X115956607Y-47792773D01*
X115957308Y-47787484D01*
X115986198Y-47569511D01*
X115986198Y-47569506D01*
X115986898Y-47564226D01*
X115978249Y-47333842D01*
X115930907Y-47108209D01*
X115846224Y-46893779D01*
X115726623Y-46696683D01*
X115639755Y-46596576D01*
X115579023Y-46526588D01*
X115579021Y-46526586D01*
X115575523Y-46522555D01*
X115533970Y-46488484D01*
X115401373Y-46379760D01*
X115401367Y-46379756D01*
X115397245Y-46376376D01*
X115365750Y-46358448D01*
X115316445Y-46307368D01*
X115302583Y-46237738D01*
X115328566Y-46171667D01*
X115357716Y-46144427D01*
X115393642Y-46120240D01*
X115479319Y-46062559D01*
X115646135Y-45903424D01*
X115783754Y-45718458D01*
X115888240Y-45512949D01*
X115924321Y-45396752D01*
X115955024Y-45297871D01*
X115956607Y-45292773D01*
X115957308Y-45287484D01*
X115986198Y-45069511D01*
X115986198Y-45069506D01*
X115986898Y-45064226D01*
X115978249Y-44833842D01*
X115930907Y-44608209D01*
X115846224Y-44393779D01*
X115726623Y-44196683D01*
X115639755Y-44096576D01*
X115579023Y-44026588D01*
X115579021Y-44026586D01*
X115575523Y-44022555D01*
X115533970Y-43988484D01*
X115401373Y-43879760D01*
X115401367Y-43879756D01*
X115397245Y-43876376D01*
X115392609Y-43873737D01*
X115392606Y-43873735D01*
X115201529Y-43764968D01*
X115196886Y-43762325D01*
X114980175Y-43683663D01*
X114974926Y-43682714D01*
X114974923Y-43682713D01*
X114757392Y-43643377D01*
X114757385Y-43643376D01*
X114753308Y-43642639D01*
X114735586Y-43641803D01*
X114730644Y-43641570D01*
X114730637Y-43641570D01*
X114729156Y-43641500D01*
X114317110Y-43641500D01*
X114250191Y-43647178D01*
X114150591Y-43655629D01*
X114150587Y-43655630D01*
X114145280Y-43656080D01*
X114140125Y-43657418D01*
X114140119Y-43657419D01*
X113927297Y-43712657D01*
X113927293Y-43712658D01*
X113922128Y-43713999D01*
X113917262Y-43716191D01*
X113917259Y-43716192D01*
X113808980Y-43764968D01*
X113711925Y-43808688D01*
X113520681Y-43937441D01*
X113353865Y-44096576D01*
X113216246Y-44281542D01*
X113111760Y-44487051D01*
X113110178Y-44492145D01*
X113110177Y-44492148D01*
X113048115Y-44692020D01*
X113043393Y-44707227D01*
X113042692Y-44712516D01*
X113027304Y-44828623D01*
X113013102Y-44935774D01*
X113021751Y-45166158D01*
X113069093Y-45391791D01*
X113153776Y-45606221D01*
X113273377Y-45803317D01*
X113276874Y-45807347D01*
X113363438Y-45907103D01*
X113424477Y-45977445D01*
X113428608Y-45980832D01*
X113598627Y-46120240D01*
X113598633Y-46120244D01*
X113602755Y-46123624D01*
X113634250Y-46141552D01*
X113683555Y-46192632D01*
X113697417Y-46262262D01*
X113671434Y-46328333D01*
X113642284Y-46355573D01*
X113520681Y-46437441D01*
X113353865Y-46596576D01*
X113216246Y-46781542D01*
X113111760Y-46987051D01*
X113110178Y-46992145D01*
X113110177Y-46992148D01*
X113048115Y-47192020D01*
X113043393Y-47207227D01*
X113042692Y-47212516D01*
X113027304Y-47328623D01*
X113013102Y-47435774D01*
X113021751Y-47666158D01*
X113069093Y-47891791D01*
X113153776Y-48106221D01*
X113273377Y-48303317D01*
X113276874Y-48307347D01*
X113363438Y-48407103D01*
X113424477Y-48477445D01*
X113428608Y-48480832D01*
X113598627Y-48620240D01*
X113598633Y-48620244D01*
X113602755Y-48623624D01*
X113634250Y-48641552D01*
X113683555Y-48692632D01*
X113697417Y-48762262D01*
X113671434Y-48828333D01*
X113642284Y-48855573D01*
X113520681Y-48937441D01*
X113516824Y-48941120D01*
X113516822Y-48941122D01*
X113488122Y-48968501D01*
X113353865Y-49096576D01*
X113216246Y-49281542D01*
X113213830Y-49286293D01*
X113213828Y-49286297D01*
X113175849Y-49360997D01*
X113111760Y-49487051D01*
X113110178Y-49492145D01*
X113110177Y-49492148D01*
X113060828Y-49651077D01*
X113043393Y-49707227D01*
X113042692Y-49712516D01*
X113027304Y-49828623D01*
X113013102Y-49935774D01*
X113021751Y-50166158D01*
X113069093Y-50391791D01*
X113153776Y-50606221D01*
X113273377Y-50803317D01*
X113276874Y-50807347D01*
X113363438Y-50907103D01*
X113424477Y-50977445D01*
X113428608Y-50980832D01*
X113598627Y-51120240D01*
X113598633Y-51120244D01*
X113602755Y-51123624D01*
X113634250Y-51141552D01*
X113683555Y-51192632D01*
X113697417Y-51262262D01*
X113671434Y-51328333D01*
X113642284Y-51355573D01*
X113520681Y-51437441D01*
X113516824Y-51441120D01*
X113516822Y-51441122D01*
X113395697Y-51556670D01*
X113332600Y-51589217D01*
X113308725Y-51591500D01*
X92027074Y-51591500D01*
X92020480Y-51591327D01*
X91958782Y-51588093D01*
X91958777Y-51588093D01*
X91952190Y-51587748D01*
X91938292Y-51589949D01*
X91918583Y-51591500D01*
X82027074Y-51591500D01*
X82020480Y-51591327D01*
X81958782Y-51588093D01*
X81958777Y-51588093D01*
X81952190Y-51587748D01*
X81938292Y-51589949D01*
X81918583Y-51591500D01*
X71497503Y-51591500D01*
X71429382Y-51571498D01*
X71382889Y-51517842D01*
X71372785Y-51447568D01*
X71402279Y-51382988D01*
X71408408Y-51376405D01*
X73044832Y-49739981D01*
X73059865Y-49727140D01*
X73065913Y-49722746D01*
X73065914Y-49722745D01*
X73071253Y-49718866D01*
X73117016Y-49668041D01*
X73121557Y-49663256D01*
X73136072Y-49648741D01*
X73148994Y-49632784D01*
X73153278Y-49627769D01*
X73194619Y-49581855D01*
X73194623Y-49581850D01*
X73199040Y-49576944D01*
X73202340Y-49571228D01*
X73202343Y-49571224D01*
X73206073Y-49564763D01*
X73217273Y-49548466D01*
X73221975Y-49542660D01*
X73221976Y-49542658D01*
X73226129Y-49537530D01*
X73249253Y-49492148D01*
X73257188Y-49476574D01*
X73260336Y-49470777D01*
X73291224Y-49417277D01*
X73294527Y-49411556D01*
X73298875Y-49398174D01*
X73306438Y-49379915D01*
X73312830Y-49367370D01*
X73330537Y-49301288D01*
X73332409Y-49294969D01*
X73351501Y-49236210D01*
X73351501Y-49236209D01*
X73353542Y-49229928D01*
X73355014Y-49215925D01*
X73358615Y-49196496D01*
X73362257Y-49182903D01*
X73365836Y-49114616D01*
X73366353Y-49108042D01*
X73368156Y-49090884D01*
X73368156Y-49090882D01*
X73368500Y-49087610D01*
X73368500Y-49067074D01*
X73368673Y-49060480D01*
X73371907Y-48998782D01*
X73371907Y-48998777D01*
X73372252Y-48992190D01*
X73370051Y-48978292D01*
X73368500Y-48958583D01*
X73368500Y-38186434D01*
X112178921Y-38186434D01*
X112185708Y-38196135D01*
X112385023Y-38366365D01*
X112389709Y-38370000D01*
X112713442Y-38597523D01*
X112718432Y-38600690D01*
X113062141Y-38796739D01*
X113067422Y-38799429D01*
X113428053Y-38962260D01*
X113433544Y-38964434D01*
X113807906Y-39092607D01*
X113813590Y-39094259D01*
X114198347Y-39186631D01*
X114204162Y-39187740D01*
X114595889Y-39243490D01*
X114601802Y-39244049D01*
X114997031Y-39262688D01*
X115002969Y-39262688D01*
X115398198Y-39244049D01*
X115404111Y-39243490D01*
X115795838Y-39187740D01*
X115801653Y-39186631D01*
X116186410Y-39094259D01*
X116192094Y-39092607D01*
X116566456Y-38964434D01*
X116571947Y-38962260D01*
X116932578Y-38799429D01*
X116937859Y-38796739D01*
X117281568Y-38600690D01*
X117286558Y-38597523D01*
X117610291Y-38370000D01*
X117614977Y-38366365D01*
X117812722Y-38197476D01*
X117821152Y-38184562D01*
X117815145Y-38174355D01*
X115012812Y-35372022D01*
X114998868Y-35364408D01*
X114997035Y-35364539D01*
X114990420Y-35368790D01*
X112186313Y-38172897D01*
X112178921Y-38186434D01*
X73368500Y-38186434D01*
X73368500Y-36367739D01*
X73388502Y-36299618D01*
X73430930Y-36258951D01*
X73587873Y-36167241D01*
X73587880Y-36167237D01*
X73591582Y-36165073D01*
X73745139Y-36044669D01*
X75532001Y-36044669D01*
X75532371Y-36051490D01*
X75537895Y-36102352D01*
X75541521Y-36117604D01*
X75586676Y-36238054D01*
X75595214Y-36253649D01*
X75671715Y-36355724D01*
X75684276Y-36368285D01*
X75786351Y-36444786D01*
X75801946Y-36453324D01*
X75922394Y-36498478D01*
X75937649Y-36502105D01*
X75988514Y-36507631D01*
X75995328Y-36508000D01*
X77267885Y-36508000D01*
X77283124Y-36503525D01*
X77284329Y-36502135D01*
X77286000Y-36494452D01*
X77286000Y-36489884D01*
X77794000Y-36489884D01*
X77798475Y-36505123D01*
X77799865Y-36506328D01*
X77807548Y-36507999D01*
X79084669Y-36507999D01*
X79091490Y-36507629D01*
X79142352Y-36502105D01*
X79157604Y-36498479D01*
X79278054Y-36453324D01*
X79293649Y-36444786D01*
X79395724Y-36368285D01*
X79408285Y-36355724D01*
X79484786Y-36253649D01*
X79493324Y-36238054D01*
X79538478Y-36117606D01*
X79542105Y-36102351D01*
X79547631Y-36051486D01*
X79548000Y-36044672D01*
X79548000Y-34869073D01*
X110739322Y-34869073D01*
X110745537Y-35264679D01*
X110745911Y-35270629D01*
X110789327Y-35663895D01*
X110790257Y-35669766D01*
X110870494Y-36057212D01*
X110871970Y-36062960D01*
X110988316Y-36441151D01*
X110990320Y-36446716D01*
X111141745Y-36812288D01*
X111144267Y-36817647D01*
X111329411Y-37167323D01*
X111332436Y-37172440D01*
X111549669Y-37503144D01*
X111553159Y-37507947D01*
X111800292Y-37816420D01*
X111813130Y-37823694D01*
X111814439Y-37823621D01*
X111821852Y-37818938D01*
X114627978Y-35012812D01*
X114634356Y-35001132D01*
X115364408Y-35001132D01*
X115364539Y-35002965D01*
X115368790Y-35009580D01*
X118175271Y-37816061D01*
X118189215Y-37823675D01*
X118190524Y-37823582D01*
X118197360Y-37819112D01*
X118199454Y-37816737D01*
X118446841Y-37507947D01*
X118450331Y-37503144D01*
X118667564Y-37172440D01*
X118670589Y-37167323D01*
X118855733Y-36817647D01*
X118858255Y-36812288D01*
X119009680Y-36446716D01*
X119011684Y-36441151D01*
X119128030Y-36062960D01*
X119129506Y-36057212D01*
X119209743Y-35669766D01*
X119210673Y-35663895D01*
X119254145Y-35270124D01*
X119254494Y-35265196D01*
X119262750Y-35002468D01*
X119262711Y-34997530D01*
X119244049Y-34601802D01*
X119243490Y-34595889D01*
X119187740Y-34204162D01*
X119186631Y-34198347D01*
X119094259Y-33813590D01*
X119092607Y-33807906D01*
X118964434Y-33433544D01*
X118962260Y-33428053D01*
X118799429Y-33067422D01*
X118796739Y-33062141D01*
X118600690Y-32718432D01*
X118597523Y-32713442D01*
X118370000Y-32389709D01*
X118366365Y-32385023D01*
X118197476Y-32187278D01*
X118184562Y-32178848D01*
X118174355Y-32184855D01*
X115372022Y-34987188D01*
X115364408Y-35001132D01*
X114634356Y-35001132D01*
X114635592Y-34998868D01*
X114635461Y-34997035D01*
X114631210Y-34990420D01*
X111827402Y-32186612D01*
X111813458Y-32178998D01*
X111813205Y-32179016D01*
X111804463Y-32184930D01*
X111717436Y-32280572D01*
X111713649Y-32285150D01*
X111476088Y-32601551D01*
X111472744Y-32606471D01*
X111266001Y-32943845D01*
X111263153Y-32949025D01*
X111089072Y-33304370D01*
X111086723Y-33309797D01*
X110946858Y-33679939D01*
X110945026Y-33685578D01*
X110840622Y-34067215D01*
X110839323Y-34073028D01*
X110771295Y-34462811D01*
X110770554Y-34468674D01*
X110739507Y-34863147D01*
X110739322Y-34869073D01*
X79548000Y-34869073D01*
X79548000Y-34772115D01*
X79543525Y-34756876D01*
X79542135Y-34755671D01*
X79534452Y-34754000D01*
X77812115Y-34754000D01*
X77796876Y-34758475D01*
X77795671Y-34759865D01*
X77794000Y-34767548D01*
X77794000Y-36489884D01*
X77286000Y-36489884D01*
X77286000Y-34772115D01*
X77281525Y-34756876D01*
X77280135Y-34755671D01*
X77272452Y-34754000D01*
X75550116Y-34754000D01*
X75534877Y-34758475D01*
X75533672Y-34759865D01*
X75532001Y-34767548D01*
X75532001Y-36044669D01*
X73745139Y-36044669D01*
X73807089Y-35996094D01*
X73848809Y-35953043D01*
X73994686Y-35802509D01*
X73997669Y-35799431D01*
X74000202Y-35795983D01*
X74000206Y-35795978D01*
X74157257Y-35582178D01*
X74159795Y-35578723D01*
X74187154Y-35528334D01*
X74288418Y-35341830D01*
X74288419Y-35341828D01*
X74290468Y-35338054D01*
X74387269Y-35081877D01*
X74412107Y-34973427D01*
X74447449Y-34819117D01*
X74447450Y-34819113D01*
X74448407Y-34814933D01*
X74452229Y-34772115D01*
X74472531Y-34544627D01*
X74472531Y-34544625D01*
X74472751Y-34542161D01*
X74473193Y-34500000D01*
X74471465Y-34474648D01*
X74454859Y-34231055D01*
X74454858Y-34231049D01*
X74454642Y-34227885D01*
X75532000Y-34227885D01*
X75536475Y-34243124D01*
X75537865Y-34244329D01*
X75545548Y-34246000D01*
X77267885Y-34246000D01*
X77283124Y-34241525D01*
X77284329Y-34240135D01*
X77286000Y-34232452D01*
X77286000Y-34227885D01*
X77794000Y-34227885D01*
X77798475Y-34243124D01*
X77799865Y-34244329D01*
X77807548Y-34246000D01*
X79529884Y-34246000D01*
X79545123Y-34241525D01*
X79546328Y-34240135D01*
X79547999Y-34232452D01*
X79547999Y-32955331D01*
X79547629Y-32948510D01*
X79542105Y-32897648D01*
X79538479Y-32882396D01*
X79493324Y-32761946D01*
X79484786Y-32746351D01*
X79408285Y-32644276D01*
X79395724Y-32631715D01*
X79293649Y-32555214D01*
X79278054Y-32546676D01*
X79157606Y-32501522D01*
X79142351Y-32497895D01*
X79091486Y-32492369D01*
X79084672Y-32492000D01*
X77812115Y-32492000D01*
X77796876Y-32496475D01*
X77795671Y-32497865D01*
X77794000Y-32505548D01*
X77794000Y-34227885D01*
X77286000Y-34227885D01*
X77286000Y-32510116D01*
X77281525Y-32494877D01*
X77280135Y-32493672D01*
X77272452Y-32492001D01*
X75995331Y-32492001D01*
X75988510Y-32492371D01*
X75937648Y-32497895D01*
X75922396Y-32501521D01*
X75801946Y-32546676D01*
X75786351Y-32555214D01*
X75684276Y-32631715D01*
X75671715Y-32644276D01*
X75595214Y-32746351D01*
X75586676Y-32761946D01*
X75541522Y-32882394D01*
X75537895Y-32897649D01*
X75532369Y-32948514D01*
X75532000Y-32955328D01*
X75532000Y-34227885D01*
X74454642Y-34227885D01*
X74454567Y-34226778D01*
X74449884Y-34204162D01*
X74399901Y-33962809D01*
X74399032Y-33958612D01*
X74307617Y-33700465D01*
X74182013Y-33457112D01*
X74172040Y-33442921D01*
X74103279Y-33345085D01*
X74024545Y-33233057D01*
X73838125Y-33032445D01*
X73834810Y-33029731D01*
X73834806Y-33029728D01*
X73629523Y-32861706D01*
X73626205Y-32858990D01*
X73392704Y-32715901D01*
X73388768Y-32714173D01*
X73145873Y-32607549D01*
X73145869Y-32607548D01*
X73141945Y-32605825D01*
X72878566Y-32530800D01*
X72874324Y-32530196D01*
X72874318Y-32530195D01*
X72647366Y-32497895D01*
X72607443Y-32492213D01*
X72463589Y-32491460D01*
X72337877Y-32490802D01*
X72337871Y-32490802D01*
X72333591Y-32490780D01*
X72329347Y-32491339D01*
X72329343Y-32491339D01*
X72221416Y-32505548D01*
X72062078Y-32526525D01*
X72057938Y-32527658D01*
X72057936Y-32527658D01*
X71988418Y-32546676D01*
X71797928Y-32598788D01*
X71793980Y-32600472D01*
X71549982Y-32704546D01*
X71549978Y-32704548D01*
X71546030Y-32706232D01*
X71478996Y-32746351D01*
X71314725Y-32844664D01*
X71314721Y-32844667D01*
X71311043Y-32846868D01*
X71097318Y-33018094D01*
X70908808Y-33216742D01*
X70749002Y-33439136D01*
X70620857Y-33681161D01*
X70619385Y-33685184D01*
X70619383Y-33685188D01*
X70612314Y-33704506D01*
X70526743Y-33938337D01*
X70468404Y-34205907D01*
X70446917Y-34478918D01*
X70462682Y-34752320D01*
X70463507Y-34756525D01*
X70463508Y-34756533D01*
X70474127Y-34810657D01*
X70515405Y-35021053D01*
X70516792Y-35025103D01*
X70516793Y-35025108D01*
X70537605Y-35085895D01*
X70604112Y-35280144D01*
X70727160Y-35524799D01*
X70729586Y-35528328D01*
X70729589Y-35528334D01*
X70879843Y-35746953D01*
X70882274Y-35750490D01*
X71066582Y-35953043D01*
X71276675Y-36128707D01*
X71492458Y-36264068D01*
X71539534Y-36317210D01*
X71551500Y-36370804D01*
X71551500Y-48611497D01*
X71531498Y-48679618D01*
X71514595Y-48700592D01*
X68660592Y-51554595D01*
X68598280Y-51588621D01*
X68571497Y-51591500D01*
X62081416Y-51591500D01*
X62061707Y-51589949D01*
X62047809Y-51587748D01*
X62041222Y-51588093D01*
X62041217Y-51588093D01*
X61979519Y-51591327D01*
X61972925Y-51591500D01*
X61952390Y-51591500D01*
X61946222Y-51592148D01*
X61931960Y-51593647D01*
X61925385Y-51594164D01*
X61863696Y-51597397D01*
X61863695Y-51597397D01*
X61857096Y-51597743D01*
X61843508Y-51601384D01*
X61824061Y-51604988D01*
X61816644Y-51605767D01*
X61816640Y-51605768D01*
X61810072Y-51606458D01*
X61753276Y-51624912D01*
X61745009Y-51627598D01*
X61738685Y-51629471D01*
X61679010Y-51645461D01*
X61679006Y-51645462D01*
X61672630Y-51647171D01*
X61666748Y-51650168D01*
X61660093Y-51653559D01*
X61641826Y-51661125D01*
X61634728Y-51663431D01*
X61634726Y-51663432D01*
X61628444Y-51665473D01*
X61622722Y-51668777D01*
X61622721Y-51668777D01*
X61569223Y-51699664D01*
X61563426Y-51702812D01*
X61508352Y-51730873D01*
X61508349Y-51730875D01*
X61502469Y-51733871D01*
X61491526Y-51742733D01*
X61475237Y-51753927D01*
X61463056Y-51760960D01*
X61458150Y-51765377D01*
X61458145Y-51765381D01*
X61412221Y-51806731D01*
X61407220Y-51811003D01*
X61391259Y-51823928D01*
X61376744Y-51838443D01*
X61371959Y-51842984D01*
X61321134Y-51888747D01*
X61317255Y-51894086D01*
X61317254Y-51894087D01*
X61312860Y-51900135D01*
X61300019Y-51915168D01*
X48335168Y-64880019D01*
X48320135Y-64892860D01*
X48315581Y-64896169D01*
X48308747Y-64901134D01*
X48288394Y-64923738D01*
X48262984Y-64951959D01*
X48258443Y-64956744D01*
X48243928Y-64971259D01*
X48241852Y-64973823D01*
X48231006Y-64987216D01*
X48226722Y-64992231D01*
X48185381Y-65038145D01*
X48185377Y-65038150D01*
X48180960Y-65043056D01*
X48177660Y-65048772D01*
X48177657Y-65048776D01*
X48173927Y-65055237D01*
X48162727Y-65071533D01*
X48153871Y-65082470D01*
X48123082Y-65142897D01*
X48122815Y-65143421D01*
X48119669Y-65149215D01*
X48085473Y-65208444D01*
X48083432Y-65214726D01*
X48083431Y-65214728D01*
X48081125Y-65221826D01*
X48073560Y-65240092D01*
X48067171Y-65252630D01*
X48065463Y-65259003D01*
X48065463Y-65259004D01*
X48049469Y-65318695D01*
X48047600Y-65325003D01*
X48026458Y-65390072D01*
X48025768Y-65396637D01*
X48025766Y-65396646D01*
X48024985Y-65404075D01*
X48021383Y-65423509D01*
X48019453Y-65430714D01*
X48017743Y-65437097D01*
X48017398Y-65443688D01*
X48017397Y-65443692D01*
X48014164Y-65505384D01*
X48013647Y-65511958D01*
X48011844Y-65529116D01*
X48011500Y-65532390D01*
X48011500Y-65552926D01*
X48011327Y-65559520D01*
X48009879Y-65587158D01*
X48007748Y-65627810D01*
X48008780Y-65634325D01*
X48009949Y-65641705D01*
X48011500Y-65661417D01*
X48011500Y-77901497D01*
X47991498Y-77969618D01*
X47974595Y-77990592D01*
X47576841Y-78388346D01*
X47514529Y-78422372D01*
X47443714Y-78417307D01*
X47398730Y-78388425D01*
X47285803Y-78275695D01*
X47273798Y-78268295D01*
X47141468Y-78186725D01*
X47141466Y-78186724D01*
X47135238Y-78182885D01*
X46974754Y-78129655D01*
X46973889Y-78129368D01*
X46973887Y-78129368D01*
X46967361Y-78127203D01*
X46960525Y-78126503D01*
X46960522Y-78126502D01*
X46917469Y-78122091D01*
X46862900Y-78116500D01*
X46137100Y-78116500D01*
X46133854Y-78116837D01*
X46133850Y-78116837D01*
X46038192Y-78126762D01*
X46038188Y-78126763D01*
X46031334Y-78127474D01*
X46024798Y-78129655D01*
X46024796Y-78129655D01*
X45892694Y-78173728D01*
X45863554Y-78183450D01*
X45713152Y-78276522D01*
X45588195Y-78401697D01*
X45495385Y-78552262D01*
X45439703Y-78720139D01*
X45429000Y-78824600D01*
X45429000Y-80175400D01*
X45429337Y-80178646D01*
X45429337Y-80178650D01*
X45439081Y-80272555D01*
X45439974Y-80281166D01*
X45442155Y-80287702D01*
X45442155Y-80287704D01*
X45463224Y-80350854D01*
X45495950Y-80448946D01*
X45589022Y-80599348D01*
X45714197Y-80724305D01*
X45720427Y-80728145D01*
X45720428Y-80728146D01*
X45857590Y-80812694D01*
X45864762Y-80817115D01*
X45878601Y-80821705D01*
X46026111Y-80870632D01*
X46026113Y-80870632D01*
X46032639Y-80872797D01*
X46039475Y-80873497D01*
X46039478Y-80873498D01*
X46082531Y-80877909D01*
X46137100Y-80883500D01*
X46862900Y-80883500D01*
X46866146Y-80883163D01*
X46866150Y-80883163D01*
X46961808Y-80873238D01*
X46961812Y-80873237D01*
X46968666Y-80872526D01*
X46975202Y-80870345D01*
X46975204Y-80870345D01*
X47120995Y-80821705D01*
X47136446Y-80816550D01*
X47286848Y-80723478D01*
X47300321Y-80709982D01*
X47406634Y-80603483D01*
X47411805Y-80598303D01*
X47415646Y-80592072D01*
X47491889Y-80468384D01*
X47544662Y-80420890D01*
X47599149Y-80408500D01*
X47668583Y-80408500D01*
X47688292Y-80410051D01*
X47702190Y-80412252D01*
X47708777Y-80411907D01*
X47708782Y-80411907D01*
X47770480Y-80408673D01*
X47777074Y-80408500D01*
X47797610Y-80408500D01*
X47800882Y-80408156D01*
X47800884Y-80408156D01*
X47818042Y-80406353D01*
X47824617Y-80405836D01*
X47878906Y-80402991D01*
X47947980Y-80419400D01*
X47997217Y-80470549D01*
X48011500Y-80528818D01*
X48011500Y-86838583D01*
X48009949Y-86858292D01*
X48007748Y-86872190D01*
X48008093Y-86878777D01*
X48008093Y-86878782D01*
X48011327Y-86940480D01*
X48011500Y-86947074D01*
X48011500Y-95283997D01*
X47991498Y-95352118D01*
X47974595Y-95373092D01*
X46598092Y-96749595D01*
X46535780Y-96783621D01*
X46508997Y-96786500D01*
X46099600Y-96786500D01*
X46096354Y-96786837D01*
X46096350Y-96786837D01*
X46000692Y-96796762D01*
X46000688Y-96796763D01*
X45993834Y-96797474D01*
X45987298Y-96799655D01*
X45987296Y-96799655D01*
X45924250Y-96820689D01*
X45826054Y-96853450D01*
X45675652Y-96946522D01*
X45550695Y-97071697D01*
X45546855Y-97077927D01*
X45546854Y-97077928D01*
X45512706Y-97133327D01*
X45457885Y-97222262D01*
X45455581Y-97229209D01*
X45409988Y-97366669D01*
X45402203Y-97390139D01*
X45401503Y-97396975D01*
X45401502Y-97396978D01*
X45400526Y-97406507D01*
X45391500Y-97494600D01*
X45391500Y-98845400D01*
X44608500Y-98845400D01*
X44608500Y-97494600D01*
X44599954Y-97412231D01*
X44598238Y-97395692D01*
X44598237Y-97395688D01*
X44597526Y-97388834D01*
X44593493Y-97376744D01*
X44543868Y-97228002D01*
X44541550Y-97221054D01*
X44448478Y-97070652D01*
X44323303Y-96945695D01*
X44255884Y-96904137D01*
X44208390Y-96851364D01*
X44196000Y-96796877D01*
X44196000Y-94045491D01*
X44217051Y-93975765D01*
X44261143Y-93909402D01*
X44325555Y-93739838D01*
X44326535Y-93732866D01*
X44350248Y-93564139D01*
X44350248Y-93564136D01*
X44350799Y-93560217D01*
X44351116Y-93537500D01*
X44330897Y-93357245D01*
X44328580Y-93350591D01*
X44273564Y-93192606D01*
X44273562Y-93192603D01*
X44271245Y-93185948D01*
X44175126Y-93032124D01*
X44161441Y-93018343D01*
X44052278Y-92908415D01*
X44052274Y-92908412D01*
X44047315Y-92903418D01*
X44036197Y-92896362D01*
X43988038Y-92865800D01*
X43894166Y-92806227D01*
X43864963Y-92795828D01*
X43729925Y-92747743D01*
X43729920Y-92747742D01*
X43723290Y-92745381D01*
X43716302Y-92744548D01*
X43716299Y-92744547D01*
X43593198Y-92729868D01*
X43543180Y-92723904D01*
X43536177Y-92724640D01*
X43536176Y-92724640D01*
X43369788Y-92742128D01*
X43369786Y-92742129D01*
X43362788Y-92742864D01*
X43191079Y-92801318D01*
X43176957Y-92810006D01*
X43042595Y-92892666D01*
X43042592Y-92892668D01*
X43036588Y-92896362D01*
X43031553Y-92901293D01*
X43031550Y-92901295D01*
X42912025Y-93018343D01*
X42906993Y-93023271D01*
X42808735Y-93175738D01*
X42806326Y-93182358D01*
X42806324Y-93182361D01*
X42780853Y-93252342D01*
X42746697Y-93346185D01*
X42723963Y-93526140D01*
X42741663Y-93706660D01*
X42798918Y-93878773D01*
X42802565Y-93884795D01*
X42802566Y-93884797D01*
X42817467Y-93909402D01*
X42858320Y-93976857D01*
X42860776Y-93980913D01*
X42879000Y-94046184D01*
X42879000Y-96796895D01*
X42858998Y-96865016D01*
X42819303Y-96904039D01*
X42750652Y-96946522D01*
X42625695Y-97071697D01*
X42621855Y-97077927D01*
X42621854Y-97077928D01*
X42587706Y-97133327D01*
X42532885Y-97222262D01*
X42530581Y-97229209D01*
X42484988Y-97366669D01*
X42477203Y-97390139D01*
X42476503Y-97396975D01*
X42476502Y-97396978D01*
X42475526Y-97406507D01*
X42466500Y-97494600D01*
X42466500Y-98257550D01*
X42446498Y-98325671D01*
X42429595Y-98346645D01*
X41471645Y-99304595D01*
X41409333Y-99338621D01*
X41382550Y-99341500D01*
X36410425Y-99341500D01*
X36342304Y-99321498D01*
X36302706Y-99280866D01*
X36295083Y-99268303D01*
X36251623Y-99196683D01*
X36245761Y-99189928D01*
X36104023Y-99026588D01*
X36104021Y-99026586D01*
X36100523Y-99022555D01*
X36013458Y-98951166D01*
X35926373Y-98879760D01*
X35926367Y-98879756D01*
X35922245Y-98876376D01*
X35917609Y-98873737D01*
X35917606Y-98873735D01*
X35726529Y-98764968D01*
X35721886Y-98762325D01*
X35505175Y-98683663D01*
X35499926Y-98682714D01*
X35499923Y-98682713D01*
X35282392Y-98643377D01*
X35282385Y-98643376D01*
X35278308Y-98642639D01*
X35260586Y-98641803D01*
X35255644Y-98641570D01*
X35255637Y-98641570D01*
X35254156Y-98641500D01*
X34792110Y-98641500D01*
X34725191Y-98647178D01*
X34625591Y-98655629D01*
X34625587Y-98655630D01*
X34620280Y-98656080D01*
X34615125Y-98657418D01*
X34615119Y-98657419D01*
X34402297Y-98712657D01*
X34402293Y-98712658D01*
X34397128Y-98713999D01*
X34392262Y-98716191D01*
X34392259Y-98716192D01*
X34283980Y-98764968D01*
X34186925Y-98808688D01*
X33995681Y-98937441D01*
X33991824Y-98941120D01*
X33991822Y-98941122D01*
X33980219Y-98952191D01*
X33828865Y-99096576D01*
X33691246Y-99281542D01*
X33688830Y-99286293D01*
X33688828Y-99286297D01*
X33646785Y-99368990D01*
X33586760Y-99487051D01*
X33585178Y-99492145D01*
X33585177Y-99492148D01*
X33566127Y-99553500D01*
X33518393Y-99707227D01*
X33517692Y-99712516D01*
X33506179Y-99799385D01*
X33488102Y-99935774D01*
X25508500Y-99935774D01*
X25508500Y-84397095D01*
X33492001Y-84397095D01*
X33492338Y-84403614D01*
X33502257Y-84499206D01*
X33505149Y-84512600D01*
X33556588Y-84666784D01*
X33562761Y-84679962D01*
X33648063Y-84817807D01*
X33657099Y-84829208D01*
X33771829Y-84943739D01*
X33783240Y-84952751D01*
X33921243Y-85037816D01*
X33934424Y-85043963D01*
X34088710Y-85095138D01*
X34102086Y-85098005D01*
X34196438Y-85107672D01*
X34202854Y-85108000D01*
X34727885Y-85108000D01*
X34743124Y-85103525D01*
X34744329Y-85102135D01*
X34746000Y-85094452D01*
X34746000Y-85089884D01*
X35254000Y-85089884D01*
X35258475Y-85105123D01*
X35259865Y-85106328D01*
X35267548Y-85107999D01*
X35797095Y-85107999D01*
X35803614Y-85107662D01*
X35899206Y-85097743D01*
X35912600Y-85094851D01*
X36066784Y-85043412D01*
X36079962Y-85037239D01*
X36217807Y-84951937D01*
X36229208Y-84942901D01*
X36343739Y-84828171D01*
X36352751Y-84816760D01*
X36437816Y-84678757D01*
X36443963Y-84665576D01*
X36495138Y-84511290D01*
X36498005Y-84497914D01*
X36507672Y-84403562D01*
X36508000Y-84397146D01*
X36508000Y-84022115D01*
X36503525Y-84006876D01*
X36502135Y-84005671D01*
X36494452Y-84004000D01*
X35272115Y-84004000D01*
X35256876Y-84008475D01*
X35255671Y-84009865D01*
X35254000Y-84017548D01*
X35254000Y-85089884D01*
X34746000Y-85089884D01*
X34746000Y-84022115D01*
X34741525Y-84006876D01*
X34740135Y-84005671D01*
X34732452Y-84004000D01*
X33510116Y-84004000D01*
X33494877Y-84008475D01*
X33493672Y-84009865D01*
X33492001Y-84017548D01*
X33492001Y-84397095D01*
X25508500Y-84397095D01*
X25508500Y-81185774D01*
X33488102Y-81185774D01*
X33488302Y-81191103D01*
X33488302Y-81191105D01*
X33489890Y-81233394D01*
X33496751Y-81416158D01*
X33544093Y-81641791D01*
X33546051Y-81646750D01*
X33546052Y-81646752D01*
X33622184Y-81839528D01*
X33628776Y-81856221D01*
X33631543Y-81860780D01*
X33631544Y-81860783D01*
X33658717Y-81905562D01*
X33748377Y-82053317D01*
X33751874Y-82057347D01*
X33860491Y-82182517D01*
X33899477Y-82227445D01*
X33903608Y-82230832D01*
X33935529Y-82257006D01*
X33975524Y-82315666D01*
X33977455Y-82386636D01*
X33940710Y-82447384D01*
X33921941Y-82461584D01*
X33782193Y-82548063D01*
X33770792Y-82557099D01*
X33656261Y-82671829D01*
X33647249Y-82683240D01*
X33562184Y-82821243D01*
X33556037Y-82834424D01*
X33504862Y-82988710D01*
X33501995Y-83002086D01*
X33492328Y-83096438D01*
X33492000Y-83102855D01*
X33492000Y-83477885D01*
X33496475Y-83493124D01*
X33497865Y-83494329D01*
X33505548Y-83496000D01*
X36489884Y-83496000D01*
X36505123Y-83491525D01*
X36506328Y-83490135D01*
X36507999Y-83482452D01*
X36507999Y-83102905D01*
X36507662Y-83096386D01*
X36497743Y-83000794D01*
X36494851Y-82987400D01*
X36443412Y-82833216D01*
X36437239Y-82820038D01*
X36351937Y-82682193D01*
X36342901Y-82670792D01*
X36228171Y-82556261D01*
X36216757Y-82547247D01*
X36077287Y-82461277D01*
X36029793Y-82408505D01*
X36018369Y-82338434D01*
X36046643Y-82273310D01*
X36056430Y-82262847D01*
X36089991Y-82230832D01*
X36171135Y-82153424D01*
X36308754Y-81968458D01*
X36309344Y-81967298D01*
X36361336Y-81920750D01*
X36415529Y-81908500D01*
X41625444Y-81908500D01*
X41637300Y-81909059D01*
X41637303Y-81909059D01*
X41645037Y-81910788D01*
X41715869Y-81908562D01*
X41719827Y-81908500D01*
X41748932Y-81908500D01*
X41753332Y-81907944D01*
X41765164Y-81907012D01*
X41811331Y-81905562D01*
X41831921Y-81899580D01*
X41851282Y-81895570D01*
X41858270Y-81894688D01*
X41864704Y-81893875D01*
X41864705Y-81893875D01*
X41872564Y-81892882D01*
X41879929Y-81889966D01*
X41879933Y-81889965D01*
X41915521Y-81875874D01*
X41926731Y-81872035D01*
X41971100Y-81859145D01*
X41989565Y-81848225D01*
X42007305Y-81839534D01*
X42027256Y-81831635D01*
X42064629Y-81804482D01*
X42074548Y-81797967D01*
X42107477Y-81778493D01*
X42107481Y-81778490D01*
X42114307Y-81774453D01*
X42129471Y-81759289D01*
X42144505Y-81746448D01*
X42155443Y-81738501D01*
X42161857Y-81733841D01*
X42191303Y-81698247D01*
X42199292Y-81689468D01*
X42626405Y-81262355D01*
X42688717Y-81228329D01*
X42759532Y-81233394D01*
X42816368Y-81275941D01*
X42841179Y-81342461D01*
X42841500Y-81351450D01*
X42841500Y-83808375D01*
X42821411Y-83876630D01*
X42771235Y-83954488D01*
X42768826Y-83961108D01*
X42768824Y-83961111D01*
X42745199Y-84026020D01*
X42709197Y-84124935D01*
X42686463Y-84304890D01*
X42704163Y-84485410D01*
X42761418Y-84657523D01*
X42765065Y-84663545D01*
X42765066Y-84663547D01*
X42802040Y-84724598D01*
X42855380Y-84812674D01*
X42860269Y-84817737D01*
X42860270Y-84817738D01*
X42900936Y-84859848D01*
X42981382Y-84943152D01*
X42987278Y-84947010D01*
X43111467Y-85028277D01*
X43133159Y-85042472D01*
X43139763Y-85044928D01*
X43139765Y-85044929D01*
X43296558Y-85103240D01*
X43296560Y-85103240D01*
X43303168Y-85105698D01*
X43386995Y-85116883D01*
X43475980Y-85128757D01*
X43475984Y-85128757D01*
X43482961Y-85129688D01*
X43489972Y-85129050D01*
X43489976Y-85129050D01*
X43632459Y-85116082D01*
X43663600Y-85113248D01*
X43670302Y-85111070D01*
X43670304Y-85111070D01*
X43829409Y-85059374D01*
X43829412Y-85059373D01*
X43836108Y-85057197D01*
X43991912Y-84964319D01*
X44123266Y-84839232D01*
X44223643Y-84688152D01*
X44265423Y-84578167D01*
X44285555Y-84525170D01*
X44285556Y-84525168D01*
X44288055Y-84518588D01*
X44290961Y-84497914D01*
X44312748Y-84342889D01*
X44312748Y-84342886D01*
X44313299Y-84338967D01*
X44313616Y-84316250D01*
X44293397Y-84135995D01*
X44290856Y-84128699D01*
X44236064Y-83971356D01*
X44236062Y-83971353D01*
X44233745Y-83964698D01*
X44223662Y-83948562D01*
X44177646Y-83874920D01*
X44158500Y-83808151D01*
X44158500Y-80919516D01*
X44178502Y-80851395D01*
X44218196Y-80812373D01*
X44361848Y-80723478D01*
X44375321Y-80709982D01*
X44481634Y-80603483D01*
X44486805Y-80598303D01*
X44490646Y-80592072D01*
X44575775Y-80453968D01*
X44575776Y-80453966D01*
X44579615Y-80447738D01*
X44635297Y-80279861D01*
X44646000Y-80175400D01*
X44646000Y-78824600D01*
X44637081Y-78738640D01*
X44635738Y-78725692D01*
X44635737Y-78725688D01*
X44635026Y-78718834D01*
X44620019Y-78673851D01*
X44581368Y-78558002D01*
X44579050Y-78551054D01*
X44485978Y-78400652D01*
X44360803Y-78275695D01*
X44348798Y-78268295D01*
X44216468Y-78186725D01*
X44216466Y-78186724D01*
X44210238Y-78182885D01*
X44049754Y-78129655D01*
X44048889Y-78129368D01*
X44048887Y-78129368D01*
X44042361Y-78127203D01*
X44035525Y-78126503D01*
X44035522Y-78126502D01*
X43992469Y-78122091D01*
X43937900Y-78116500D01*
X43212100Y-78116500D01*
X43208854Y-78116837D01*
X43208850Y-78116837D01*
X43113192Y-78126762D01*
X43113188Y-78126763D01*
X43106334Y-78127474D01*
X43099798Y-78129655D01*
X43099796Y-78129655D01*
X42967694Y-78173728D01*
X42938554Y-78183450D01*
X42788152Y-78276522D01*
X42663195Y-78401697D01*
X42570385Y-78552262D01*
X42514703Y-78720139D01*
X42504000Y-78824600D01*
X42504000Y-79470050D01*
X42483998Y-79538171D01*
X42467095Y-79559145D01*
X41471645Y-80554595D01*
X41409333Y-80588621D01*
X41382550Y-80591500D01*
X36410425Y-80591500D01*
X36342304Y-80571498D01*
X36302706Y-80530866D01*
X36251623Y-80446683D01*
X36227948Y-80419400D01*
X36104023Y-80276588D01*
X36104021Y-80276586D01*
X36100523Y-80272555D01*
X36058970Y-80238484D01*
X35926373Y-80129760D01*
X35926367Y-80129756D01*
X35922245Y-80126376D01*
X35917609Y-80123737D01*
X35917606Y-80123735D01*
X35726529Y-80014968D01*
X35721886Y-80012325D01*
X35505175Y-79933663D01*
X35499926Y-79932714D01*
X35499923Y-79932713D01*
X35282392Y-79893377D01*
X35282385Y-79893376D01*
X35278308Y-79892639D01*
X35260586Y-79891803D01*
X35255644Y-79891570D01*
X35255637Y-79891570D01*
X35254156Y-79891500D01*
X34792110Y-79891500D01*
X34725191Y-79897178D01*
X34625591Y-79905629D01*
X34625587Y-79905630D01*
X34620280Y-79906080D01*
X34615125Y-79907418D01*
X34615119Y-79907419D01*
X34402297Y-79962657D01*
X34402293Y-79962658D01*
X34397128Y-79963999D01*
X34392262Y-79966191D01*
X34392259Y-79966192D01*
X34283980Y-80014968D01*
X34186925Y-80058688D01*
X33995681Y-80187441D01*
X33828865Y-80346576D01*
X33691246Y-80531542D01*
X33688830Y-80536293D01*
X33688828Y-80536297D01*
X33647889Y-80616819D01*
X33586760Y-80737051D01*
X33585178Y-80742145D01*
X33585177Y-80742148D01*
X33544609Y-80872797D01*
X33518393Y-80957227D01*
X33517692Y-80962516D01*
X33491895Y-81157158D01*
X33488102Y-81185774D01*
X25508500Y-81185774D01*
X25508500Y-38186434D01*
X32178921Y-38186434D01*
X32185708Y-38196135D01*
X32385023Y-38366365D01*
X32389709Y-38370000D01*
X32713442Y-38597523D01*
X32718432Y-38600690D01*
X33062141Y-38796739D01*
X33067422Y-38799429D01*
X33428053Y-38962260D01*
X33433544Y-38964434D01*
X33807906Y-39092607D01*
X33813590Y-39094259D01*
X34198347Y-39186631D01*
X34204162Y-39187740D01*
X34595889Y-39243490D01*
X34601802Y-39244049D01*
X34997031Y-39262688D01*
X35002969Y-39262688D01*
X35398198Y-39244049D01*
X35404111Y-39243490D01*
X35795838Y-39187740D01*
X35801653Y-39186631D01*
X36186410Y-39094259D01*
X36192094Y-39092607D01*
X36566456Y-38964434D01*
X36571947Y-38962260D01*
X36932578Y-38799429D01*
X36937859Y-38796739D01*
X37281568Y-38600690D01*
X37286558Y-38597523D01*
X37610291Y-38370000D01*
X37614977Y-38366365D01*
X37812722Y-38197476D01*
X37821152Y-38184562D01*
X37815145Y-38174355D01*
X35012812Y-35372022D01*
X34998868Y-35364408D01*
X34997035Y-35364539D01*
X34990420Y-35368790D01*
X32186313Y-38172897D01*
X32178921Y-38186434D01*
X25508500Y-38186434D01*
X25508500Y-34869073D01*
X30739322Y-34869073D01*
X30745537Y-35264679D01*
X30745911Y-35270629D01*
X30789327Y-35663895D01*
X30790257Y-35669766D01*
X30870494Y-36057212D01*
X30871970Y-36062960D01*
X30988316Y-36441151D01*
X30990320Y-36446716D01*
X31141745Y-36812288D01*
X31144267Y-36817647D01*
X31329411Y-37167323D01*
X31332436Y-37172440D01*
X31549669Y-37503144D01*
X31553159Y-37507947D01*
X31800292Y-37816420D01*
X31813130Y-37823694D01*
X31814439Y-37823621D01*
X31821852Y-37818938D01*
X34627978Y-35012812D01*
X34634356Y-35001132D01*
X35364408Y-35001132D01*
X35364539Y-35002965D01*
X35368790Y-35009580D01*
X38175271Y-37816061D01*
X38189215Y-37823675D01*
X38190524Y-37823582D01*
X38197360Y-37819112D01*
X38199454Y-37816737D01*
X38446841Y-37507947D01*
X38450331Y-37503144D01*
X38667564Y-37172440D01*
X38670589Y-37167323D01*
X38855733Y-36817647D01*
X38858255Y-36812288D01*
X39009680Y-36446716D01*
X39011684Y-36441151D01*
X39128030Y-36062960D01*
X39129506Y-36057212D01*
X39209743Y-35669766D01*
X39210673Y-35663895D01*
X39254145Y-35270124D01*
X39254494Y-35265196D01*
X39262750Y-35002468D01*
X39262711Y-34997530D01*
X39244049Y-34601802D01*
X39243490Y-34595889D01*
X39187740Y-34204162D01*
X39186631Y-34198347D01*
X39094259Y-33813590D01*
X39092607Y-33807906D01*
X38964434Y-33433544D01*
X38962260Y-33428053D01*
X38799429Y-33067422D01*
X38796739Y-33062141D01*
X38600690Y-32718432D01*
X38597523Y-32713442D01*
X38370000Y-32389709D01*
X38366365Y-32385023D01*
X38197476Y-32187278D01*
X38184562Y-32178848D01*
X38174355Y-32184855D01*
X35372022Y-34987188D01*
X35364408Y-35001132D01*
X34634356Y-35001132D01*
X34635592Y-34998868D01*
X34635461Y-34997035D01*
X34631210Y-34990420D01*
X31827402Y-32186612D01*
X31813458Y-32178998D01*
X31813205Y-32179016D01*
X31804463Y-32184930D01*
X31717436Y-32280572D01*
X31713649Y-32285150D01*
X31476088Y-32601551D01*
X31472744Y-32606471D01*
X31266001Y-32943845D01*
X31263153Y-32949025D01*
X31089072Y-33304370D01*
X31086723Y-33309797D01*
X30946858Y-33679939D01*
X30945026Y-33685578D01*
X30840622Y-34067215D01*
X30839323Y-34073028D01*
X30771295Y-34462811D01*
X30770554Y-34468674D01*
X30739507Y-34863147D01*
X30739322Y-34869073D01*
X25508500Y-34869073D01*
X25508500Y-31815964D01*
X32178939Y-31815964D01*
X32178945Y-31816217D01*
X32184445Y-31825235D01*
X34987188Y-34627978D01*
X35001132Y-34635592D01*
X35002965Y-34635461D01*
X35009580Y-34631210D01*
X37816061Y-31824729D01*
X37820847Y-31815964D01*
X112178939Y-31815964D01*
X112178945Y-31816217D01*
X112184445Y-31825235D01*
X114987188Y-34627978D01*
X115001132Y-34635592D01*
X115002965Y-34635461D01*
X115009580Y-34631210D01*
X117816061Y-31824729D01*
X117823675Y-31810785D01*
X117823582Y-31809476D01*
X117819112Y-31802640D01*
X117816737Y-31800546D01*
X117507947Y-31553159D01*
X117503144Y-31549669D01*
X117172440Y-31332436D01*
X117167323Y-31329411D01*
X116817647Y-31144267D01*
X116812288Y-31141745D01*
X116446716Y-30990320D01*
X116441151Y-30988316D01*
X116062960Y-30871970D01*
X116057212Y-30870494D01*
X115669766Y-30790257D01*
X115663895Y-30789327D01*
X115270629Y-30745911D01*
X115264679Y-30745537D01*
X114869073Y-30739322D01*
X114863147Y-30739507D01*
X114468674Y-30770554D01*
X114462811Y-30771295D01*
X114073028Y-30839323D01*
X114067215Y-30840622D01*
X113685578Y-30945026D01*
X113679939Y-30946858D01*
X113309797Y-31086723D01*
X113304370Y-31089072D01*
X112949025Y-31263153D01*
X112943845Y-31266001D01*
X112606471Y-31472744D01*
X112601551Y-31476088D01*
X112285150Y-31713649D01*
X112280572Y-31717436D01*
X112187199Y-31802398D01*
X112178939Y-31815964D01*
X37820847Y-31815964D01*
X37823675Y-31810785D01*
X37823582Y-31809476D01*
X37819112Y-31802640D01*
X37816737Y-31800546D01*
X37507947Y-31553159D01*
X37503144Y-31549669D01*
X37172440Y-31332436D01*
X37167323Y-31329411D01*
X36817647Y-31144267D01*
X36812288Y-31141745D01*
X36446716Y-30990320D01*
X36441151Y-30988316D01*
X36062960Y-30871970D01*
X36057212Y-30870494D01*
X35669766Y-30790257D01*
X35663895Y-30789327D01*
X35270629Y-30745911D01*
X35264679Y-30745537D01*
X34869073Y-30739322D01*
X34863147Y-30739507D01*
X34468674Y-30770554D01*
X34462811Y-30771295D01*
X34073028Y-30839323D01*
X34067215Y-30840622D01*
X33685578Y-30945026D01*
X33679939Y-30946858D01*
X33309797Y-31086723D01*
X33304370Y-31089072D01*
X32949025Y-31263153D01*
X32943845Y-31266001D01*
X32606471Y-31472744D01*
X32601551Y-31476088D01*
X32285150Y-31713649D01*
X32280572Y-31717436D01*
X32187199Y-31802398D01*
X32178939Y-31815964D01*
X25508500Y-31815964D01*
X25508500Y-25634500D01*
X25528502Y-25566379D01*
X25582158Y-25519886D01*
X25634500Y-25508500D01*
X124365500Y-25508500D01*
X124433621Y-25528502D01*
G37*
%TD.AperFunction*%
%TA.AperFunction,Conductor*%
G36*
X91639618Y-53428502D02*
G01*
X91660592Y-53445405D01*
X94174595Y-55959408D01*
X94208621Y-56021720D01*
X94211500Y-56048503D01*
X94211500Y-68927610D01*
X94226458Y-69069928D01*
X94285473Y-69251556D01*
X94288776Y-69257278D01*
X94288777Y-69257279D01*
X94320385Y-69312025D01*
X94380960Y-69416944D01*
X94385378Y-69421851D01*
X94385379Y-69421852D01*
X94451828Y-69495651D01*
X94508747Y-69558866D01*
X94582649Y-69612559D01*
X94618263Y-69638434D01*
X94663248Y-69671118D01*
X94669276Y-69673802D01*
X94669278Y-69673803D01*
X94820907Y-69741312D01*
X94837712Y-69748794D01*
X94925759Y-69767509D01*
X95018056Y-69787128D01*
X95018061Y-69787128D01*
X95024513Y-69788500D01*
X95215487Y-69788500D01*
X95221939Y-69787128D01*
X95221944Y-69787128D01*
X95314241Y-69767509D01*
X95402288Y-69748794D01*
X95419093Y-69741312D01*
X95570722Y-69673803D01*
X95570724Y-69673802D01*
X95576752Y-69671118D01*
X95621738Y-69638434D01*
X95657351Y-69612559D01*
X95731253Y-69558866D01*
X95788172Y-69495651D01*
X95854621Y-69421852D01*
X95854622Y-69421851D01*
X95859040Y-69416944D01*
X95919615Y-69312025D01*
X95951223Y-69257279D01*
X95951224Y-69257278D01*
X95954527Y-69251556D01*
X96013542Y-69069928D01*
X96028500Y-68927610D01*
X96028500Y-55701416D01*
X96030051Y-55681704D01*
X96031220Y-55674324D01*
X96032252Y-55667809D01*
X96031506Y-55653562D01*
X96031167Y-55647095D01*
X113017001Y-55647095D01*
X113017338Y-55653614D01*
X113027257Y-55749206D01*
X113030149Y-55762600D01*
X113081588Y-55916784D01*
X113087761Y-55929962D01*
X113173063Y-56067807D01*
X113182099Y-56079208D01*
X113296829Y-56193739D01*
X113308240Y-56202751D01*
X113446243Y-56287816D01*
X113459424Y-56293963D01*
X113613710Y-56345138D01*
X113627086Y-56348005D01*
X113721438Y-56357672D01*
X113727854Y-56358000D01*
X114227885Y-56358000D01*
X114243124Y-56353525D01*
X114244329Y-56352135D01*
X114246000Y-56344452D01*
X114246000Y-56339884D01*
X114754000Y-56339884D01*
X114758475Y-56355123D01*
X114759865Y-56356328D01*
X114767548Y-56357999D01*
X115272095Y-56357999D01*
X115278614Y-56357662D01*
X115374206Y-56347743D01*
X115387600Y-56344851D01*
X115541784Y-56293412D01*
X115554962Y-56287239D01*
X115692807Y-56201937D01*
X115704208Y-56192901D01*
X115818739Y-56078171D01*
X115827751Y-56066760D01*
X115912816Y-55928757D01*
X115918963Y-55915576D01*
X115970138Y-55761290D01*
X115973005Y-55747914D01*
X115982672Y-55653562D01*
X115983000Y-55647146D01*
X115983000Y-55272115D01*
X115978525Y-55256876D01*
X115977135Y-55255671D01*
X115969452Y-55254000D01*
X114772115Y-55254000D01*
X114756876Y-55258475D01*
X114755671Y-55259865D01*
X114754000Y-55267548D01*
X114754000Y-56339884D01*
X114246000Y-56339884D01*
X114246000Y-55272115D01*
X114241525Y-55256876D01*
X114240135Y-55255671D01*
X114232452Y-55254000D01*
X113035116Y-55254000D01*
X113019877Y-55258475D01*
X113018672Y-55259865D01*
X113017001Y-55267548D01*
X113017001Y-55647095D01*
X96031167Y-55647095D01*
X96028673Y-55599519D01*
X96028500Y-55592925D01*
X96028500Y-55572390D01*
X96026353Y-55551960D01*
X96025836Y-55545385D01*
X96022603Y-55483696D01*
X96022603Y-55483695D01*
X96022257Y-55477096D01*
X96018616Y-55463508D01*
X96015012Y-55444061D01*
X96014233Y-55436644D01*
X96014232Y-55436640D01*
X96013542Y-55430072D01*
X95992402Y-55365009D01*
X95990529Y-55358685D01*
X95974539Y-55299010D01*
X95974538Y-55299006D01*
X95972829Y-55292630D01*
X95966440Y-55280092D01*
X95958875Y-55261826D01*
X95956569Y-55254728D01*
X95956568Y-55254726D01*
X95954527Y-55248444D01*
X95920331Y-55189215D01*
X95917185Y-55183421D01*
X95886129Y-55122470D01*
X95877273Y-55111533D01*
X95866073Y-55095237D01*
X95862343Y-55088776D01*
X95862340Y-55088772D01*
X95859040Y-55083056D01*
X95854623Y-55078150D01*
X95854619Y-55078145D01*
X95813278Y-55032231D01*
X95808994Y-55027216D01*
X95798148Y-55013823D01*
X95796072Y-55011259D01*
X95781557Y-54996744D01*
X95777016Y-54991959D01*
X95735673Y-54946043D01*
X95731253Y-54941134D01*
X95719865Y-54932860D01*
X95704832Y-54920019D01*
X94408408Y-53623595D01*
X94374382Y-53561283D01*
X94379447Y-53490468D01*
X94421994Y-53433632D01*
X94488514Y-53408821D01*
X94497503Y-53408500D01*
X113307162Y-53408500D01*
X113375283Y-53428502D01*
X113402328Y-53451921D01*
X113420972Y-53473407D01*
X113420979Y-53473413D01*
X113424477Y-53477445D01*
X113428608Y-53480832D01*
X113460529Y-53507006D01*
X113500524Y-53565666D01*
X113502455Y-53636636D01*
X113465710Y-53697384D01*
X113446941Y-53711584D01*
X113307193Y-53798063D01*
X113295792Y-53807099D01*
X113181261Y-53921829D01*
X113172249Y-53933240D01*
X113087184Y-54071243D01*
X113081037Y-54084424D01*
X113029862Y-54238710D01*
X113026995Y-54252086D01*
X113017328Y-54346438D01*
X113017000Y-54352855D01*
X113017000Y-54727885D01*
X113021475Y-54743124D01*
X113022865Y-54744329D01*
X113030548Y-54746000D01*
X115964884Y-54746000D01*
X115980123Y-54741525D01*
X115981328Y-54740135D01*
X115982999Y-54732452D01*
X115982999Y-54352905D01*
X115982662Y-54346386D01*
X115972743Y-54250794D01*
X115969851Y-54237400D01*
X115918412Y-54083216D01*
X115912239Y-54070038D01*
X115826937Y-53932193D01*
X115817901Y-53920792D01*
X115703171Y-53806261D01*
X115691757Y-53797247D01*
X115552287Y-53711277D01*
X115504793Y-53658505D01*
X115493369Y-53588434D01*
X115521643Y-53523310D01*
X115531431Y-53512847D01*
X115604304Y-53443330D01*
X115667400Y-53410783D01*
X115691275Y-53408500D01*
X117071497Y-53408500D01*
X117139618Y-53428502D01*
X117160592Y-53445405D01*
X118554595Y-54839408D01*
X118588621Y-54901720D01*
X118591500Y-54928503D01*
X118591500Y-68502497D01*
X118571498Y-68570618D01*
X118517842Y-68617111D01*
X118447568Y-68627215D01*
X118382988Y-68597721D01*
X118376405Y-68591592D01*
X117749981Y-67965168D01*
X117737140Y-67950135D01*
X117732746Y-67944087D01*
X117732745Y-67944086D01*
X117728866Y-67938747D01*
X117678041Y-67892984D01*
X117673256Y-67888443D01*
X117658741Y-67873928D01*
X117651282Y-67867888D01*
X117642784Y-67861006D01*
X117637769Y-67856722D01*
X117591855Y-67815381D01*
X117591850Y-67815377D01*
X117586944Y-67810960D01*
X117581228Y-67807660D01*
X117581224Y-67807657D01*
X117574763Y-67803927D01*
X117558466Y-67792727D01*
X117552660Y-67788025D01*
X117552658Y-67788024D01*
X117547530Y-67783871D01*
X117486577Y-67752814D01*
X117480782Y-67749667D01*
X117427279Y-67718777D01*
X117427278Y-67718776D01*
X117421556Y-67715473D01*
X117415274Y-67713432D01*
X117415272Y-67713431D01*
X117408174Y-67711125D01*
X117389907Y-67703559D01*
X117389795Y-67703502D01*
X117377370Y-67697171D01*
X117311299Y-67679467D01*
X117304997Y-67677600D01*
X117239928Y-67656458D01*
X117233363Y-67655768D01*
X117233354Y-67655766D01*
X117225925Y-67654985D01*
X117206491Y-67651383D01*
X117199286Y-67649453D01*
X117199284Y-67649453D01*
X117192903Y-67647743D01*
X117186312Y-67647398D01*
X117186308Y-67647397D01*
X117124616Y-67644164D01*
X117118042Y-67643647D01*
X117100884Y-67641844D01*
X117100882Y-67641844D01*
X117097610Y-67641500D01*
X117077074Y-67641500D01*
X117070480Y-67641327D01*
X117008782Y-67638093D01*
X117008777Y-67638093D01*
X117002190Y-67637748D01*
X116988292Y-67639949D01*
X116968583Y-67641500D01*
X116192838Y-67641500D01*
X116124717Y-67621498D01*
X116097672Y-67598079D01*
X116079028Y-67576593D01*
X116079021Y-67576587D01*
X116075523Y-67572555D01*
X116033698Y-67538261D01*
X115901373Y-67429760D01*
X115901367Y-67429756D01*
X115897245Y-67426376D01*
X115865750Y-67408448D01*
X115816445Y-67357368D01*
X115802583Y-67287738D01*
X115828566Y-67221667D01*
X115857716Y-67194427D01*
X115917510Y-67154171D01*
X115979319Y-67112559D01*
X116146135Y-66953424D01*
X116283754Y-66768458D01*
X116318570Y-66699981D01*
X116352279Y-66633679D01*
X116388240Y-66562949D01*
X116389880Y-66557670D01*
X116455024Y-66347871D01*
X116456607Y-66342773D01*
X116457869Y-66333249D01*
X116486198Y-66119511D01*
X116486198Y-66119506D01*
X116486898Y-66114226D01*
X116478249Y-65883842D01*
X116430907Y-65658209D01*
X116423565Y-65639618D01*
X116348185Y-65448744D01*
X116348184Y-65448742D01*
X116346224Y-65443779D01*
X116342170Y-65437097D01*
X116229390Y-65251243D01*
X116226623Y-65246683D01*
X116139755Y-65146576D01*
X116079023Y-65076588D01*
X116079021Y-65076586D01*
X116075523Y-65072555D01*
X115977561Y-64992231D01*
X115901373Y-64929760D01*
X115901367Y-64929756D01*
X115897245Y-64926376D01*
X115865750Y-64908448D01*
X115816445Y-64857368D01*
X115802583Y-64787738D01*
X115828566Y-64721667D01*
X115857716Y-64694427D01*
X115905685Y-64662132D01*
X115979319Y-64612559D01*
X116033515Y-64560859D01*
X116115169Y-64482964D01*
X116146135Y-64453424D01*
X116283754Y-64268458D01*
X116293102Y-64250073D01*
X116355791Y-64126772D01*
X116388240Y-64062949D01*
X116394405Y-64043097D01*
X116455024Y-63847871D01*
X116456607Y-63842773D01*
X116465934Y-63772402D01*
X116486198Y-63619511D01*
X116486198Y-63619506D01*
X116486898Y-63614226D01*
X116478249Y-63383842D01*
X116430907Y-63158209D01*
X116346224Y-62943779D01*
X116226623Y-62746683D01*
X116139755Y-62646576D01*
X116079023Y-62576588D01*
X116079021Y-62576586D01*
X116075523Y-62572555D01*
X116033970Y-62538484D01*
X115901373Y-62429760D01*
X115901367Y-62429756D01*
X115897245Y-62426376D01*
X115892609Y-62423737D01*
X115892606Y-62423735D01*
X115701529Y-62314968D01*
X115696886Y-62312325D01*
X115480175Y-62233663D01*
X115474926Y-62232714D01*
X115474923Y-62232713D01*
X115257392Y-62193377D01*
X115257385Y-62193376D01*
X115253308Y-62192639D01*
X115235586Y-62191803D01*
X115230644Y-62191570D01*
X115230637Y-62191570D01*
X115229156Y-62191500D01*
X114817110Y-62191500D01*
X114750191Y-62197178D01*
X114650591Y-62205629D01*
X114650587Y-62205630D01*
X114645280Y-62206080D01*
X114640125Y-62207418D01*
X114640119Y-62207419D01*
X114427297Y-62262657D01*
X114427293Y-62262658D01*
X114422128Y-62263999D01*
X114417262Y-62266191D01*
X114417259Y-62266192D01*
X114308980Y-62314968D01*
X114211925Y-62358688D01*
X114020681Y-62487441D01*
X113853865Y-62646576D01*
X113716246Y-62831542D01*
X113713830Y-62836293D01*
X113713828Y-62836297D01*
X113664003Y-62934297D01*
X113611760Y-63037051D01*
X113610178Y-63042145D01*
X113610177Y-63042148D01*
X113562644Y-63195229D01*
X113543393Y-63257227D01*
X113542692Y-63262516D01*
X113526525Y-63384500D01*
X113513102Y-63485774D01*
X113521751Y-63716158D01*
X113569093Y-63941791D01*
X113571051Y-63946750D01*
X113571052Y-63946752D01*
X113641804Y-64125905D01*
X113653776Y-64156221D01*
X113656543Y-64160780D01*
X113656544Y-64160783D01*
X113709025Y-64247268D01*
X113773377Y-64353317D01*
X113776874Y-64357347D01*
X113885879Y-64482964D01*
X113924477Y-64527445D01*
X113946671Y-64545643D01*
X114098627Y-64670240D01*
X114098633Y-64670244D01*
X114102755Y-64673624D01*
X114134250Y-64691552D01*
X114183555Y-64742632D01*
X114197417Y-64812262D01*
X114171434Y-64878333D01*
X114142284Y-64905573D01*
X114020681Y-64987441D01*
X114016824Y-64991120D01*
X114016822Y-64991122D01*
X113950342Y-65054541D01*
X113853865Y-65146576D01*
X113716246Y-65331542D01*
X113611760Y-65537051D01*
X113610178Y-65542145D01*
X113610177Y-65542148D01*
X113554423Y-65721705D01*
X113543393Y-65757227D01*
X113542692Y-65762516D01*
X113517007Y-65956313D01*
X113513102Y-65985774D01*
X113521751Y-66216158D01*
X113569093Y-66441791D01*
X113571051Y-66446750D01*
X113571052Y-66446752D01*
X113644874Y-66633679D01*
X113653776Y-66656221D01*
X113656543Y-66660780D01*
X113656544Y-66660783D01*
X113724482Y-66772740D01*
X113773377Y-66853317D01*
X113776874Y-66857347D01*
X113915445Y-67017036D01*
X113924477Y-67027445D01*
X113966030Y-67061516D01*
X114098627Y-67170240D01*
X114098633Y-67170244D01*
X114102755Y-67173624D01*
X114134250Y-67191552D01*
X114183555Y-67242632D01*
X114197417Y-67312262D01*
X114171434Y-67378333D01*
X114142284Y-67405573D01*
X114020681Y-67487441D01*
X113853865Y-67646576D01*
X113850682Y-67650854D01*
X113844995Y-67658498D01*
X113716246Y-67831542D01*
X113713830Y-67836293D01*
X113713828Y-67836297D01*
X113685007Y-67892984D01*
X113611760Y-68037051D01*
X113610178Y-68042145D01*
X113610177Y-68042148D01*
X113583219Y-68128968D01*
X113543393Y-68257227D01*
X113542692Y-68262516D01*
X113514413Y-68475886D01*
X113513102Y-68485774D01*
X113521751Y-68716158D01*
X113569093Y-68941791D01*
X113571051Y-68946750D01*
X113571052Y-68946752D01*
X113649290Y-69144861D01*
X113653776Y-69156221D01*
X113656543Y-69160780D01*
X113656544Y-69160783D01*
X113657683Y-69162660D01*
X113773377Y-69353317D01*
X113776874Y-69357347D01*
X113904100Y-69503962D01*
X113924477Y-69527445D01*
X113928608Y-69530832D01*
X113960529Y-69557006D01*
X114000524Y-69615666D01*
X114002455Y-69686636D01*
X113965710Y-69747384D01*
X113946941Y-69761584D01*
X113807193Y-69848063D01*
X113795792Y-69857099D01*
X113681261Y-69971829D01*
X113672249Y-69983240D01*
X113587184Y-70121243D01*
X113581037Y-70134424D01*
X113529862Y-70288710D01*
X113526995Y-70302086D01*
X113517328Y-70396438D01*
X113517000Y-70402855D01*
X113517000Y-70777885D01*
X113521475Y-70793124D01*
X113522865Y-70794329D01*
X113530548Y-70796000D01*
X116464884Y-70796000D01*
X116480123Y-70791525D01*
X116481328Y-70790135D01*
X116482999Y-70782452D01*
X116482999Y-70402905D01*
X116482662Y-70396386D01*
X116472743Y-70300794D01*
X116469851Y-70287400D01*
X116418412Y-70133216D01*
X116412239Y-70120038D01*
X116326937Y-69982193D01*
X116317901Y-69970792D01*
X116203171Y-69856261D01*
X116191757Y-69847247D01*
X116052287Y-69761277D01*
X116004793Y-69708505D01*
X115993369Y-69638434D01*
X116021643Y-69573310D01*
X116031431Y-69562847D01*
X116104304Y-69493330D01*
X116167400Y-69460783D01*
X116191275Y-69458500D01*
X116621497Y-69458500D01*
X116689618Y-69478502D01*
X116710592Y-69495405D01*
X118554595Y-71339408D01*
X118588621Y-71401720D01*
X118591500Y-71428503D01*
X118591500Y-98571497D01*
X118571498Y-98639618D01*
X118554595Y-98660592D01*
X117060592Y-100154595D01*
X116998280Y-100188621D01*
X116971497Y-100191500D01*
X116258498Y-100191500D01*
X116190377Y-100171498D01*
X116143884Y-100117842D01*
X116140516Y-100109730D01*
X116103767Y-100011703D01*
X116100615Y-100003295D01*
X116013261Y-99886739D01*
X115896705Y-99799385D01*
X115884132Y-99794672D01*
X115778203Y-99754960D01*
X115721439Y-99712318D01*
X115696739Y-99645756D01*
X115711947Y-99576408D01*
X115733493Y-99547727D01*
X115756532Y-99524768D01*
X115838096Y-99443489D01*
X115847231Y-99430777D01*
X115965435Y-99266277D01*
X115968453Y-99262077D01*
X116001006Y-99196212D01*
X116065136Y-99066453D01*
X116065137Y-99066451D01*
X116067430Y-99061811D01*
X116132370Y-98848069D01*
X116161529Y-98626590D01*
X116163156Y-98560000D01*
X116144852Y-98337361D01*
X116090431Y-98120702D01*
X116001354Y-97915840D01*
X115948363Y-97833929D01*
X115882822Y-97732617D01*
X115882820Y-97732614D01*
X115880014Y-97728277D01*
X115729670Y-97563051D01*
X115725619Y-97559852D01*
X115725615Y-97559848D01*
X115558414Y-97427800D01*
X115558410Y-97427798D01*
X115554359Y-97424598D01*
X115513053Y-97401796D01*
X115463084Y-97351364D01*
X115448312Y-97281921D01*
X115473428Y-97215516D01*
X115500780Y-97188909D01*
X115544603Y-97157650D01*
X115679860Y-97061173D01*
X115838096Y-96903489D01*
X115865742Y-96865016D01*
X115965435Y-96726277D01*
X115968453Y-96722077D01*
X116067430Y-96521811D01*
X116132370Y-96308069D01*
X116161529Y-96086590D01*
X116161611Y-96083240D01*
X116163074Y-96023365D01*
X116163074Y-96023361D01*
X116163156Y-96020000D01*
X116144852Y-95797361D01*
X116090431Y-95580702D01*
X116001354Y-95375840D01*
X115880014Y-95188277D01*
X115729670Y-95023051D01*
X115725619Y-95019852D01*
X115725615Y-95019848D01*
X115558414Y-94887800D01*
X115558410Y-94887798D01*
X115554359Y-94884598D01*
X115513053Y-94861796D01*
X115463084Y-94811364D01*
X115448312Y-94741921D01*
X115473428Y-94675516D01*
X115500780Y-94648909D01*
X115544603Y-94617650D01*
X115679860Y-94521173D01*
X115838096Y-94363489D01*
X115868270Y-94321498D01*
X115965435Y-94186277D01*
X115968453Y-94182077D01*
X115973778Y-94171304D01*
X116065136Y-93986453D01*
X116065137Y-93986451D01*
X116067430Y-93981811D01*
X116132370Y-93768069D01*
X116161529Y-93546590D01*
X116163156Y-93480000D01*
X116144852Y-93257361D01*
X116090431Y-93040702D01*
X116001354Y-92835840D01*
X115961906Y-92774862D01*
X115882822Y-92652617D01*
X115882820Y-92652614D01*
X115880014Y-92648277D01*
X115729670Y-92483051D01*
X115725619Y-92479852D01*
X115725615Y-92479848D01*
X115558414Y-92347800D01*
X115558410Y-92347798D01*
X115554359Y-92344598D01*
X115513053Y-92321796D01*
X115463084Y-92271364D01*
X115448312Y-92201921D01*
X115473428Y-92135516D01*
X115500780Y-92108909D01*
X115544603Y-92077650D01*
X115679860Y-91981173D01*
X115838096Y-91823489D01*
X115908923Y-91724923D01*
X115965435Y-91646277D01*
X115968453Y-91642077D01*
X115990556Y-91597356D01*
X116065136Y-91446453D01*
X116065137Y-91446451D01*
X116067430Y-91441811D01*
X116132370Y-91228069D01*
X116161529Y-91006590D01*
X116163156Y-90940000D01*
X116144852Y-90717361D01*
X116090431Y-90500702D01*
X116001354Y-90295840D01*
X115880014Y-90108277D01*
X115729670Y-89943051D01*
X115725619Y-89939852D01*
X115725615Y-89939848D01*
X115558414Y-89807800D01*
X115558410Y-89807798D01*
X115554359Y-89804598D01*
X115513053Y-89781796D01*
X115463084Y-89731364D01*
X115448312Y-89661921D01*
X115473428Y-89595516D01*
X115500780Y-89568909D01*
X115544603Y-89537650D01*
X115679860Y-89441173D01*
X115838096Y-89283489D01*
X115897594Y-89200689D01*
X115965435Y-89106277D01*
X115968453Y-89102077D01*
X115985766Y-89067048D01*
X116065136Y-88906453D01*
X116065137Y-88906451D01*
X116067430Y-88901811D01*
X116074840Y-88877422D01*
X116106303Y-88824957D01*
X117907600Y-87023659D01*
X117916381Y-87015669D01*
X117916390Y-87015661D01*
X117923080Y-87011416D01*
X117971621Y-86959725D01*
X117974375Y-86956884D01*
X117994926Y-86936333D01*
X117997638Y-86932837D01*
X118005349Y-86923808D01*
X118026605Y-86901173D01*
X118036972Y-86890133D01*
X118047301Y-86871345D01*
X118058158Y-86854816D01*
X118066447Y-86844131D01*
X118066448Y-86844129D01*
X118071304Y-86837869D01*
X118089657Y-86795456D01*
X118094868Y-86784819D01*
X118117124Y-86744337D01*
X118122457Y-86723566D01*
X118128859Y-86704864D01*
X118137379Y-86685177D01*
X118144605Y-86639552D01*
X118147013Y-86627926D01*
X118156529Y-86590865D01*
X118156529Y-86590864D01*
X118158500Y-86583188D01*
X118158500Y-86561742D01*
X118160051Y-86542031D01*
X118162166Y-86528678D01*
X118163406Y-86520849D01*
X118159059Y-86474864D01*
X118158500Y-86463006D01*
X118158500Y-81082060D01*
X118159059Y-81070203D01*
X118160789Y-81062463D01*
X118158562Y-80991599D01*
X118158500Y-80987641D01*
X118158500Y-80958568D01*
X118157947Y-80954189D01*
X118157014Y-80942346D01*
X118155812Y-80904089D01*
X118155812Y-80904088D01*
X118155563Y-80896169D01*
X118149579Y-80875571D01*
X118145571Y-80856218D01*
X118144961Y-80851395D01*
X118142882Y-80834936D01*
X118137644Y-80821705D01*
X118125875Y-80791982D01*
X118122029Y-80780747D01*
X118111358Y-80744016D01*
X118111357Y-80744013D01*
X118109145Y-80736400D01*
X118098225Y-80717935D01*
X118089534Y-80700195D01*
X118081635Y-80680244D01*
X118054482Y-80642871D01*
X118047967Y-80632952D01*
X118028493Y-80600023D01*
X118028490Y-80600019D01*
X118024453Y-80593193D01*
X118009289Y-80578029D01*
X117996448Y-80562995D01*
X117988501Y-80552057D01*
X117983841Y-80545643D01*
X117948247Y-80516197D01*
X117939468Y-80508208D01*
X112523655Y-75092395D01*
X112515665Y-75083615D01*
X112515663Y-75083613D01*
X112511416Y-75076920D01*
X112459742Y-75028395D01*
X112456901Y-75025641D01*
X112436333Y-75005073D01*
X112432826Y-75002353D01*
X112423804Y-74994647D01*
X112395913Y-74968456D01*
X112390133Y-74963028D01*
X112383181Y-74959206D01*
X112371342Y-74952697D01*
X112354818Y-74941843D01*
X112344132Y-74933555D01*
X112337868Y-74928696D01*
X112330596Y-74925549D01*
X112330594Y-74925548D01*
X112295465Y-74910346D01*
X112284805Y-74905124D01*
X112251284Y-74886695D01*
X112251282Y-74886694D01*
X112244337Y-74882876D01*
X112223559Y-74877541D01*
X112204869Y-74871142D01*
X112185176Y-74862620D01*
X112139552Y-74855394D01*
X112127929Y-74852987D01*
X112099928Y-74845798D01*
X112083188Y-74841500D01*
X112061741Y-74841500D01*
X112042031Y-74839949D01*
X112028677Y-74837834D01*
X112020848Y-74836594D01*
X111974859Y-74840941D01*
X111963004Y-74841500D01*
X87393951Y-74841500D01*
X87325830Y-74821498D01*
X87279337Y-74767842D01*
X87269233Y-74697568D01*
X87298727Y-74632988D01*
X87304855Y-74626405D01*
X87600961Y-74330298D01*
X87662640Y-74297085D01*
X87663600Y-74296998D01*
X87752463Y-74268125D01*
X87829409Y-74243124D01*
X87829412Y-74243123D01*
X87836108Y-74240947D01*
X87991912Y-74148069D01*
X88123266Y-74022982D01*
X88223643Y-73871902D01*
X88288055Y-73702338D01*
X88313299Y-73522717D01*
X88313616Y-73500000D01*
X88293397Y-73319745D01*
X88291080Y-73313091D01*
X88236064Y-73155106D01*
X88236062Y-73155103D01*
X88233745Y-73148448D01*
X88137626Y-72994624D01*
X88123941Y-72980843D01*
X88014778Y-72870915D01*
X88014774Y-72870912D01*
X88009815Y-72865918D01*
X87996109Y-72857220D01*
X87949312Y-72803831D01*
X87938807Y-72733616D01*
X87967932Y-72668868D01*
X87986703Y-72651174D01*
X87991912Y-72648069D01*
X88123266Y-72522982D01*
X88223643Y-72371902D01*
X88272328Y-72243739D01*
X88285555Y-72208920D01*
X88285556Y-72208918D01*
X88288055Y-72202338D01*
X88289035Y-72195366D01*
X88312748Y-72026639D01*
X88312748Y-72026636D01*
X88313299Y-72022717D01*
X88313616Y-72000000D01*
X88293397Y-71819745D01*
X88252938Y-71703562D01*
X88250686Y-71697095D01*
X113517001Y-71697095D01*
X113517338Y-71703614D01*
X113527257Y-71799206D01*
X113530149Y-71812600D01*
X113581588Y-71966784D01*
X113587761Y-71979962D01*
X113673063Y-72117807D01*
X113682099Y-72129208D01*
X113796829Y-72243739D01*
X113808240Y-72252751D01*
X113946243Y-72337816D01*
X113959424Y-72343963D01*
X114113710Y-72395138D01*
X114127086Y-72398005D01*
X114221438Y-72407672D01*
X114227854Y-72408000D01*
X114727885Y-72408000D01*
X114743124Y-72403525D01*
X114744329Y-72402135D01*
X114746000Y-72394452D01*
X114746000Y-72389884D01*
X115254000Y-72389884D01*
X115258475Y-72405123D01*
X115259865Y-72406328D01*
X115267548Y-72407999D01*
X115772095Y-72407999D01*
X115778614Y-72407662D01*
X115874206Y-72397743D01*
X115887600Y-72394851D01*
X116041784Y-72343412D01*
X116054962Y-72337239D01*
X116192807Y-72251937D01*
X116204208Y-72242901D01*
X116318739Y-72128171D01*
X116327751Y-72116760D01*
X116412816Y-71978757D01*
X116418963Y-71965576D01*
X116470138Y-71811290D01*
X116473005Y-71797914D01*
X116482672Y-71703562D01*
X116483000Y-71697146D01*
X116483000Y-71322115D01*
X116478525Y-71306876D01*
X116477135Y-71305671D01*
X116469452Y-71304000D01*
X115272115Y-71304000D01*
X115256876Y-71308475D01*
X115255671Y-71309865D01*
X115254000Y-71317548D01*
X115254000Y-72389884D01*
X114746000Y-72389884D01*
X114746000Y-71322115D01*
X114741525Y-71306876D01*
X114740135Y-71305671D01*
X114732452Y-71304000D01*
X113535116Y-71304000D01*
X113519877Y-71308475D01*
X113518672Y-71309865D01*
X113517001Y-71317548D01*
X113517001Y-71697095D01*
X88250686Y-71697095D01*
X88236064Y-71655106D01*
X88236062Y-71655103D01*
X88233745Y-71648448D01*
X88137626Y-71494624D01*
X88071965Y-71428503D01*
X88014778Y-71370915D01*
X88014774Y-71370912D01*
X88009815Y-71365918D01*
X87996109Y-71357220D01*
X87949312Y-71303831D01*
X87938807Y-71233616D01*
X87967932Y-71168868D01*
X87986703Y-71151174D01*
X87991912Y-71148069D01*
X88123266Y-71022982D01*
X88223643Y-70871902D01*
X88288055Y-70702338D01*
X88289035Y-70695366D01*
X88312748Y-70526639D01*
X88312748Y-70526636D01*
X88313299Y-70522717D01*
X88313616Y-70500000D01*
X88293397Y-70319745D01*
X88291080Y-70313091D01*
X88236064Y-70155106D01*
X88236062Y-70155103D01*
X88233745Y-70148448D01*
X88137626Y-69994624D01*
X88126321Y-69983240D01*
X88014778Y-69870915D01*
X88014774Y-69870912D01*
X88009815Y-69865918D01*
X87998697Y-69858862D01*
X87950538Y-69828300D01*
X87856666Y-69768727D01*
X87807958Y-69751383D01*
X87692425Y-69710243D01*
X87692420Y-69710242D01*
X87685790Y-69707881D01*
X87678802Y-69707048D01*
X87678799Y-69707047D01*
X87552609Y-69692000D01*
X87505680Y-69686404D01*
X87498677Y-69687140D01*
X87498676Y-69687140D01*
X87332288Y-69704628D01*
X87332286Y-69704629D01*
X87325288Y-69705364D01*
X87235094Y-69736068D01*
X87160249Y-69761547D01*
X87160246Y-69761548D01*
X87153579Y-69763818D01*
X87147581Y-69767508D01*
X87147579Y-69767509D01*
X87057676Y-69822818D01*
X86991654Y-69841500D01*
X83237368Y-69841500D01*
X83169247Y-69821498D01*
X83122754Y-69767842D01*
X83112650Y-69697568D01*
X83142144Y-69632988D01*
X83157124Y-69619239D01*
X83156945Y-69619040D01*
X83207769Y-69573278D01*
X83212784Y-69568994D01*
X83221282Y-69562112D01*
X83228741Y-69556072D01*
X83243256Y-69541557D01*
X83248041Y-69537016D01*
X83293957Y-69495673D01*
X83298866Y-69491253D01*
X83307140Y-69479865D01*
X83319981Y-69464832D01*
X86084832Y-66699981D01*
X86099865Y-66687140D01*
X86105913Y-66682746D01*
X86105914Y-66682745D01*
X86111253Y-66678866D01*
X86157016Y-66628041D01*
X86161557Y-66623256D01*
X86176072Y-66608741D01*
X86184103Y-66598823D01*
X86188994Y-66592784D01*
X86193278Y-66587769D01*
X86234619Y-66541855D01*
X86234623Y-66541850D01*
X86239040Y-66536944D01*
X86242340Y-66531228D01*
X86242343Y-66531224D01*
X86246073Y-66524763D01*
X86257273Y-66508466D01*
X86261975Y-66502660D01*
X86261976Y-66502658D01*
X86266129Y-66497530D01*
X86297189Y-66436572D01*
X86300333Y-66430782D01*
X86331223Y-66377279D01*
X86331224Y-66377278D01*
X86334527Y-66371556D01*
X86338875Y-66358173D01*
X86346441Y-66339907D01*
X86352829Y-66327370D01*
X86370533Y-66261299D01*
X86372400Y-66254997D01*
X86393542Y-66189928D01*
X86394232Y-66183363D01*
X86394234Y-66183354D01*
X86395015Y-66175925D01*
X86398617Y-66156491D01*
X86400547Y-66149286D01*
X86400547Y-66149284D01*
X86402257Y-66142903D01*
X86404040Y-66108895D01*
X86405836Y-66074616D01*
X86406353Y-66068042D01*
X86408156Y-66050884D01*
X86408156Y-66050882D01*
X86408500Y-66047610D01*
X86408500Y-66027074D01*
X86408673Y-66020480D01*
X86411907Y-65958782D01*
X86411907Y-65958777D01*
X86412252Y-65952190D01*
X86410051Y-65938292D01*
X86408500Y-65918583D01*
X86408500Y-56081416D01*
X86410051Y-56061704D01*
X86411220Y-56054324D01*
X86412252Y-56047809D01*
X86408673Y-55979519D01*
X86408500Y-55972925D01*
X86408500Y-55952390D01*
X86406353Y-55931960D01*
X86405836Y-55925385D01*
X86402603Y-55863696D01*
X86402603Y-55863695D01*
X86402257Y-55857096D01*
X86398616Y-55843508D01*
X86395012Y-55824061D01*
X86394233Y-55816644D01*
X86394232Y-55816640D01*
X86393542Y-55810072D01*
X86372402Y-55745009D01*
X86370529Y-55738685D01*
X86354539Y-55679010D01*
X86354538Y-55679006D01*
X86352829Y-55672630D01*
X86346440Y-55660092D01*
X86338875Y-55641826D01*
X86336569Y-55634728D01*
X86336568Y-55634726D01*
X86334527Y-55628444D01*
X86300335Y-55569220D01*
X86297188Y-55563426D01*
X86269127Y-55508352D01*
X86269125Y-55508349D01*
X86266129Y-55502469D01*
X86257267Y-55491526D01*
X86246073Y-55475237D01*
X86239040Y-55463056D01*
X86234623Y-55458150D01*
X86234619Y-55458145D01*
X86193269Y-55412221D01*
X86188997Y-55407220D01*
X86176072Y-55391259D01*
X86161557Y-55376744D01*
X86157016Y-55371959D01*
X86115673Y-55326043D01*
X86111253Y-55321134D01*
X86099865Y-55312860D01*
X86084832Y-55300019D01*
X84408408Y-53623595D01*
X84374382Y-53561283D01*
X84379447Y-53490468D01*
X84421994Y-53433632D01*
X84488514Y-53408821D01*
X84497503Y-53408500D01*
X91571497Y-53408500D01*
X91639618Y-53428502D01*
G37*
%TD.AperFunction*%
%TA.AperFunction,Conductor*%
G36*
X98526272Y-78957532D02*
G01*
X106195145Y-86626405D01*
X106229171Y-86688717D01*
X106224106Y-86759532D01*
X106181559Y-86816368D01*
X106115039Y-86841179D01*
X106106050Y-86841500D01*
X101686356Y-86841500D01*
X101618235Y-86821498D01*
X101571742Y-86767842D01*
X101561029Y-86728504D01*
X101560026Y-86718834D01*
X101504050Y-86551054D01*
X101410978Y-86400652D01*
X101285803Y-86275695D01*
X101233041Y-86243172D01*
X101141468Y-86186725D01*
X101141466Y-86186724D01*
X101135238Y-86182885D01*
X101045206Y-86153023D01*
X100973889Y-86129368D01*
X100973887Y-86129368D01*
X100967361Y-86127203D01*
X100960525Y-86126503D01*
X100960522Y-86126502D01*
X100917469Y-86122091D01*
X100862900Y-86116500D01*
X100137100Y-86116500D01*
X100133854Y-86116837D01*
X100133850Y-86116837D01*
X100038192Y-86126762D01*
X100038188Y-86126763D01*
X100031334Y-86127474D01*
X100024798Y-86129655D01*
X100024796Y-86129655D01*
X99892694Y-86173728D01*
X99863554Y-86183450D01*
X99713152Y-86276522D01*
X99588195Y-86401697D01*
X99584355Y-86407927D01*
X99584354Y-86407928D01*
X99500671Y-86543687D01*
X99495385Y-86552262D01*
X99439703Y-86720139D01*
X99439003Y-86726975D01*
X99439002Y-86726978D01*
X99435740Y-86758821D01*
X99429000Y-86824600D01*
X99429000Y-88175400D01*
X99429337Y-88178646D01*
X99429337Y-88178650D01*
X99438987Y-88271651D01*
X99439974Y-88281166D01*
X99442155Y-88287702D01*
X99442155Y-88287704D01*
X99463883Y-88352830D01*
X99495950Y-88448946D01*
X99589022Y-88599348D01*
X99714197Y-88724305D01*
X99720427Y-88728145D01*
X99720428Y-88728146D01*
X99857590Y-88812694D01*
X99864762Y-88817115D01*
X99915503Y-88833945D01*
X100026111Y-88870632D01*
X100026113Y-88870632D01*
X100032639Y-88872797D01*
X100039475Y-88873497D01*
X100039478Y-88873498D01*
X100077779Y-88877422D01*
X100137100Y-88883500D01*
X100862900Y-88883500D01*
X100866146Y-88883163D01*
X100866150Y-88883163D01*
X100961808Y-88873238D01*
X100961812Y-88873237D01*
X100968666Y-88872526D01*
X100975202Y-88870345D01*
X100975204Y-88870345D01*
X101112869Y-88824416D01*
X101136446Y-88816550D01*
X101286848Y-88723478D01*
X101411805Y-88598303D01*
X101417099Y-88589715D01*
X101500775Y-88453968D01*
X101500776Y-88453966D01*
X101504615Y-88447738D01*
X101553506Y-88300336D01*
X101558132Y-88286389D01*
X101558132Y-88286387D01*
X101560297Y-88279861D01*
X101560998Y-88273020D01*
X101560999Y-88273015D01*
X101561139Y-88271651D01*
X101561460Y-88270864D01*
X101562441Y-88266290D01*
X101563257Y-88266465D01*
X101587983Y-88205925D01*
X101646100Y-88165146D01*
X101686482Y-88158500D01*
X107675050Y-88158500D01*
X107743171Y-88178502D01*
X107764145Y-88195405D01*
X111076345Y-91507605D01*
X111084335Y-91516385D01*
X111088584Y-91523080D01*
X111094362Y-91528506D01*
X111094363Y-91528507D01*
X111140257Y-91571604D01*
X111143099Y-91574359D01*
X111163667Y-91594927D01*
X111167170Y-91597644D01*
X111176195Y-91605352D01*
X111209867Y-91636972D01*
X111216818Y-91640793D01*
X111216819Y-91640794D01*
X111228658Y-91647303D01*
X111245182Y-91658157D01*
X111255271Y-91665982D01*
X111262132Y-91671304D01*
X111269404Y-91674451D01*
X111269406Y-91674452D01*
X111304535Y-91689654D01*
X111315196Y-91694876D01*
X111355663Y-91717124D01*
X111376441Y-91722459D01*
X111395131Y-91728858D01*
X111414824Y-91737380D01*
X111458596Y-91744313D01*
X111460448Y-91744606D01*
X111472071Y-91747013D01*
X111500072Y-91754202D01*
X111516812Y-91758500D01*
X111538259Y-91758500D01*
X111557969Y-91760051D01*
X111579152Y-91763406D01*
X111625141Y-91759059D01*
X111636996Y-91758500D01*
X113654052Y-91758500D01*
X113722173Y-91778502D01*
X113749284Y-91801998D01*
X113846250Y-91913938D01*
X114018126Y-92056632D01*
X114088595Y-92097811D01*
X114091445Y-92099476D01*
X114140169Y-92151114D01*
X114153240Y-92220897D01*
X114126509Y-92286669D01*
X114086055Y-92320027D01*
X114073607Y-92326507D01*
X114069474Y-92329610D01*
X114069471Y-92329612D01*
X114045247Y-92347800D01*
X113894965Y-92460635D01*
X113740629Y-92622138D01*
X113614743Y-92806680D01*
X113599003Y-92840590D01*
X113586024Y-92868550D01*
X113539200Y-92921917D01*
X113471736Y-92941500D01*
X79924949Y-92941500D01*
X79856828Y-92921498D01*
X79835854Y-92904595D01*
X75395405Y-88464145D01*
X75361379Y-88401833D01*
X75358500Y-88375050D01*
X75358500Y-87447503D01*
X75378502Y-87379382D01*
X75432158Y-87332889D01*
X75502432Y-87322785D01*
X75567012Y-87352279D01*
X75573595Y-87358408D01*
X76300019Y-88084832D01*
X76312860Y-88099865D01*
X76321134Y-88111253D01*
X76326043Y-88115673D01*
X76371959Y-88157016D01*
X76376744Y-88161557D01*
X76391259Y-88176072D01*
X76394443Y-88178650D01*
X76407216Y-88188994D01*
X76412231Y-88193278D01*
X76458145Y-88234619D01*
X76458150Y-88234623D01*
X76463056Y-88239040D01*
X76468772Y-88242340D01*
X76468776Y-88242343D01*
X76475237Y-88246073D01*
X76491533Y-88257273D01*
X76502470Y-88266129D01*
X76508348Y-88269124D01*
X76508351Y-88269126D01*
X76563426Y-88297188D01*
X76569223Y-88300336D01*
X76622723Y-88331224D01*
X76628444Y-88334527D01*
X76641826Y-88338875D01*
X76660085Y-88346438D01*
X76672630Y-88352830D01*
X76679000Y-88354537D01*
X76679003Y-88354538D01*
X76705218Y-88361562D01*
X76738712Y-88370537D01*
X76745025Y-88372407D01*
X76810072Y-88393542D01*
X76824075Y-88395014D01*
X76843504Y-88398615D01*
X76857097Y-88402257D01*
X76863694Y-88402603D01*
X76863696Y-88402603D01*
X76925384Y-88405836D01*
X76931958Y-88406353D01*
X76949116Y-88408156D01*
X76949118Y-88408156D01*
X76952390Y-88408500D01*
X76972926Y-88408500D01*
X76979520Y-88408673D01*
X77041218Y-88411907D01*
X77041223Y-88411907D01*
X77047810Y-88412252D01*
X77054326Y-88411220D01*
X77054327Y-88411220D01*
X77061707Y-88410051D01*
X77081417Y-88408500D01*
X96475719Y-88408500D01*
X96543840Y-88428502D01*
X96582863Y-88468197D01*
X96664022Y-88599348D01*
X96789197Y-88724305D01*
X96795427Y-88728145D01*
X96795428Y-88728146D01*
X96932590Y-88812694D01*
X96939762Y-88817115D01*
X96990503Y-88833945D01*
X97101111Y-88870632D01*
X97101113Y-88870632D01*
X97107639Y-88872797D01*
X97114475Y-88873497D01*
X97114478Y-88873498D01*
X97152779Y-88877422D01*
X97212100Y-88883500D01*
X97937900Y-88883500D01*
X97941146Y-88883163D01*
X97941150Y-88883163D01*
X98036808Y-88873238D01*
X98036812Y-88873237D01*
X98043666Y-88872526D01*
X98050202Y-88870345D01*
X98050204Y-88870345D01*
X98187869Y-88824416D01*
X98211446Y-88816550D01*
X98361848Y-88723478D01*
X98486805Y-88598303D01*
X98492099Y-88589715D01*
X98575775Y-88453968D01*
X98575776Y-88453966D01*
X98579615Y-88447738D01*
X98628506Y-88300336D01*
X98633132Y-88286389D01*
X98633132Y-88286387D01*
X98635297Y-88279861D01*
X98635999Y-88273015D01*
X98644168Y-88193278D01*
X98646000Y-88175400D01*
X98646000Y-86824600D01*
X98645146Y-86816368D01*
X98635738Y-86725692D01*
X98635737Y-86725686D01*
X98635026Y-86718834D01*
X98579050Y-86551054D01*
X98485978Y-86400652D01*
X98360803Y-86275695D01*
X98308041Y-86243172D01*
X98216468Y-86186725D01*
X98216466Y-86186724D01*
X98210238Y-86182885D01*
X98120206Y-86153023D01*
X98048889Y-86129368D01*
X98048887Y-86129368D01*
X98042361Y-86127203D01*
X98035525Y-86126503D01*
X98035522Y-86126502D01*
X97992469Y-86122091D01*
X97937900Y-86116500D01*
X97212100Y-86116500D01*
X97208854Y-86116837D01*
X97208850Y-86116837D01*
X97113192Y-86126762D01*
X97113188Y-86126763D01*
X97106334Y-86127474D01*
X97099798Y-86129655D01*
X97099796Y-86129655D01*
X96967694Y-86173728D01*
X96938554Y-86183450D01*
X96788152Y-86276522D01*
X96663195Y-86401697D01*
X96659355Y-86407927D01*
X96659354Y-86407928D01*
X96583111Y-86531616D01*
X96530338Y-86579110D01*
X96475851Y-86591500D01*
X77428503Y-86591500D01*
X77360382Y-86571498D01*
X77339408Y-86554595D01*
X76945405Y-86160592D01*
X76911379Y-86098280D01*
X76908500Y-86071497D01*
X76908500Y-84287082D01*
X76928502Y-84218961D01*
X76945405Y-84197987D01*
X77665158Y-83478234D01*
X77666095Y-83477306D01*
X77725475Y-83419157D01*
X77725476Y-83419156D01*
X77730507Y-83414229D01*
X77753998Y-83377779D01*
X77761417Y-83367454D01*
X77788476Y-83333557D01*
X77803073Y-83303362D01*
X77810602Y-83289945D01*
X77824948Y-83267684D01*
X77828765Y-83261762D01*
X77831173Y-83255145D01*
X77831176Y-83255140D01*
X77843592Y-83221027D01*
X77848553Y-83209284D01*
X77864353Y-83176600D01*
X77864356Y-83176591D01*
X77867421Y-83170251D01*
X77874966Y-83137572D01*
X77879334Y-83122825D01*
X77890803Y-83091315D01*
X77891685Y-83084330D01*
X77891687Y-83084323D01*
X77896237Y-83048308D01*
X77898471Y-83035761D01*
X77900577Y-83026639D01*
X77903143Y-83015527D01*
X77937953Y-82953654D01*
X78000691Y-82920420D01*
X78071437Y-82926381D01*
X78101474Y-82943041D01*
X78103561Y-82944605D01*
X78146079Y-83001463D01*
X78151413Y-83031073D01*
X78158475Y-83055123D01*
X78159865Y-83056328D01*
X78167548Y-83057999D01*
X78219669Y-83057999D01*
X78226490Y-83057629D01*
X78285207Y-83051252D01*
X78285505Y-83053998D01*
X78314446Y-83053940D01*
X78314684Y-83051745D01*
X78345780Y-83055123D01*
X78376866Y-83058500D01*
X79023134Y-83058500D01*
X79054221Y-83055123D01*
X79085316Y-83051745D01*
X79085580Y-83054174D01*
X79114420Y-83054174D01*
X79114684Y-83051745D01*
X79145780Y-83055123D01*
X79176866Y-83058500D01*
X79823134Y-83058500D01*
X79854221Y-83055123D01*
X79885316Y-83051745D01*
X79885580Y-83054174D01*
X79914420Y-83054174D01*
X79914684Y-83051745D01*
X79945780Y-83055123D01*
X79976866Y-83058500D01*
X80623134Y-83058500D01*
X80685316Y-83051745D01*
X80821705Y-83000615D01*
X80938261Y-82913261D01*
X81025615Y-82796705D01*
X81076745Y-82660316D01*
X81083500Y-82598134D01*
X81083500Y-81209500D01*
X81103502Y-81141379D01*
X81157158Y-81094886D01*
X81209500Y-81083500D01*
X82598134Y-81083500D01*
X82660316Y-81076745D01*
X82796705Y-81025615D01*
X82913261Y-80938261D01*
X83000615Y-80821705D01*
X83051745Y-80685316D01*
X83058500Y-80623134D01*
X83058500Y-79976866D01*
X83051745Y-79914684D01*
X83054174Y-79914420D01*
X83054174Y-79885580D01*
X83051745Y-79885316D01*
X83058131Y-79826531D01*
X83058500Y-79823134D01*
X83058500Y-79484500D01*
X83078502Y-79416379D01*
X83132158Y-79369886D01*
X83184500Y-79358500D01*
X93375050Y-79358500D01*
X93443171Y-79378502D01*
X93464145Y-79395405D01*
X93476345Y-79407605D01*
X93484335Y-79416385D01*
X93488584Y-79423080D01*
X93494362Y-79428506D01*
X93494363Y-79428507D01*
X93540257Y-79471604D01*
X93543099Y-79474359D01*
X93563667Y-79494927D01*
X93567170Y-79497644D01*
X93576195Y-79505352D01*
X93609867Y-79536972D01*
X93616818Y-79540793D01*
X93616819Y-79540794D01*
X93628658Y-79547303D01*
X93645182Y-79558157D01*
X93651991Y-79563438D01*
X93662132Y-79571304D01*
X93669404Y-79574451D01*
X93669406Y-79574452D01*
X93704535Y-79589654D01*
X93715196Y-79594876D01*
X93755663Y-79617124D01*
X93776441Y-79622459D01*
X93795131Y-79628858D01*
X93814824Y-79637380D01*
X93858596Y-79644313D01*
X93860448Y-79644606D01*
X93872071Y-79647013D01*
X93900072Y-79654202D01*
X93916812Y-79658500D01*
X93938259Y-79658500D01*
X93957969Y-79660051D01*
X93979152Y-79663406D01*
X94025141Y-79659059D01*
X94036996Y-79658500D01*
X96992107Y-79658500D01*
X97061100Y-79679068D01*
X97133159Y-79726222D01*
X97139763Y-79728678D01*
X97139765Y-79728679D01*
X97296558Y-79786990D01*
X97296560Y-79786990D01*
X97303168Y-79789448D01*
X97386995Y-79800633D01*
X97475980Y-79812507D01*
X97475984Y-79812507D01*
X97482961Y-79813438D01*
X97489972Y-79812800D01*
X97489976Y-79812800D01*
X97632459Y-79799832D01*
X97663600Y-79796998D01*
X97670302Y-79794820D01*
X97670304Y-79794820D01*
X97829409Y-79743124D01*
X97829412Y-79743123D01*
X97836108Y-79740947D01*
X97966184Y-79663406D01*
X97985860Y-79651677D01*
X97985862Y-79651676D01*
X97991912Y-79648069D01*
X98123266Y-79522982D01*
X98223643Y-79371902D01*
X98265423Y-79261917D01*
X98285555Y-79208920D01*
X98285556Y-79208918D01*
X98288055Y-79202338D01*
X98312403Y-79029090D01*
X98341691Y-78964417D01*
X98401295Y-78925844D01*
X98472291Y-78925619D01*
X98526272Y-78957532D01*
G37*
%TD.AperFunction*%
%TA.AperFunction,Conductor*%
G36*
X111743171Y-76178502D02*
G01*
X111764145Y-76195405D01*
X116804595Y-81235855D01*
X116838621Y-81298167D01*
X116841500Y-81324950D01*
X116841500Y-86175051D01*
X116821498Y-86243172D01*
X116804595Y-86264146D01*
X115773165Y-87295576D01*
X115710853Y-87329602D01*
X115640038Y-87324537D01*
X115605978Y-87305363D01*
X115558422Y-87267806D01*
X115558416Y-87267802D01*
X115554359Y-87264598D01*
X115513053Y-87241796D01*
X115463084Y-87191364D01*
X115448312Y-87121921D01*
X115473428Y-87055516D01*
X115500780Y-87028909D01*
X115544603Y-86997650D01*
X115679860Y-86901173D01*
X115685139Y-86895913D01*
X115823032Y-86758500D01*
X115838096Y-86743489D01*
X115848868Y-86728499D01*
X115965435Y-86566277D01*
X115968453Y-86562077D01*
X115973521Y-86551824D01*
X116065136Y-86366453D01*
X116065137Y-86366451D01*
X116067430Y-86361811D01*
X116132370Y-86148069D01*
X116161529Y-85926590D01*
X116163156Y-85860000D01*
X116144852Y-85637361D01*
X116090431Y-85420702D01*
X116001354Y-85215840D01*
X115945207Y-85129050D01*
X115882822Y-85032617D01*
X115882820Y-85032614D01*
X115880014Y-85028277D01*
X115729670Y-84863051D01*
X115725619Y-84859852D01*
X115725615Y-84859848D01*
X115558414Y-84727800D01*
X115558410Y-84727798D01*
X115554359Y-84724598D01*
X115512569Y-84701529D01*
X115462598Y-84651097D01*
X115447826Y-84581654D01*
X115472942Y-84515248D01*
X115500294Y-84488641D01*
X115675328Y-84363792D01*
X115683200Y-84357139D01*
X115834052Y-84206812D01*
X115840730Y-84198965D01*
X115965003Y-84026020D01*
X115970313Y-84017183D01*
X116064670Y-83826267D01*
X116068469Y-83816672D01*
X116130377Y-83612910D01*
X116132555Y-83602837D01*
X116133986Y-83591962D01*
X116131775Y-83577778D01*
X116118617Y-83574000D01*
X113483225Y-83574000D01*
X113469694Y-83577973D01*
X113468257Y-83587966D01*
X113498565Y-83722446D01*
X113501645Y-83732275D01*
X113581770Y-83929603D01*
X113586413Y-83938794D01*
X113697694Y-84120388D01*
X113703777Y-84128699D01*
X113843213Y-84289667D01*
X113850580Y-84296883D01*
X114014434Y-84432916D01*
X114022881Y-84438831D01*
X114091969Y-84479203D01*
X114140693Y-84530842D01*
X114153764Y-84600625D01*
X114127033Y-84666396D01*
X114086584Y-84699752D01*
X114073607Y-84706507D01*
X114069474Y-84709610D01*
X114069471Y-84709612D01*
X113910184Y-84829208D01*
X113894965Y-84840635D01*
X113740629Y-85002138D01*
X113614743Y-85186680D01*
X113599003Y-85220590D01*
X113530322Y-85368550D01*
X113483498Y-85421917D01*
X113416034Y-85441500D01*
X108424950Y-85441500D01*
X108356829Y-85421498D01*
X108335855Y-85404595D01*
X105985443Y-83054183D01*
X113464389Y-83054183D01*
X113465912Y-83062607D01*
X113478292Y-83066000D01*
X114527885Y-83066000D01*
X114543124Y-83061525D01*
X114544329Y-83060135D01*
X114546000Y-83052452D01*
X114546000Y-83047885D01*
X115054000Y-83047885D01*
X115058475Y-83063124D01*
X115059865Y-83064329D01*
X115067548Y-83066000D01*
X116118344Y-83066000D01*
X116131875Y-83062027D01*
X116133180Y-83052947D01*
X116091214Y-82885875D01*
X116087894Y-82876124D01*
X116002972Y-82680814D01*
X115998105Y-82671739D01*
X115882426Y-82492926D01*
X115876136Y-82484757D01*
X115732806Y-82327240D01*
X115725273Y-82320215D01*
X115558139Y-82188222D01*
X115549552Y-82182517D01*
X115363117Y-82079599D01*
X115353705Y-82075369D01*
X115152959Y-82004280D01*
X115142988Y-82001646D01*
X115071837Y-81988972D01*
X115058540Y-81990432D01*
X115054000Y-82004989D01*
X115054000Y-83047885D01*
X114546000Y-83047885D01*
X114546000Y-82003102D01*
X114542082Y-81989758D01*
X114527806Y-81987771D01*
X114489324Y-81993660D01*
X114479288Y-81996051D01*
X114276868Y-82062212D01*
X114267359Y-82066209D01*
X114078463Y-82164542D01*
X114069738Y-82170036D01*
X113899433Y-82297905D01*
X113891726Y-82304748D01*
X113744590Y-82458717D01*
X113738104Y-82466727D01*
X113618098Y-82642649D01*
X113613000Y-82651623D01*
X113523338Y-82844783D01*
X113519775Y-82854470D01*
X113464389Y-83054183D01*
X105985443Y-83054183D01*
X99304855Y-76373595D01*
X99270829Y-76311283D01*
X99275894Y-76240468D01*
X99318441Y-76183632D01*
X99384961Y-76158821D01*
X99393950Y-76158500D01*
X111675050Y-76158500D01*
X111743171Y-76178502D01*
G37*
%TD.AperFunction*%
%TA.AperFunction,Conductor*%
G36*
X80039408Y-69808502D02*
G01*
X80085901Y-69862158D01*
X80096005Y-69932432D01*
X80066511Y-69997012D01*
X80057540Y-70006350D01*
X80052057Y-70011499D01*
X80045643Y-70016159D01*
X80040590Y-70022267D01*
X80016198Y-70051752D01*
X80008208Y-70060532D01*
X79092395Y-70976345D01*
X79083615Y-70984335D01*
X79083613Y-70984337D01*
X79076920Y-70988584D01*
X79071494Y-70994362D01*
X79071493Y-70994363D01*
X79028396Y-71040257D01*
X79025641Y-71043099D01*
X79005073Y-71063667D01*
X79002356Y-71067170D01*
X78994648Y-71076195D01*
X78963028Y-71109867D01*
X78959207Y-71116818D01*
X78959206Y-71116819D01*
X78952697Y-71128658D01*
X78941843Y-71145182D01*
X78934060Y-71155216D01*
X78876504Y-71196783D01*
X78805612Y-71200635D01*
X78743892Y-71165548D01*
X78710939Y-71102662D01*
X78708500Y-71077991D01*
X78708500Y-70628503D01*
X78728502Y-70560382D01*
X78745405Y-70539408D01*
X79459408Y-69825405D01*
X79521720Y-69791379D01*
X79548503Y-69788500D01*
X79971287Y-69788500D01*
X80039408Y-69808502D01*
G37*
%TD.AperFunction*%
%TA.AperFunction,Conductor*%
G36*
X77871121Y-65553502D02*
G01*
X77917614Y-65607158D01*
X77929000Y-65659500D01*
X77929000Y-66473424D01*
X77942323Y-66518797D01*
X77948125Y-66527826D01*
X77948123Y-66598823D01*
X77916323Y-66652417D01*
X77448595Y-67120145D01*
X77386283Y-67154171D01*
X77315468Y-67149106D01*
X77258632Y-67106559D01*
X77233821Y-67040039D01*
X77233500Y-67031050D01*
X77233500Y-66608732D01*
X77253502Y-66540611D01*
X77307158Y-66494118D01*
X77377432Y-66484014D01*
X77394650Y-66487734D01*
X77396641Y-66488312D01*
X77404609Y-66489768D01*
X77418031Y-66486948D01*
X77421000Y-66475487D01*
X77421000Y-65659500D01*
X77441002Y-65591379D01*
X77494658Y-65544886D01*
X77547000Y-65533500D01*
X77803000Y-65533500D01*
X77871121Y-65553502D01*
G37*
%TD.AperFunction*%
%TA.AperFunction,Conductor*%
G36*
X72371121Y-65533502D02*
G01*
X72417614Y-65587158D01*
X72429000Y-65639500D01*
X72429000Y-66453424D01*
X72433344Y-66468219D01*
X72443775Y-66470063D01*
X72453359Y-66468312D01*
X72455350Y-66467734D01*
X72456508Y-66467737D01*
X72459691Y-66467156D01*
X72459799Y-66467747D01*
X72526346Y-66467939D01*
X72585961Y-66506494D01*
X72615269Y-66571159D01*
X72616500Y-66588732D01*
X72616500Y-66881050D01*
X72596498Y-66949171D01*
X72542842Y-66995664D01*
X72472568Y-67005768D01*
X72407988Y-66976274D01*
X72401405Y-66970145D01*
X71957905Y-66526645D01*
X71923879Y-66464333D01*
X71921000Y-66437550D01*
X71921000Y-65639500D01*
X71941002Y-65571379D01*
X71994658Y-65524886D01*
X72047000Y-65513500D01*
X72303000Y-65513500D01*
X72371121Y-65533502D01*
G37*
%TD.AperFunction*%
%TD*%
M02*
