M48
; DRILL file {KiCad 6.0.11-2627ca5db0~126~ubuntu22.04.1} date jeu. 06 avril 2023 15:07:13
; FORMAT={-:-/ absolute / inch / decimal}
; #@! TF.CreationDate,2023-04-06T15:07:13+02:00
; #@! TF.GenerationSoftware,Kicad,Pcbnew,6.0.11-2627ca5db0~126~ubuntu22.04.1
; #@! TF.FileFunction,Plated,1,4,PTH
FMAT,2
INCH
; #@! TA.AperFunction,Plated,PTH,ViaDrill
T1C0.0118
; #@! TA.AperFunction,Plated,PTH,ComponentDrill
T2C0.0374
; #@! TA.AperFunction,Plated,PTH,ComponentDrill
T3C0.0394
; #@! TA.AperFunction,Plated,PTH,ComponentDrill
T4C0.0598
; #@! TA.AperFunction,Plated,PTH,ComponentDrill
T5C0.1693
%
G90
G05
T1
X1.7126Y-3.3195
X1.7141Y-3.6826
X2.6181Y-3.1004
X2.7559Y-3.2677
X2.7953Y-2.7756
X2.8346Y-2.7362
X2.8543Y-2.6378
X3.0354Y-2.7953
X3.0354Y-2.8307
X3.0512Y-2.6378
X3.0669Y-3.2835
X3.0984Y-2.7953
X3.0984Y-2.8268
X3.4449Y-2.7756
X3.4449Y-2.8346
X3.4449Y-2.8937
X3.7402Y-3.4449
X3.7449Y-2.7118
X3.7992Y-3.0709
X3.8386Y-3.1102
T2
X2.1654Y-4.5866
X2.2638Y-4.5866
X2.3622Y-4.5866
X4.5079Y-1.7717
X4.5079Y-1.8701
X4.5079Y-1.9685
X4.5079Y-2.0669
X4.5079Y-2.1654
X4.5276Y-2.502
X4.5276Y-2.6004
X4.5276Y-2.6988
X4.5276Y-2.7972
T3
X1.378Y-3.1988
X1.378Y-3.2972
X1.378Y-3.937
X1.378Y-4.0354
X4.5197Y-3.2803
X4.5197Y-3.3803
X4.5197Y-3.4803
X4.5197Y-3.5803
X4.5197Y-3.6803
X4.5197Y-3.7803
X4.5197Y-3.8803
X4.5197Y-3.9803
T4
X2.8528Y-1.3583
X3.0528Y-1.3583
T5
X1.378Y-1.378
X1.378Y-4.5276
X4.5276Y-1.378
X4.5276Y-4.5276
T0
M30
