%TF.GenerationSoftware,KiCad,Pcbnew,6.0.11-2627ca5db0~126~ubuntu22.04.1*%
%TF.CreationDate,2023-04-06T15:07:13+02:00*%
%TF.ProjectId,Subductor_carte_commande,53756264-7563-4746-9f72-5f6361727465,rev?*%
%TF.SameCoordinates,Original*%
%TF.FileFunction,Copper,L2,Inr*%
%TF.FilePolarity,Positive*%
%FSLAX46Y46*%
G04 Gerber Fmt 4.6, Leading zero omitted, Abs format (unit mm)*
G04 Created by KiCad (PCBNEW 6.0.11-2627ca5db0~126~ubuntu22.04.1) date 2023-04-06 15:07:13*
%MOMM*%
%LPD*%
G01*
G04 APERTURE LIST*
G04 Aperture macros list*
%AMRoundRect*
0 Rectangle with rounded corners*
0 $1 Rounding radius*
0 $2 $3 $4 $5 $6 $7 $8 $9 X,Y pos of 4 corners*
0 Add a 4 corners polygon primitive as box body*
4,1,4,$2,$3,$4,$5,$6,$7,$8,$9,$2,$3,0*
0 Add four circle primitives for the rounded corners*
1,1,$1+$1,$2,$3*
1,1,$1+$1,$4,$5*
1,1,$1+$1,$6,$7*
1,1,$1+$1,$8,$9*
0 Add four rect primitives between the rounded corners*
20,1,$1+$1,$2,$3,$4,$5,0*
20,1,$1+$1,$4,$5,$6,$7,0*
20,1,$1+$1,$6,$7,$8,$9,0*
20,1,$1+$1,$8,$9,$2,$3,0*%
G04 Aperture macros list end*
%TA.AperFunction,ComponentPad*%
%ADD10RoundRect,0.250000X0.600000X0.725000X-0.600000X0.725000X-0.600000X-0.725000X0.600000X-0.725000X0*%
%TD*%
%TA.AperFunction,ComponentPad*%
%ADD11O,1.700000X1.950000*%
%TD*%
%TA.AperFunction,ComponentPad*%
%ADD12RoundRect,0.250000X0.750000X-0.600000X0.750000X0.600000X-0.750000X0.600000X-0.750000X-0.600000X0*%
%TD*%
%TA.AperFunction,ComponentPad*%
%ADD13O,2.000000X1.700000*%
%TD*%
%TA.AperFunction,ComponentPad*%
%ADD14RoundRect,0.250000X0.725000X-0.600000X0.725000X0.600000X-0.725000X0.600000X-0.725000X-0.600000X0*%
%TD*%
%TA.AperFunction,ComponentPad*%
%ADD15O,1.950000X1.700000*%
%TD*%
%TA.AperFunction,ComponentPad*%
%ADD16R,3.000000X3.000000*%
%TD*%
%TA.AperFunction,ComponentPad*%
%ADD17C,3.000000*%
%TD*%
%TA.AperFunction,ComponentPad*%
%ADD18R,1.700000X1.700000*%
%TD*%
%TA.AperFunction,ComponentPad*%
%ADD19O,1.700000X1.700000*%
%TD*%
%TA.AperFunction,ComponentPad*%
%ADD20C,7.500000*%
%TD*%
%TA.AperFunction,ViaPad*%
%ADD21C,0.600000*%
%TD*%
G04 APERTURE END LIST*
D10*
%TO.N,+5V*%
%TO.C,J7*%
X60000000Y-116500000D03*
D11*
%TO.N,BUZZER*%
X57500000Y-116500000D03*
%TO.N,GND*%
X55000000Y-116500000D03*
%TD*%
D12*
%TO.N,GND*%
%TO.C,J5*%
X35000000Y-83750000D03*
D13*
%TO.N,Bouton1*%
X35000000Y-81250000D03*
%TD*%
D14*
%TO.N,GND*%
%TO.C,J2*%
X115000000Y-71050000D03*
D15*
%TO.N,+5V*%
X115000000Y-68550000D03*
%TO.N,SDA*%
X115000000Y-66050000D03*
%TO.N,SCL*%
X115000000Y-63550000D03*
%TD*%
D14*
%TO.N,GND*%
%TO.C,J3*%
X114500000Y-55000000D03*
D15*
%TO.N,+5V*%
X114500000Y-52500000D03*
%TO.N,SW*%
X114500000Y-50000000D03*
%TO.N,DT*%
X114500000Y-47500000D03*
%TO.N,CLK*%
X114500000Y-45000000D03*
%TD*%
D16*
%TO.N,GND*%
%TO.C,J1*%
X77540000Y-34500000D03*
D17*
%TO.N,+5V*%
X72460000Y-34500000D03*
%TD*%
D18*
%TO.N,+5V*%
%TO.C,J4*%
X114800000Y-101100000D03*
D19*
%TO.N,MISO*%
X114800000Y-98560000D03*
%TO.N,MOSI*%
X114800000Y-96020000D03*
%TO.N,SCK*%
X114800000Y-93480000D03*
%TO.N,RST*%
X114800000Y-90940000D03*
%TO.N,UART TX*%
X114800000Y-88400000D03*
%TO.N,UART RX*%
X114800000Y-85860000D03*
%TO.N,GND*%
X114800000Y-83320000D03*
%TD*%
D20*
%TO.N,GND*%
%TO.C,H1*%
X35000000Y-35000000D03*
%TD*%
%TO.N,GND*%
%TO.C,H4*%
X115000000Y-115000000D03*
%TD*%
D12*
%TO.N,GND*%
%TO.C,J6*%
X35000000Y-102500000D03*
D13*
%TO.N,Bouton2*%
X35000000Y-100000000D03*
%TD*%
D20*
%TO.N,GND*%
%TO.C,H3*%
X35000000Y-115000000D03*
%TD*%
%TO.N,GND*%
%TO.C,H2*%
X115000000Y-35000000D03*
%TD*%
D21*
%TO.N,+5V*%
X95000000Y-87500000D03*
%TO.N,BUZZER*%
X66500000Y-78750000D03*
%TO.N,GND*%
X77900000Y-83400000D03*
X77100000Y-71900000D03*
X77100000Y-71000000D03*
X78700000Y-71000000D03*
X78700000Y-71800000D03*
X72500000Y-67000000D03*
X77500000Y-67000000D03*
%TO.N,+5V*%
X95120000Y-68880000D03*
%TO.N,SDA*%
X97500000Y-79000000D03*
%TO.N,SCL*%
X96500000Y-78000000D03*
%TO.N,MISO*%
X70000000Y-83000000D03*
%TO.N,Bouton1*%
X43500000Y-84316250D03*
X72000000Y-69500000D03*
%TO.N,Bouton2*%
X71000000Y-70500000D03*
X43537500Y-93537500D03*
%TO.N,SW*%
X87500000Y-73500000D03*
%TO.N,DT*%
X87500000Y-72000000D03*
%TO.N,CLK*%
X87500000Y-70500000D03*
%TD*%
M02*
