%TF.GenerationSoftware,KiCad,Pcbnew,6.0.11-2627ca5db0~126~ubuntu22.04.1*%
%TF.CreationDate,2023-04-06T15:07:13+02:00*%
%TF.ProjectId,Subductor_carte_commande,53756264-7563-4746-9f72-5f6361727465,rev?*%
%TF.SameCoordinates,Original*%
%TF.FileFunction,Legend,Top*%
%TF.FilePolarity,Positive*%
%FSLAX46Y46*%
G04 Gerber Fmt 4.6, Leading zero omitted, Abs format (unit mm)*
G04 Created by KiCad (PCBNEW 6.0.11-2627ca5db0~126~ubuntu22.04.1) date 2023-04-06 15:07:13*
%MOMM*%
%LPD*%
G01*
G04 APERTURE LIST*
G04 Aperture macros list*
%AMRoundRect*
0 Rectangle with rounded corners*
0 $1 Rounding radius*
0 $2 $3 $4 $5 $6 $7 $8 $9 X,Y pos of 4 corners*
0 Add a 4 corners polygon primitive as box body*
4,1,4,$2,$3,$4,$5,$6,$7,$8,$9,$2,$3,0*
0 Add four circle primitives for the rounded corners*
1,1,$1+$1,$2,$3*
1,1,$1+$1,$4,$5*
1,1,$1+$1,$6,$7*
1,1,$1+$1,$8,$9*
0 Add four rect primitives between the rounded corners*
20,1,$1+$1,$2,$3,$4,$5,0*
20,1,$1+$1,$4,$5,$6,$7,0*
20,1,$1+$1,$6,$7,$8,$9,0*
20,1,$1+$1,$8,$9,$2,$3,0*%
G04 Aperture macros list end*
%ADD10C,0.150000*%
%ADD11C,0.120000*%
%ADD12RoundRect,0.250000X0.600000X0.725000X-0.600000X0.725000X-0.600000X-0.725000X0.600000X-0.725000X0*%
%ADD13O,1.700000X1.950000*%
%ADD14RoundRect,0.250000X0.750000X-0.600000X0.750000X0.600000X-0.750000X0.600000X-0.750000X-0.600000X0*%
%ADD15O,2.000000X1.700000*%
%ADD16RoundRect,0.140000X-0.170000X0.140000X-0.170000X-0.140000X0.170000X-0.140000X0.170000X0.140000X0*%
%ADD17RoundRect,0.250000X0.725000X-0.600000X0.725000X0.600000X-0.725000X0.600000X-0.725000X-0.600000X0*%
%ADD18O,1.950000X1.700000*%
%ADD19RoundRect,0.250000X-0.312500X-0.625000X0.312500X-0.625000X0.312500X0.625000X-0.312500X0.625000X0*%
%ADD20R,0.550000X1.600000*%
%ADD21R,1.600000X0.550000*%
%ADD22R,3.000000X3.000000*%
%ADD23C,3.000000*%
%ADD24R,1.700000X1.700000*%
%ADD25O,1.700000X1.700000*%
%ADD26C,7.500000*%
%ADD27RoundRect,0.250000X0.312500X0.625000X-0.312500X0.625000X-0.312500X-0.625000X0.312500X-0.625000X0*%
%ADD28R,1.400000X1.200000*%
%ADD29R,1.500000X1.500000*%
G04 APERTURE END LIST*
D10*
%TO.C,J7*%
X57166666Y-119502380D02*
X57166666Y-120216666D01*
X57119047Y-120359523D01*
X57023809Y-120454761D01*
X56880952Y-120502380D01*
X56785714Y-120502380D01*
X57547619Y-119502380D02*
X58214285Y-119502380D01*
X57785714Y-120502380D01*
%TO.C,J5*%
X30902380Y-82833333D02*
X31616666Y-82833333D01*
X31759523Y-82880952D01*
X31854761Y-82976190D01*
X31902380Y-83119047D01*
X31902380Y-83214285D01*
X30902380Y-81880952D02*
X30902380Y-82357142D01*
X31378571Y-82404761D01*
X31330952Y-82357142D01*
X31283333Y-82261904D01*
X31283333Y-82023809D01*
X31330952Y-81928571D01*
X31378571Y-81880952D01*
X31473809Y-81833333D01*
X31711904Y-81833333D01*
X31807142Y-81880952D01*
X31854761Y-81928571D01*
X31902380Y-82023809D01*
X31902380Y-82261904D01*
X31854761Y-82357142D01*
X31807142Y-82404761D01*
%TO.C,C4*%
X69333333Y-64857142D02*
X69285714Y-64904761D01*
X69142857Y-64952380D01*
X69047619Y-64952380D01*
X68904761Y-64904761D01*
X68809523Y-64809523D01*
X68761904Y-64714285D01*
X68714285Y-64523809D01*
X68714285Y-64380952D01*
X68761904Y-64190476D01*
X68809523Y-64095238D01*
X68904761Y-64000000D01*
X69047619Y-63952380D01*
X69142857Y-63952380D01*
X69285714Y-64000000D01*
X69333333Y-64047619D01*
X70190476Y-64285714D02*
X70190476Y-64952380D01*
X69952380Y-63904761D02*
X69714285Y-64619047D01*
X70333333Y-64619047D01*
%TO.C,J2*%
X110902380Y-67633333D02*
X111616666Y-67633333D01*
X111759523Y-67680952D01*
X111854761Y-67776190D01*
X111902380Y-67919047D01*
X111902380Y-68014285D01*
X110997619Y-67204761D02*
X110950000Y-67157142D01*
X110902380Y-67061904D01*
X110902380Y-66823809D01*
X110950000Y-66728571D01*
X110997619Y-66680952D01*
X111092857Y-66633333D01*
X111188095Y-66633333D01*
X111330952Y-66680952D01*
X111902380Y-67252380D01*
X111902380Y-66633333D01*
%TO.C,R2*%
X44833333Y-96802380D02*
X44500000Y-96326190D01*
X44261904Y-96802380D02*
X44261904Y-95802380D01*
X44642857Y-95802380D01*
X44738095Y-95850000D01*
X44785714Y-95897619D01*
X44833333Y-95992857D01*
X44833333Y-96135714D01*
X44785714Y-96230952D01*
X44738095Y-96278571D01*
X44642857Y-96326190D01*
X44261904Y-96326190D01*
X45214285Y-95897619D02*
X45261904Y-95850000D01*
X45357142Y-95802380D01*
X45595238Y-95802380D01*
X45690476Y-95850000D01*
X45738095Y-95897619D01*
X45785714Y-95992857D01*
X45785714Y-96088095D01*
X45738095Y-96230952D01*
X45166666Y-96802380D01*
X45785714Y-96802380D01*
%TO.C,uC1*%
X83335714Y-78261904D02*
X84002380Y-78261904D01*
X83335714Y-78690476D02*
X83859523Y-78690476D01*
X83954761Y-78642857D01*
X84002380Y-78547619D01*
X84002380Y-78404761D01*
X83954761Y-78309523D01*
X83907142Y-78261904D01*
X83907142Y-77214285D02*
X83954761Y-77261904D01*
X84002380Y-77404761D01*
X84002380Y-77500000D01*
X83954761Y-77642857D01*
X83859523Y-77738095D01*
X83764285Y-77785714D01*
X83573809Y-77833333D01*
X83430952Y-77833333D01*
X83240476Y-77785714D01*
X83145238Y-77738095D01*
X83050000Y-77642857D01*
X83002380Y-77500000D01*
X83002380Y-77404761D01*
X83050000Y-77261904D01*
X83097619Y-77214285D01*
X84002380Y-76261904D02*
X84002380Y-76833333D01*
X84002380Y-76547619D02*
X83002380Y-76547619D01*
X83145238Y-76642857D01*
X83240476Y-76738095D01*
X83288095Y-76833333D01*
%TO.C,J3*%
X110402380Y-50333333D02*
X111116666Y-50333333D01*
X111259523Y-50380952D01*
X111354761Y-50476190D01*
X111402380Y-50619047D01*
X111402380Y-50714285D01*
X110402380Y-49952380D02*
X110402380Y-49333333D01*
X110783333Y-49666666D01*
X110783333Y-49523809D01*
X110830952Y-49428571D01*
X110878571Y-49380952D01*
X110973809Y-49333333D01*
X111211904Y-49333333D01*
X111307142Y-49380952D01*
X111354761Y-49428571D01*
X111402380Y-49523809D01*
X111402380Y-49809523D01*
X111354761Y-49904761D01*
X111307142Y-49952380D01*
%TO.C,J1*%
X74666666Y-39032380D02*
X74666666Y-39746666D01*
X74619047Y-39889523D01*
X74523809Y-39984761D01*
X74380952Y-40032380D01*
X74285714Y-40032380D01*
X75666666Y-40032380D02*
X75095238Y-40032380D01*
X75380952Y-40032380D02*
X75380952Y-39032380D01*
X75285714Y-39175238D01*
X75190476Y-39270476D01*
X75095238Y-39318095D01*
%TO.C,J4*%
X114466666Y-102882380D02*
X114466666Y-103596666D01*
X114419047Y-103739523D01*
X114323809Y-103834761D01*
X114180952Y-103882380D01*
X114085714Y-103882380D01*
X115371428Y-103215714D02*
X115371428Y-103882380D01*
X115133333Y-102834761D02*
X114895238Y-103549047D01*
X115514285Y-103549047D01*
%TO.C,C3*%
X80333333Y-64857142D02*
X80285714Y-64904761D01*
X80142857Y-64952380D01*
X80047619Y-64952380D01*
X79904761Y-64904761D01*
X79809523Y-64809523D01*
X79761904Y-64714285D01*
X79714285Y-64523809D01*
X79714285Y-64380952D01*
X79761904Y-64190476D01*
X79809523Y-64095238D01*
X79904761Y-64000000D01*
X80047619Y-63952380D01*
X80142857Y-63952380D01*
X80285714Y-64000000D01*
X80333333Y-64047619D01*
X80666666Y-63952380D02*
X81285714Y-63952380D01*
X80952380Y-64333333D01*
X81095238Y-64333333D01*
X81190476Y-64380952D01*
X81238095Y-64428571D01*
X81285714Y-64523809D01*
X81285714Y-64761904D01*
X81238095Y-64857142D01*
X81190476Y-64904761D01*
X81095238Y-64952380D01*
X80809523Y-64952380D01*
X80714285Y-64904761D01*
X80666666Y-64857142D01*
%TO.C,H1*%
X34238095Y-30702380D02*
X34238095Y-29702380D01*
X34238095Y-30178571D02*
X34809523Y-30178571D01*
X34809523Y-30702380D02*
X34809523Y-29702380D01*
X35809523Y-30702380D02*
X35238095Y-30702380D01*
X35523809Y-30702380D02*
X35523809Y-29702380D01*
X35428571Y-29845238D01*
X35333333Y-29940476D01*
X35238095Y-29988095D01*
%TO.C,H4*%
X114238095Y-110702380D02*
X114238095Y-109702380D01*
X114238095Y-110178571D02*
X114809523Y-110178571D01*
X114809523Y-110702380D02*
X114809523Y-109702380D01*
X115714285Y-110035714D02*
X115714285Y-110702380D01*
X115476190Y-109654761D02*
X115238095Y-110369047D01*
X115857142Y-110369047D01*
%TO.C,J6*%
X30902380Y-101583333D02*
X31616666Y-101583333D01*
X31759523Y-101630952D01*
X31854761Y-101726190D01*
X31902380Y-101869047D01*
X31902380Y-101964285D01*
X30902380Y-100678571D02*
X30902380Y-100869047D01*
X30950000Y-100964285D01*
X30997619Y-101011904D01*
X31140476Y-101107142D01*
X31330952Y-101154761D01*
X31711904Y-101154761D01*
X31807142Y-101107142D01*
X31854761Y-101059523D01*
X31902380Y-100964285D01*
X31902380Y-100773809D01*
X31854761Y-100678571D01*
X31807142Y-100630952D01*
X31711904Y-100583333D01*
X31473809Y-100583333D01*
X31378571Y-100630952D01*
X31330952Y-100678571D01*
X31283333Y-100773809D01*
X31283333Y-100964285D01*
X31330952Y-101059523D01*
X31378571Y-101107142D01*
X31473809Y-101154761D01*
%TO.C,R13*%
X98394642Y-89772380D02*
X98061309Y-89296190D01*
X97823214Y-89772380D02*
X97823214Y-88772380D01*
X98204166Y-88772380D01*
X98299404Y-88820000D01*
X98347023Y-88867619D01*
X98394642Y-88962857D01*
X98394642Y-89105714D01*
X98347023Y-89200952D01*
X98299404Y-89248571D01*
X98204166Y-89296190D01*
X97823214Y-89296190D01*
X99347023Y-89772380D02*
X98775595Y-89772380D01*
X99061309Y-89772380D02*
X99061309Y-88772380D01*
X98966071Y-88915238D01*
X98870833Y-89010476D01*
X98775595Y-89058095D01*
X99680357Y-88772380D02*
X100299404Y-88772380D01*
X99966071Y-89153333D01*
X100108928Y-89153333D01*
X100204166Y-89200952D01*
X100251785Y-89248571D01*
X100299404Y-89343809D01*
X100299404Y-89581904D01*
X100251785Y-89677142D01*
X100204166Y-89724761D01*
X100108928Y-89772380D01*
X99823214Y-89772380D01*
X99727976Y-89724761D01*
X99680357Y-89677142D01*
%TO.C,H3*%
X34238095Y-110702380D02*
X34238095Y-109702380D01*
X34238095Y-110178571D02*
X34809523Y-110178571D01*
X34809523Y-110702380D02*
X34809523Y-109702380D01*
X35190476Y-109702380D02*
X35809523Y-109702380D01*
X35476190Y-110083333D01*
X35619047Y-110083333D01*
X35714285Y-110130952D01*
X35761904Y-110178571D01*
X35809523Y-110273809D01*
X35809523Y-110511904D01*
X35761904Y-110607142D01*
X35714285Y-110654761D01*
X35619047Y-110702380D01*
X35333333Y-110702380D01*
X35238095Y-110654761D01*
X35190476Y-110607142D01*
%TO.C,Y1*%
X74448809Y-68151190D02*
X74448809Y-68627380D01*
X74115476Y-67627380D02*
X74448809Y-68151190D01*
X74782142Y-67627380D01*
X75639285Y-68627380D02*
X75067857Y-68627380D01*
X75353571Y-68627380D02*
X75353571Y-67627380D01*
X75258333Y-67770238D01*
X75163095Y-67865476D01*
X75067857Y-67913095D01*
%TO.C,H2*%
X114238095Y-30702380D02*
X114238095Y-29702380D01*
X114238095Y-30178571D02*
X114809523Y-30178571D01*
X114809523Y-30702380D02*
X114809523Y-29702380D01*
X115238095Y-29797619D02*
X115285714Y-29750000D01*
X115380952Y-29702380D01*
X115619047Y-29702380D01*
X115714285Y-29750000D01*
X115761904Y-29797619D01*
X115809523Y-29892857D01*
X115809523Y-29988095D01*
X115761904Y-30130952D01*
X115190476Y-30702380D01*
X115809523Y-30702380D01*
%TO.C,R1*%
X44870833Y-78132380D02*
X44537500Y-77656190D01*
X44299404Y-78132380D02*
X44299404Y-77132380D01*
X44680357Y-77132380D01*
X44775595Y-77180000D01*
X44823214Y-77227619D01*
X44870833Y-77322857D01*
X44870833Y-77465714D01*
X44823214Y-77560952D01*
X44775595Y-77608571D01*
X44680357Y-77656190D01*
X44299404Y-77656190D01*
X45823214Y-78132380D02*
X45251785Y-78132380D01*
X45537500Y-78132380D02*
X45537500Y-77132380D01*
X45442261Y-77275238D01*
X45347023Y-77370476D01*
X45251785Y-77418095D01*
%TO.C,TP1*%
X74738095Y-59804380D02*
X75309523Y-59804380D01*
X75023809Y-60804380D02*
X75023809Y-59804380D01*
X75642857Y-60804380D02*
X75642857Y-59804380D01*
X76023809Y-59804380D01*
X76119047Y-59852000D01*
X76166666Y-59899619D01*
X76214285Y-59994857D01*
X76214285Y-60137714D01*
X76166666Y-60232952D01*
X76119047Y-60280571D01*
X76023809Y-60328190D01*
X75642857Y-60328190D01*
X77166666Y-60804380D02*
X76595238Y-60804380D01*
X76880952Y-60804380D02*
X76880952Y-59804380D01*
X76785714Y-59947238D01*
X76690476Y-60042476D01*
X76595238Y-60090095D01*
D11*
%TO.C,J7*%
X53200000Y-113750000D02*
X57500000Y-113750000D01*
X52450000Y-118950000D02*
X54250000Y-118950000D01*
X60750000Y-118950000D02*
X62550000Y-118950000D01*
X54250000Y-118950000D02*
X54250000Y-118200000D01*
X52450000Y-116700000D02*
X53200000Y-116700000D01*
X53200000Y-116700000D02*
X53200000Y-113750000D01*
X55750000Y-118950000D02*
X59250000Y-118950000D01*
X52450000Y-118200000D02*
X52450000Y-118950000D01*
X61600000Y-119250000D02*
X62850000Y-119250000D01*
X52440000Y-118960000D02*
X62560000Y-118960000D01*
X62550000Y-118950000D02*
X62550000Y-118200000D01*
X61800000Y-113750000D02*
X57500000Y-113750000D01*
X55750000Y-118200000D02*
X55750000Y-118950000D01*
X62560000Y-118960000D02*
X62560000Y-112990000D01*
X62550000Y-116700000D02*
X61800000Y-116700000D01*
X61800000Y-116700000D02*
X61800000Y-113750000D01*
X54250000Y-118200000D02*
X52450000Y-118200000D01*
X60750000Y-118200000D02*
X60750000Y-118950000D01*
X59250000Y-118950000D02*
X59250000Y-118200000D01*
X52440000Y-112990000D02*
X52440000Y-118960000D01*
X62550000Y-118200000D02*
X60750000Y-118200000D01*
X59250000Y-118200000D02*
X55750000Y-118200000D01*
X62560000Y-112990000D02*
X52440000Y-112990000D01*
X62850000Y-119250000D02*
X62850000Y-118000000D01*
%TO.C,J5*%
X34800000Y-86300000D02*
X34800000Y-85550000D01*
X34800000Y-78700000D02*
X34800000Y-79450000D01*
X32550000Y-86300000D02*
X33300000Y-86300000D01*
X33300000Y-84500000D02*
X32550000Y-84500000D01*
X32550000Y-84500000D02*
X32550000Y-86300000D01*
X32550000Y-78700000D02*
X32550000Y-80500000D01*
X38510000Y-78690000D02*
X32540000Y-78690000D01*
X38510000Y-86310000D02*
X38510000Y-78690000D01*
X37750000Y-85550000D02*
X37750000Y-82500000D01*
X32550000Y-80500000D02*
X33300000Y-80500000D01*
X33300000Y-83000000D02*
X33300000Y-82000000D01*
X34800000Y-85550000D02*
X37750000Y-85550000D01*
X32540000Y-86310000D02*
X38510000Y-86310000D01*
X34800000Y-79450000D02*
X37750000Y-79450000D01*
X32550000Y-82000000D02*
X32550000Y-83000000D01*
X32550000Y-83000000D02*
X33300000Y-83000000D01*
X32540000Y-78690000D02*
X32540000Y-86310000D01*
X32250000Y-85350000D02*
X32250000Y-86600000D01*
X33300000Y-82000000D02*
X32550000Y-82000000D01*
X33300000Y-78700000D02*
X32550000Y-78700000D01*
X37750000Y-79450000D02*
X37750000Y-82500000D01*
X33300000Y-80500000D02*
X33300000Y-78700000D01*
X32250000Y-86600000D02*
X33500000Y-86600000D01*
X33300000Y-86300000D02*
X33300000Y-84500000D01*
%TO.C,C4*%
X71815000Y-65097164D02*
X71815000Y-65312836D01*
X72535000Y-65097164D02*
X72535000Y-65312836D01*
%TO.C,J2*%
X112550000Y-61000000D02*
X112550000Y-62800000D01*
X112550000Y-71800000D02*
X112550000Y-73600000D01*
X112550000Y-64300000D02*
X112550000Y-70300000D01*
X114800000Y-61000000D02*
X114800000Y-61750000D01*
X114800000Y-61750000D02*
X117750000Y-61750000D01*
X112550000Y-62800000D02*
X113300000Y-62800000D01*
X112540000Y-73610000D02*
X118510000Y-73610000D01*
X112250000Y-73900000D02*
X113500000Y-73900000D01*
X112550000Y-70300000D02*
X113300000Y-70300000D01*
X113300000Y-71800000D02*
X112550000Y-71800000D01*
X118510000Y-73610000D02*
X118510000Y-60990000D01*
X113300000Y-73600000D02*
X113300000Y-71800000D01*
X118510000Y-60990000D02*
X112540000Y-60990000D01*
X114800000Y-72850000D02*
X117750000Y-72850000D01*
X113300000Y-61000000D02*
X112550000Y-61000000D01*
X114800000Y-73600000D02*
X114800000Y-72850000D01*
X113300000Y-70300000D02*
X113300000Y-64300000D01*
X117750000Y-61750000D02*
X117750000Y-67300000D01*
X117750000Y-72850000D02*
X117750000Y-67300000D01*
X113300000Y-64300000D02*
X112550000Y-64300000D01*
X112250000Y-72650000D02*
X112250000Y-73900000D01*
X113300000Y-62800000D02*
X113300000Y-61000000D01*
X112540000Y-60990000D02*
X112540000Y-73610000D01*
X112550000Y-73600000D02*
X113300000Y-73600000D01*
%TO.C,R2*%
X44272936Y-99080000D02*
X45727064Y-99080000D01*
X44272936Y-97260000D02*
X45727064Y-97260000D01*
D10*
%TO.C,uC1*%
X81125000Y-73875000D02*
X81125000Y-74200000D01*
X73875000Y-81125000D02*
X74200000Y-81125000D01*
X81125000Y-81125000D02*
X80800000Y-81125000D01*
X80900000Y-73875000D02*
X80900000Y-72450000D01*
X73875000Y-73875000D02*
X73875000Y-74200000D01*
X73875000Y-73875000D02*
X74200000Y-73875000D01*
X73875000Y-81125000D02*
X73875000Y-80800000D01*
X81125000Y-73875000D02*
X80900000Y-73875000D01*
X81125000Y-81125000D02*
X81125000Y-80800000D01*
D11*
%TO.C,J3*%
X114300000Y-42450000D02*
X114300000Y-43200000D01*
X112050000Y-54250000D02*
X112800000Y-54250000D01*
X112800000Y-45750000D02*
X112050000Y-45750000D01*
X117250000Y-43200000D02*
X117250000Y-50000000D01*
X117250000Y-56800000D02*
X117250000Y-50000000D01*
X112800000Y-54250000D02*
X112800000Y-45750000D01*
X112050000Y-44250000D02*
X112800000Y-44250000D01*
X112050000Y-42450000D02*
X112050000Y-44250000D01*
X111750000Y-57850000D02*
X113000000Y-57850000D01*
X112050000Y-57550000D02*
X112800000Y-57550000D01*
X111750000Y-56600000D02*
X111750000Y-57850000D01*
X112800000Y-57550000D02*
X112800000Y-55750000D01*
X114300000Y-56800000D02*
X117250000Y-56800000D01*
X118010000Y-42440000D02*
X112040000Y-42440000D01*
X112800000Y-55750000D02*
X112050000Y-55750000D01*
X118010000Y-57560000D02*
X118010000Y-42440000D01*
X114300000Y-43200000D02*
X117250000Y-43200000D01*
X112800000Y-42450000D02*
X112050000Y-42450000D01*
X112800000Y-44250000D02*
X112800000Y-42450000D01*
X112050000Y-45750000D02*
X112050000Y-54250000D01*
X114300000Y-57550000D02*
X114300000Y-56800000D01*
X112050000Y-55750000D02*
X112050000Y-57550000D01*
X112040000Y-42440000D02*
X112040000Y-57560000D01*
X112040000Y-57560000D02*
X118010000Y-57560000D01*
%TO.C,J1*%
X69920000Y-31960000D02*
X80080000Y-31960000D01*
X80080000Y-38310000D02*
X80080000Y-30690000D01*
X80080000Y-30690000D02*
X69920000Y-30690000D01*
X69920000Y-38310000D02*
X80080000Y-38310000D01*
X69920000Y-30690000D02*
X69920000Y-38310000D01*
%TO.C,J4*%
X116130000Y-101100000D02*
X116130000Y-102430000D01*
X116130000Y-102430000D02*
X114800000Y-102430000D01*
X116130000Y-99830000D02*
X113470000Y-99830000D01*
X113470000Y-99830000D02*
X113470000Y-81990000D01*
X116130000Y-81990000D02*
X113470000Y-81990000D01*
X116130000Y-99830000D02*
X116130000Y-81990000D01*
%TO.C,C3*%
X77315000Y-65117164D02*
X77315000Y-65332836D01*
X78035000Y-65117164D02*
X78035000Y-65332836D01*
%TO.C,J6*%
X33300000Y-97450000D02*
X32550000Y-97450000D01*
X32550000Y-105050000D02*
X33300000Y-105050000D01*
X33300000Y-101750000D02*
X33300000Y-100750000D01*
X33300000Y-103250000D02*
X32550000Y-103250000D01*
X32550000Y-101750000D02*
X33300000Y-101750000D01*
X32540000Y-97440000D02*
X32540000Y-105060000D01*
X38510000Y-105060000D02*
X38510000Y-97440000D01*
X32550000Y-103250000D02*
X32550000Y-105050000D01*
X34800000Y-98200000D02*
X37750000Y-98200000D01*
X37750000Y-98200000D02*
X37750000Y-101250000D01*
X33300000Y-99250000D02*
X33300000Y-97450000D01*
X34800000Y-105050000D02*
X34800000Y-104300000D01*
X32540000Y-105060000D02*
X38510000Y-105060000D01*
X32550000Y-97450000D02*
X32550000Y-99250000D01*
X34800000Y-104300000D02*
X37750000Y-104300000D01*
X38510000Y-97440000D02*
X32540000Y-97440000D01*
X33300000Y-105050000D02*
X33300000Y-103250000D01*
X37750000Y-104300000D02*
X37750000Y-101250000D01*
X32550000Y-99250000D02*
X33300000Y-99250000D01*
X32550000Y-100750000D02*
X32550000Y-101750000D01*
X34800000Y-97450000D02*
X34800000Y-98200000D01*
X32250000Y-105350000D02*
X33500000Y-105350000D01*
X32250000Y-104100000D02*
X32250000Y-105350000D01*
X33300000Y-100750000D02*
X32550000Y-100750000D01*
%TO.C,R13*%
X99764564Y-86590000D02*
X98310436Y-86590000D01*
X99764564Y-88410000D02*
X98310436Y-88410000D01*
%TO.C,Y1*%
X76925000Y-67375000D02*
X76925000Y-64075000D01*
X76925000Y-64075000D02*
X72925000Y-64075000D01*
%TO.C,R1*%
X44310436Y-80410000D02*
X45764564Y-80410000D01*
X44310436Y-78590000D02*
X45764564Y-78590000D01*
%TO.C,TP1*%
X75050000Y-61050000D02*
X76950000Y-61050000D01*
X76950000Y-62950000D02*
X75050000Y-62950000D01*
X75050000Y-62950000D02*
X75050000Y-61050000D01*
X76950000Y-61050000D02*
X76950000Y-62950000D01*
%TD*%
%LPC*%
D12*
%TO.C,J7*%
X60000000Y-116500000D03*
D13*
X57500000Y-116500000D03*
X55000000Y-116500000D03*
%TD*%
D14*
%TO.C,J5*%
X35000000Y-83750000D03*
D15*
X35000000Y-81250000D03*
%TD*%
D16*
%TO.C,C4*%
X72175000Y-64725000D03*
X72175000Y-65685000D03*
%TD*%
D17*
%TO.C,J2*%
X115000000Y-71050000D03*
D18*
X115000000Y-68550000D03*
X115000000Y-66050000D03*
X115000000Y-63550000D03*
%TD*%
D19*
%TO.C,R2*%
X43537500Y-98170000D03*
X46462500Y-98170000D03*
%TD*%
D20*
%TO.C,uC1*%
X80300000Y-73250000D03*
X79500000Y-73250000D03*
X78700000Y-73250000D03*
X77900000Y-73250000D03*
X77100000Y-73250000D03*
X76300000Y-73250000D03*
X75500000Y-73250000D03*
X74700000Y-73250000D03*
D21*
X73250000Y-74700000D03*
X73250000Y-75500000D03*
X73250000Y-76300000D03*
X73250000Y-77100000D03*
X73250000Y-77900000D03*
X73250000Y-78700000D03*
X73250000Y-79500000D03*
X73250000Y-80300000D03*
D20*
X74700000Y-81750000D03*
X75500000Y-81750000D03*
X76300000Y-81750000D03*
X77100000Y-81750000D03*
X77900000Y-81750000D03*
X78700000Y-81750000D03*
X79500000Y-81750000D03*
X80300000Y-81750000D03*
D21*
X81750000Y-80300000D03*
X81750000Y-79500000D03*
X81750000Y-78700000D03*
X81750000Y-77900000D03*
X81750000Y-77100000D03*
X81750000Y-76300000D03*
X81750000Y-75500000D03*
X81750000Y-74700000D03*
%TD*%
D17*
%TO.C,J3*%
X114500000Y-55000000D03*
D18*
X114500000Y-52500000D03*
X114500000Y-50000000D03*
X114500000Y-47500000D03*
X114500000Y-45000000D03*
%TD*%
D22*
%TO.C,J1*%
X77540000Y-34500000D03*
D23*
X72460000Y-34500000D03*
%TD*%
D24*
%TO.C,J4*%
X114800000Y-101100000D03*
D25*
X114800000Y-98560000D03*
X114800000Y-96020000D03*
X114800000Y-93480000D03*
X114800000Y-90940000D03*
X114800000Y-88400000D03*
X114800000Y-85860000D03*
X114800000Y-83320000D03*
%TD*%
D16*
%TO.C,C3*%
X77675000Y-64745000D03*
X77675000Y-65705000D03*
%TD*%
D26*
%TO.C,H1*%
X35000000Y-35000000D03*
%TD*%
%TO.C,H4*%
X115000000Y-115000000D03*
%TD*%
D14*
%TO.C,J6*%
X35000000Y-102500000D03*
D15*
X35000000Y-100000000D03*
%TD*%
D27*
%TO.C,R13*%
X100500000Y-87500000D03*
X97575000Y-87500000D03*
%TD*%
D26*
%TO.C,H3*%
X35000000Y-115000000D03*
%TD*%
D28*
%TO.C,Y1*%
X76025000Y-64875000D03*
X73825000Y-64875000D03*
X73825000Y-66575000D03*
X76025000Y-66575000D03*
%TD*%
D26*
%TO.C,H2*%
X115000000Y-35000000D03*
%TD*%
D19*
%TO.C,R1*%
X43575000Y-79500000D03*
X46500000Y-79500000D03*
%TD*%
D29*
%TO.C,TP1*%
X76000000Y-62000000D03*
%TD*%
M02*
