%TF.GenerationSoftware,KiCad,Pcbnew,6.0.11-2627ca5db0~126~ubuntu22.04.1*%
%TF.CreationDate,2023-04-06T15:07:13+02:00*%
%TF.ProjectId,Subductor_carte_commande,53756264-7563-4746-9f72-5f6361727465,rev?*%
%TF.SameCoordinates,Original*%
%TF.FileFunction,Paste,Top*%
%TF.FilePolarity,Positive*%
%FSLAX46Y46*%
G04 Gerber Fmt 4.6, Leading zero omitted, Abs format (unit mm)*
G04 Created by KiCad (PCBNEW 6.0.11-2627ca5db0~126~ubuntu22.04.1) date 2023-04-06 15:07:13*
%MOMM*%
%LPD*%
G01*
G04 APERTURE LIST*
G04 Aperture macros list*
%AMRoundRect*
0 Rectangle with rounded corners*
0 $1 Rounding radius*
0 $2 $3 $4 $5 $6 $7 $8 $9 X,Y pos of 4 corners*
0 Add a 4 corners polygon primitive as box body*
4,1,4,$2,$3,$4,$5,$6,$7,$8,$9,$2,$3,0*
0 Add four circle primitives for the rounded corners*
1,1,$1+$1,$2,$3*
1,1,$1+$1,$4,$5*
1,1,$1+$1,$6,$7*
1,1,$1+$1,$8,$9*
0 Add four rect primitives between the rounded corners*
20,1,$1+$1,$2,$3,$4,$5,0*
20,1,$1+$1,$4,$5,$6,$7,0*
20,1,$1+$1,$6,$7,$8,$9,0*
20,1,$1+$1,$8,$9,$2,$3,0*%
G04 Aperture macros list end*
%ADD10RoundRect,0.140000X-0.170000X0.140000X-0.170000X-0.140000X0.170000X-0.140000X0.170000X0.140000X0*%
%ADD11RoundRect,0.250000X-0.312500X-0.625000X0.312500X-0.625000X0.312500X0.625000X-0.312500X0.625000X0*%
%ADD12R,0.550000X1.600000*%
%ADD13R,1.600000X0.550000*%
%ADD14RoundRect,0.250000X0.312500X0.625000X-0.312500X0.625000X-0.312500X-0.625000X0.312500X-0.625000X0*%
%ADD15R,1.400000X1.200000*%
G04 APERTURE END LIST*
D10*
%TO.C,C4*%
X72175000Y-64725000D03*
X72175000Y-65685000D03*
%TD*%
D11*
%TO.C,R2*%
X43537500Y-98170000D03*
X46462500Y-98170000D03*
%TD*%
D12*
%TO.C,uC1*%
X80300000Y-73250000D03*
X79500000Y-73250000D03*
X78700000Y-73250000D03*
X77900000Y-73250000D03*
X77100000Y-73250000D03*
X76300000Y-73250000D03*
X75500000Y-73250000D03*
X74700000Y-73250000D03*
D13*
X73250000Y-74700000D03*
X73250000Y-75500000D03*
X73250000Y-76300000D03*
X73250000Y-77100000D03*
X73250000Y-77900000D03*
X73250000Y-78700000D03*
X73250000Y-79500000D03*
X73250000Y-80300000D03*
D12*
X74700000Y-81750000D03*
X75500000Y-81750000D03*
X76300000Y-81750000D03*
X77100000Y-81750000D03*
X77900000Y-81750000D03*
X78700000Y-81750000D03*
X79500000Y-81750000D03*
X80300000Y-81750000D03*
D13*
X81750000Y-80300000D03*
X81750000Y-79500000D03*
X81750000Y-78700000D03*
X81750000Y-77900000D03*
X81750000Y-77100000D03*
X81750000Y-76300000D03*
X81750000Y-75500000D03*
X81750000Y-74700000D03*
%TD*%
D10*
%TO.C,C3*%
X77675000Y-64745000D03*
X77675000Y-65705000D03*
%TD*%
D14*
%TO.C,R13*%
X100500000Y-87500000D03*
X97575000Y-87500000D03*
%TD*%
D15*
%TO.C,Y1*%
X76025000Y-64875000D03*
X73825000Y-64875000D03*
X73825000Y-66575000D03*
X76025000Y-66575000D03*
%TD*%
D11*
%TO.C,R1*%
X43575000Y-79500000D03*
X46500000Y-79500000D03*
%TD*%
M02*
